<?xml version="1.0" encoding="UTF-8"?>
<svg xmlns="http://www.w3.org/2000/svg" xmlns:xlink="http://www.w3.org/1999/xlink" width="146pt" height="62pt" viewBox="0 0 146 62" version="1.1">
<g id="surface1">
<path style=" stroke:none;fill-rule:nonzero;fill:rgb(0%,0%,0%);fill-opacity:1;" d="M 4.210938 59.488281 C 4.210938 58.390625 3.320312 57.496094 2.21875 57.496094 C 1.121094 57.496094 0.226562 58.390625 0.226562 59.488281 C 0.226562 60.589844 1.121094 61.484375 2.21875 61.484375 C 3.320312 61.484375 4.210938 60.589844 4.210938 59.488281 Z M 4.210938 59.488281 "/>
<path style=" stroke:none;fill-rule:nonzero;fill:rgb(0%,0%,0%);fill-opacity:1;" d="M 4.210938 2.796875 C 4.210938 1.695312 3.320312 0.804688 2.21875 0.804688 C 1.121094 0.804688 0.226562 1.695312 0.226562 2.796875 C 0.226562 3.898438 1.121094 4.789062 2.21875 4.789062 C 3.320312 4.789062 4.210938 3.898438 4.210938 2.796875 Z M 4.210938 2.796875 "/>
<path style=" stroke:none;fill-rule:nonzero;fill:rgb(0%,0%,0%);fill-opacity:1;" d="M 32.558594 59.488281 C 32.558594 58.390625 31.667969 57.496094 30.566406 57.496094 C 29.464844 57.496094 28.574219 58.390625 28.574219 59.488281 C 28.574219 60.589844 29.464844 61.484375 30.566406 61.484375 C 31.667969 61.484375 32.558594 60.589844 32.558594 59.488281 Z M 32.558594 59.488281 "/>
<path style=" stroke:none;fill-rule:nonzero;fill:rgb(0%,0%,0%);fill-opacity:1;" d="M 32.558594 2.796875 C 32.558594 1.695312 31.667969 0.804688 30.566406 0.804688 C 29.464844 0.804688 28.574219 1.695312 28.574219 2.796875 C 28.574219 3.898438 29.464844 4.789062 30.566406 4.789062 C 31.667969 4.789062 32.558594 3.898438 32.558594 2.796875 Z M 32.558594 2.796875 "/>
<path style=" stroke:none;fill-rule:nonzero;fill:rgb(0%,0%,0%);fill-opacity:1;" d="M 60.90625 59.488281 C 60.90625 58.390625 60.015625 57.496094 58.914062 57.496094 C 57.8125 57.496094 56.921875 58.390625 56.921875 59.488281 C 56.921875 60.589844 57.8125 61.484375 58.914062 61.484375 C 60.015625 61.484375 60.90625 60.589844 60.90625 59.488281 Z M 60.90625 59.488281 "/>
<path style=" stroke:none;fill-rule:nonzero;fill:rgb(0%,0%,0%);fill-opacity:1;" d="M 60.90625 2.796875 C 60.90625 1.695312 60.015625 0.804688 58.914062 0.804688 C 57.8125 0.804688 56.921875 1.695312 56.921875 2.796875 C 56.921875 3.898438 57.8125 4.789062 58.914062 4.789062 C 60.015625 4.789062 60.90625 3.898438 60.90625 2.796875 Z M 60.90625 2.796875 "/>
<path style=" stroke:none;fill-rule:nonzero;fill:rgb(0%,0%,0%);fill-opacity:1;" d="M 89.253906 59.488281 C 89.253906 58.390625 88.359375 57.496094 87.261719 57.496094 C 86.160156 57.496094 85.269531 58.390625 85.269531 59.488281 C 85.269531 60.589844 86.160156 61.484375 87.261719 61.484375 C 88.359375 61.484375 89.253906 60.589844 89.253906 59.488281 Z M 89.253906 59.488281 "/>
<path style=" stroke:none;fill-rule:nonzero;fill:rgb(0%,0%,0%);fill-opacity:1;" d="M 89.253906 2.796875 C 89.253906 1.695312 88.359375 0.804688 87.261719 0.804688 C 86.160156 0.804688 85.269531 1.695312 85.269531 2.796875 C 85.269531 3.898438 86.160156 4.789062 87.261719 4.789062 C 88.359375 4.789062 89.253906 3.898438 89.253906 2.796875 Z M 89.253906 2.796875 "/>
<path style=" stroke:none;fill-rule:nonzero;fill:rgb(0%,0%,0%);fill-opacity:1;" d="M 117.601562 59.488281 C 117.601562 58.390625 116.707031 57.496094 115.605469 57.496094 C 114.507812 57.496094 113.613281 58.390625 113.613281 59.488281 C 113.613281 60.589844 114.507812 61.484375 115.605469 61.484375 C 116.707031 61.484375 117.601562 60.589844 117.601562 59.488281 Z M 117.601562 59.488281 "/>
<path style=" stroke:none;fill-rule:nonzero;fill:rgb(0%,0%,0%);fill-opacity:1;" d="M 117.601562 2.796875 C 117.601562 1.695312 116.707031 0.804688 115.605469 0.804688 C 114.507812 0.804688 113.613281 1.695312 113.613281 2.796875 C 113.613281 3.898438 114.507812 4.789062 115.605469 4.789062 C 116.707031 4.789062 117.601562 3.898438 117.601562 2.796875 Z M 117.601562 2.796875 "/>
<path style=" stroke:none;fill-rule:nonzero;fill:rgb(0%,0%,0%);fill-opacity:1;" d="M 145.945312 59.488281 C 145.945312 58.390625 145.054688 57.496094 143.953125 57.496094 C 142.855469 57.496094 141.960938 58.390625 141.960938 59.488281 C 141.960938 60.589844 142.855469 61.484375 143.953125 61.484375 C 145.054688 61.484375 145.945312 60.589844 145.945312 59.488281 Z M 145.945312 59.488281 "/>
<path style=" stroke:none;fill-rule:nonzero;fill:rgb(0%,0%,0%);fill-opacity:1;" d="M 145.945312 2.796875 C 145.945312 1.695312 145.054688 0.804688 143.953125 0.804688 C 142.855469 0.804688 141.960938 1.695312 141.960938 2.796875 C 141.960938 3.898438 142.855469 4.789062 143.953125 4.789062 C 145.054688 4.789062 145.945312 3.898438 145.945312 2.796875 Z M 145.945312 2.796875 "/>
<path style="fill:none;stroke-width:1.99255;stroke-linecap:butt;stroke-linejoin:miter;stroke:rgb(0%,0%,0%);stroke-opacity:1;stroke-miterlimit:10;" d="M -0.00125 0.00171875 L 28.346406 56.693125 M 28.346406 0.00171875 L 56.694062 56.693125 M 56.694062 0.00171875 L -0.00125 56.693125 M 85.041719 0.00171875 L 113.385469 56.693125 M 113.385469 0.00171875 L 141.733125 56.693125 " transform="matrix(1,0,0,-1,2.22,59.49)"/>
<path style="fill:none;stroke-width:0.19925;stroke-linecap:butt;stroke-linejoin:miter;stroke:rgb(0%,0%,0%);stroke-opacity:1;stroke-miterlimit:10;" d="M -0.00125 0.00171875 L 56.694062 56.693125 M 28.346406 0.00171875 L -0.00125 56.693125 M 56.694062 0.00171875 L 28.346406 56.693125 M 56.694062 0.00171875 L 85.041719 56.693125 M 56.694062 0.00171875 L 113.385469 56.693125 M 85.041719 0.00171875 L 56.694062 56.693125 M 113.385469 0.00171875 L 56.694062 56.693125 M 113.385469 0.00171875 L 85.041719 56.693125 M 113.385469 0.00171875 L 113.385469 56.693125 M 141.733125 0.00171875 L 113.385469 56.693125 M 141.733125 0.00171875 L 141.733125 56.693125 " transform="matrix(1,0,0,-1,2.22,59.49)"/>
</g>
</svg>
