<?xml version="1.0" encoding="UTF-8"?>
<svg xmlns="http://www.w3.org/2000/svg" xmlns:xlink="http://www.w3.org/1999/xlink" width="100pt" height="39pt" viewBox="0 0 100 39" version="1.1">
<g id="surface1">
<path style="fill:none;stroke-width:0.3985;stroke-linecap:butt;stroke-linejoin:miter;stroke:rgb(0%,0%,0%);stroke-opacity:1;stroke-miterlimit:10;" d="M -0.00171875 -0.000625 L -0.00171875 28.347031 M 28.345937 -0.000625 L 28.345937 28.347031 M 56.693594 -0.000625 L 56.693594 28.347031 " transform="matrix(1,0,0,-1,7.49,31.14)"/>
<path style=" stroke:none;fill-rule:nonzero;fill:rgb(0%,0%,0%);fill-opacity:1;" d="M 9.484375 31.140625 C 9.484375 30.039062 8.589844 29.148438 7.488281 29.148438 C 6.390625 29.148438 5.496094 30.039062 5.496094 31.140625 C 5.496094 32.242188 6.390625 33.132812 7.488281 33.132812 C 8.589844 33.132812 9.484375 32.242188 9.484375 31.140625 Z M 9.484375 31.140625 "/>
<path style=" stroke:none;fill-rule:nonzero;fill:rgb(0%,0%,0%);fill-opacity:1;" d="M 9.484375 2.792969 C 9.484375 1.691406 8.589844 0.800781 7.488281 0.800781 C 6.390625 0.800781 5.496094 1.691406 5.496094 2.792969 C 5.496094 3.894531 6.390625 4.785156 7.488281 4.785156 C 8.589844 4.785156 9.484375 3.894531 9.484375 2.792969 Z M 9.484375 2.792969 "/>
<path style=" stroke:none;fill-rule:nonzero;fill:rgb(0%,0%,0%);fill-opacity:1;" d="M 37.828125 31.140625 C 37.828125 30.039062 36.9375 29.148438 35.835938 29.148438 C 34.738281 29.148438 33.84375 30.039062 33.84375 31.140625 C 33.84375 32.242188 34.738281 33.132812 35.835938 33.132812 C 36.9375 33.132812 37.828125 32.242188 37.828125 31.140625 Z M 37.828125 31.140625 "/>
<path style=" stroke:none;fill-rule:nonzero;fill:rgb(0%,0%,0%);fill-opacity:1;" d="M 37.828125 2.792969 C 37.828125 1.691406 36.9375 0.800781 35.835938 0.800781 C 34.738281 0.800781 33.84375 1.691406 33.84375 2.792969 C 33.84375 3.894531 34.738281 4.785156 35.835938 4.785156 C 36.9375 4.785156 37.828125 3.894531 37.828125 2.792969 Z M 37.828125 2.792969 "/>
<path style=" stroke:none;fill-rule:nonzero;fill:rgb(0%,0%,0%);fill-opacity:1;" d="M 66.175781 31.140625 C 66.175781 30.039062 65.285156 29.148438 64.183594 29.148438 C 63.082031 29.148438 62.191406 30.039062 62.191406 31.140625 C 62.191406 32.242188 63.082031 33.132812 64.183594 33.132812 C 65.285156 33.132812 66.175781 32.242188 66.175781 31.140625 Z M 66.175781 31.140625 "/>
<path style=" stroke:none;fill-rule:nonzero;fill:rgb(0%,0%,0%);fill-opacity:1;" d="M 66.175781 2.792969 C 66.175781 1.691406 65.285156 0.800781 64.183594 0.800781 C 63.082031 0.800781 62.191406 1.691406 62.191406 2.792969 C 62.191406 3.894531 63.082031 4.785156 64.183594 4.785156 C 65.285156 4.785156 66.175781 3.894531 66.175781 2.792969 Z M 66.175781 2.792969 "/>
<path style=" stroke:none;fill-rule:nonzero;fill:rgb(0%,0%,0%);fill-opacity:1;" d="M 94.523438 31.140625 C 94.523438 30.039062 93.632812 29.148438 92.53125 29.148438 C 91.429688 29.148438 90.539062 30.039062 90.539062 31.140625 C 90.539062 32.242188 91.429688 33.132812 92.53125 33.132812 C 93.632812 33.132812 94.523438 32.242188 94.523438 31.140625 Z M 94.523438 31.140625 "/>
<path style=" stroke:none;fill-rule:nonzero;fill:rgb(0%,0%,0%);fill-opacity:1;" d="M 94.523438 2.792969 C 94.523438 1.691406 93.632812 0.800781 92.53125 0.800781 C 91.429688 0.800781 90.539062 1.691406 90.539062 2.792969 C 90.539062 3.894531 91.429688 4.785156 92.53125 4.785156 C 93.632812 4.785156 94.523438 3.894531 94.523438 2.792969 Z M 94.523438 2.792969 "/>
<path style="fill:none;stroke-width:0.3985;stroke-linecap:butt;stroke-linejoin:miter;stroke:rgb(0%,0%,0%);stroke-opacity:1;stroke-miterlimit:10;" d="M -0.00171875 -0.000625 L 56.693594 28.347031 L 28.345937 -0.000625 L 85.04125 28.347031 M -0.00171875 28.347031 L 56.693594 -0.000625 M -0.00171875 28.347031 L 85.04125 -0.000625 L 56.693594 28.347031 " transform="matrix(1,0,0,-1,7.49,31.14)"/>
<path style="fill:none;stroke-width:0.3985;stroke-linecap:butt;stroke-linejoin:miter;stroke:rgb(0%,0%,0%);stroke-opacity:1;stroke-dasharray:2.98883,2.98883;stroke-miterlimit:10;" d="M 6.974844 -0.000625 C 6.974844 3.850938 3.849844 6.972031 -0.00171875 6.972031 C -3.853281 6.972031 -6.974375 3.850938 -6.974375 -0.000625 C -6.974375 -3.852187 -3.853281 -6.973281 -0.00171875 -6.973281 C 3.849844 -6.973281 6.974844 -3.852187 6.974844 -0.000625 Z M 63.66625 -0.000625 C 63.66625 3.850938 60.545156 6.972031 56.693594 6.972031 C 52.842031 6.972031 49.720937 3.850938 49.720937 -0.000625 C 49.720937 -3.852187 52.842031 -6.973281 56.693594 -6.973281 C 60.545156 -6.973281 63.66625 -3.852187 63.66625 -0.000625 Z M 92.013906 -0.000625 C 92.013906 3.850938 88.892812 6.972031 85.04125 6.972031 C 81.189687 6.972031 78.064687 3.850938 78.064687 -0.000625 C 78.064687 -3.852187 81.189687 -6.973281 85.04125 -6.973281 C 88.892812 -6.973281 92.013906 -3.852187 92.013906 -0.000625 Z M 92.013906 -0.000625 " transform="matrix(1,0,0,-1,7.49,31.14)"/>
</g>
</svg>
