<?xml version="1.0" encoding="UTF-8"?>
<svg xmlns="http://www.w3.org/2000/svg" xmlns:xlink="http://www.w3.org/1999/xlink" width="171pt" height="143pt" viewBox="0 0 171 143" version="1.1">
<g id="surface1">
<path style="fill:none;stroke-width:0.3985;stroke-linecap:butt;stroke-linejoin:miter;stroke:rgb(0%,0%,0%);stroke-opacity:1;stroke-miterlimit:10;" d="M -0.00046875 -0.00125 L 141.733906 -0.00125 M -0.00046875 28.346406 L 141.733906 28.346406 M -0.00046875 56.694063 L 141.733906 56.694063 M -0.00046875 85.041719 L 141.733906 85.041719 M -0.00046875 113.377656 L 141.733906 113.377656 M -0.00046875 -0.00125 L -0.00046875 113.385469 M 28.347187 -0.00125 L 28.347187 113.385469 M 56.694844 -0.00125 L 56.694844 113.385469 M 85.038594 -0.00125 L 85.038594 113.385469 M 113.38625 -0.00125 L 113.38625 113.385469 M 141.722187 -0.00125 L 141.722187 113.385469 " transform="matrix(1,0,0,-1,0.52,142.53)"/>
<path style="fill:none;stroke-width:0.3985;stroke-linecap:butt;stroke-linejoin:miter;stroke:rgb(0%,0%,0%);stroke-opacity:1;stroke-miterlimit:10;" d="M 99.214375 141.733125 L 99.214375 120.932344 " transform="matrix(1,0,0,-1,0.52,142.53)"/>
<path style="fill:none;stroke-width:0.31879;stroke-linecap:round;stroke-linejoin:round;stroke:rgb(0%,0%,0%);stroke-opacity:1;stroke-miterlimit:10;" d="M -1.195456 1.594305 C -1.0978 0.996649 -0.00014375 0.0982112 0.300638 0.000555 C -0.00014375 -0.101008 -1.0978 -0.995539 -1.195456 -1.593195 " transform="matrix(0,1,1,0,99.73382,21.5978)"/>
<path style="fill:none;stroke-width:0.3985;stroke-linecap:butt;stroke-linejoin:miter;stroke:rgb(0%,0%,0%);stroke-opacity:1;stroke-miterlimit:10;" d="M 170.081562 42.518281 L 149.280781 42.518281 " transform="matrix(1,0,0,-1,0.52,142.53)"/>
<path style="fill:none;stroke-width:0.31879;stroke-linecap:round;stroke-linejoin:round;stroke:rgb(0%,0%,0%);stroke-opacity:1;stroke-miterlimit:10;" d="M -1.197094 1.595669 C -1.095531 0.998013 -0.00178125 0.099575 0.299 0.00191875 C -0.00178125 -0.0996437 -1.095531 -0.998081 -1.197094 -1.595737 " transform="matrix(-1,0,0,1,149.799,100.0098)"/>
</g>
</svg>
