<?xml version="1.0" encoding="UTF-8"?>
<svg xmlns="http://www.w3.org/2000/svg" xmlns:xlink="http://www.w3.org/1999/xlink" width="102pt" height="107pt" viewBox="0 0 102 107" version="1.1">
<g id="surface1">
<path style="fill:none;stroke-width:0.3985;stroke-linecap:butt;stroke-linejoin:miter;stroke:rgb(0%,0%,0%);stroke-opacity:1;stroke-miterlimit:10;" d="M 0 51.023125 L 0 -51.02375 L 48.527344 -15.765937 L -48.527344 15.769219 L -48.527344 -15.765937 M -29.992188 -41.277656 L -29.992188 41.280938 L 29.992188 41.280938 L 0 -51.02375 M 29.992188 41.280938 L -29.992188 -41.277656 L 0 51.023125 L -29.992188 41.280938 " transform="matrix(1,0,0,-1,50.75,53.82)"/>
<path style="fill:none;stroke-width:0.3985;stroke-linecap:butt;stroke-linejoin:miter;stroke:rgb(0%,0%,0%);stroke-opacity:1;stroke-miterlimit:10;" d="M 0 51.023125 L 29.992188 41.280938 L 0 -51.02375 L -29.992188 -41.277656 L -29.992188 41.280938 L 0 51.023125 L 0 -51.02375 L -29.992188 41.280938 L 29.992188 41.280938 L -29.992188 -41.277656 L 0 51.023125 " transform="matrix(1,0,0,-1,50.75,53.82)"/>
<path style="fill:none;stroke-width:0.3985;stroke-linecap:butt;stroke-linejoin:miter;stroke:rgb(0%,0%,0%);stroke-opacity:1;stroke-miterlimit:10;" d="M 0 51.023125 L 29.992188 41.280938 L 48.527344 15.769219 L 48.527344 -15.765937 L 29.992188 -41.277656 L -48.527344 -15.765937 L -29.992188 41.280938 L 0 -51.02375 L -29.992188 -41.277656 " transform="matrix(1,0,0,-1,50.75,53.82)"/>
<path style=" stroke:none;fill-rule:nonzero;fill:rgb(0%,0%,0%);fill-opacity:1;" d="M 52.742188 2.796875 C 52.742188 1.695312 51.851562 0.804688 50.75 0.804688 C 49.648438 0.804688 48.757812 1.695312 48.757812 2.796875 C 48.757812 3.898438 49.648438 4.789062 50.75 4.789062 C 51.851562 4.789062 52.742188 3.898438 52.742188 2.796875 Z M 52.742188 2.796875 "/>
<path style=" stroke:none;fill-rule:nonzero;fill:rgb(0%,0%,0%);fill-opacity:1;" d="M 82.734375 12.539062 C 82.734375 11.441406 81.839844 10.546875 80.742188 10.546875 C 79.640625 10.546875 78.75 11.441406 78.75 12.539062 C 78.75 13.640625 79.640625 14.535156 80.742188 14.535156 C 81.839844 14.535156 82.734375 13.640625 82.734375 12.539062 Z M 82.734375 12.539062 "/>
<path style=" stroke:none;fill-rule:nonzero;fill:rgb(0%,0%,0%);fill-opacity:1;" d="M 101.269531 38.050781 C 101.269531 36.953125 100.378906 36.058594 99.277344 36.058594 C 98.175781 36.058594 97.285156 36.953125 97.285156 38.050781 C 97.285156 39.152344 98.175781 40.046875 99.277344 40.046875 C 100.378906 40.046875 101.269531 39.152344 101.269531 38.050781 Z M 101.269531 38.050781 "/>
<path style=" stroke:none;fill-rule:nonzero;fill:rgb(0%,0%,0%);fill-opacity:1;" d="M 101.269531 69.585938 C 101.269531 68.488281 100.378906 67.59375 99.277344 67.59375 C 98.175781 67.59375 97.285156 68.488281 97.285156 69.585938 C 97.285156 70.6875 98.175781 71.578125 99.277344 71.578125 C 100.378906 71.578125 101.269531 70.6875 101.269531 69.585938 Z M 101.269531 69.585938 "/>
<path style=" stroke:none;fill-rule:nonzero;fill:rgb(0%,0%,0%);fill-opacity:1;" d="M 82.734375 95.097656 C 82.734375 94 81.839844 93.105469 80.742188 93.105469 C 79.640625 93.105469 78.75 94 78.75 95.097656 C 78.75 96.199219 79.640625 97.089844 80.742188 97.089844 C 81.839844 97.089844 82.734375 96.199219 82.734375 95.097656 Z M 82.734375 95.097656 "/>
<path style=" stroke:none;fill-rule:nonzero;fill:rgb(0%,0%,0%);fill-opacity:1;" d="M 4.214844 69.585938 C 4.214844 68.488281 3.324219 67.59375 2.222656 67.59375 C 1.121094 67.59375 0.230469 68.488281 0.230469 69.585938 C 0.230469 70.6875 1.121094 71.578125 2.222656 71.578125 C 3.324219 71.578125 4.214844 70.6875 4.214844 69.585938 Z M 4.214844 69.585938 "/>
<path style=" stroke:none;fill-rule:nonzero;fill:rgb(0%,0%,0%);fill-opacity:1;" d="M 22.75 12.539062 C 22.75 11.441406 21.859375 10.546875 20.757812 10.546875 C 19.660156 10.546875 18.765625 11.441406 18.765625 12.539062 C 18.765625 13.640625 19.660156 14.535156 20.757812 14.535156 C 21.859375 14.535156 22.75 13.640625 22.75 12.539062 Z M 22.75 12.539062 "/>
<path style=" stroke:none;fill-rule:nonzero;fill:rgb(0%,0%,0%);fill-opacity:1;" d="M 52.742188 104.84375 C 52.742188 103.742188 51.851562 102.851562 50.75 102.851562 C 49.648438 102.851562 48.757812 103.742188 48.757812 104.84375 C 48.757812 105.945312 49.648438 106.835938 50.75 106.835938 C 51.851562 106.835938 52.742188 105.945312 52.742188 104.84375 Z M 52.742188 104.84375 "/>
<path style=" stroke:none;fill-rule:nonzero;fill:rgb(0%,0%,0%);fill-opacity:1;" d="M 22.75 95.097656 C 22.75 94 21.859375 93.105469 20.757812 93.105469 C 19.660156 93.105469 18.765625 94 18.765625 95.097656 C 18.765625 96.199219 19.660156 97.089844 20.757812 97.089844 C 21.859375 97.089844 22.75 96.199219 22.75 95.097656 Z M 22.75 95.097656 "/>
<path style=" stroke:none;fill-rule:nonzero;fill:rgb(0%,0%,0%);fill-opacity:1;" d="M 4.214844 38.050781 C 4.214844 36.953125 3.324219 36.058594 2.222656 36.058594 C 1.121094 36.058594 0.230469 36.953125 0.230469 38.050781 C 0.230469 39.152344 1.121094 40.046875 2.222656 40.046875 C 3.324219 40.046875 4.214844 39.152344 4.214844 38.050781 Z M 4.214844 38.050781 "/>
</g>
</svg>
