<?xml version="1.0" encoding="UTF-8"?>
<svg xmlns="http://www.w3.org/2000/svg" xmlns:xlink="http://www.w3.org/1999/xlink" width="118pt" height="33pt" viewBox="0 0 118 33" version="1.1">
<g id="surface1">
<path style="fill:none;stroke-width:0.79701;stroke-linecap:butt;stroke-linejoin:miter;stroke:rgb(0%,0%,0%);stroke-opacity:1;stroke-miterlimit:10;" d="M -56.693438 0.0009375 L -28.345781 0.0009375 L -42.521563 28.348594 L -56.693438 0.0009375 M -42.521563 28.348594 L 42.521406 28.348594 L 28.345625 0.0009375 L 56.693281 0.0009375 L 42.521406 28.348594 " transform="matrix(1,0,0,-1,58.92,30.54)"/>
<path style=" stroke:none;fill-rule:nonzero;fill:rgb(0%,0%,0%);fill-opacity:1;" d="M 4.21875 30.539062 C 4.21875 29.441406 3.328125 28.546875 2.226562 28.546875 C 1.125 28.546875 0.234375 29.441406 0.234375 30.539062 C 0.234375 31.640625 1.125 32.53125 2.226562 32.53125 C 3.328125 32.53125 4.21875 31.640625 4.21875 30.539062 Z M 4.21875 30.539062 "/>
<path style=" stroke:none;fill-rule:nonzero;fill:rgb(0%,0%,0%);fill-opacity:1;" d="M 32.566406 30.539062 C 32.566406 29.441406 31.671875 28.546875 30.574219 28.546875 C 29.472656 28.546875 28.582031 29.441406 28.582031 30.539062 C 28.582031 31.640625 29.472656 32.53125 30.574219 32.53125 C 31.671875 32.53125 32.566406 31.640625 32.566406 30.539062 Z M 32.566406 30.539062 "/>
<path style=" stroke:none;fill-rule:nonzero;fill:rgb(0%,0%,0%);fill-opacity:1;" d="M 18.390625 2.191406 C 18.390625 1.09375 17.5 0.199219 16.398438 0.199219 C 15.300781 0.199219 14.40625 1.09375 14.40625 2.191406 C 14.40625 3.292969 15.300781 4.1875 16.398438 4.1875 C 17.5 4.1875 18.390625 3.292969 18.390625 2.191406 Z M 18.390625 2.191406 "/>
<path style=" stroke:none;fill-rule:nonzero;fill:rgb(0%,0%,0%);fill-opacity:1;" d="M 103.433594 2.191406 C 103.433594 1.09375 102.539062 0.199219 101.441406 0.199219 C 100.339844 0.199219 99.449219 1.09375 99.449219 2.191406 C 99.449219 3.292969 100.339844 4.1875 101.441406 4.1875 C 102.539062 4.1875 103.433594 3.292969 103.433594 2.191406 Z M 103.433594 2.191406 "/>
<path style=" stroke:none;fill-rule:nonzero;fill:rgb(0%,0%,0%);fill-opacity:1;" d="M 89.257812 30.539062 C 89.257812 29.441406 88.367188 28.546875 87.265625 28.546875 C 86.167969 28.546875 85.273438 29.441406 85.273438 30.539062 C 85.273438 31.640625 86.167969 32.53125 87.265625 32.53125 C 88.367188 32.53125 89.257812 31.640625 89.257812 30.539062 Z M 89.257812 30.539062 "/>
<path style=" stroke:none;fill-rule:nonzero;fill:rgb(0%,0%,0%);fill-opacity:1;" d="M 117.605469 30.539062 C 117.605469 29.441406 116.714844 28.546875 115.613281 28.546875 C 114.511719 28.546875 113.621094 29.441406 113.621094 30.539062 C 113.621094 31.640625 114.511719 32.53125 115.613281 32.53125 C 116.714844 32.53125 117.605469 31.640625 117.605469 30.539062 Z M 117.605469 30.539062 "/>
</g>
</svg>
