<?xml version="1.0" encoding="UTF-8"?>
<svg xmlns="http://www.w3.org/2000/svg" xmlns:xlink="http://www.w3.org/1999/xlink" width="61pt" height="54pt" viewBox="0 0 61 54" version="1.1">
<g id="surface1">
<path style="fill:none;stroke-width:0.79701;stroke-linecap:butt;stroke-linejoin:miter;stroke:rgb(0%,0%,0%);stroke-opacity:1;stroke-miterlimit:10;" d="M 28.347969 0.00171875 L 14.172188 24.548594 " transform="matrix(1,0,0,-1,30.57,26.74)"/>
<path style=" stroke:none;fill-rule:nonzero;fill:rgb(0%,0%,0%);fill-opacity:1;" d="M 60.910156 26.738281 C 60.910156 25.640625 60.015625 24.746094 58.917969 24.746094 C 57.816406 24.746094 56.925781 25.640625 56.925781 26.738281 C 56.925781 27.839844 57.816406 28.734375 58.917969 28.734375 C 60.015625 28.734375 60.910156 27.839844 60.910156 26.738281 Z M 60.910156 26.738281 "/>
<path style="fill:none;stroke-width:0.79701;stroke-linecap:butt;stroke-linejoin:miter;stroke:rgb(0%,0%,0%);stroke-opacity:1;stroke-miterlimit:10;" d="M 14.172188 24.548594 L -14.171562 24.548594 " transform="matrix(1,0,0,-1,30.57,26.74)"/>
<path style=" stroke:none;fill-rule:nonzero;fill:rgb(0%,0%,0%);fill-opacity:1;" d="M 46.734375 2.191406 C 46.734375 1.089844 45.84375 0.199219 44.742188 0.199219 C 43.644531 0.199219 42.75 1.089844 42.75 2.191406 C 42.75 3.292969 43.644531 4.183594 44.742188 4.183594 C 45.84375 4.183594 46.734375 3.292969 46.734375 2.191406 Z M 46.734375 2.191406 "/>
<path style="fill:none;stroke-width:0.79701;stroke-linecap:butt;stroke-linejoin:miter;stroke:rgb(0%,0%,0%);stroke-opacity:1;stroke-miterlimit:10;" d="M -14.171562 24.548594 L -28.347344 0.00171875 " transform="matrix(1,0,0,-1,30.57,26.74)"/>
<path style=" stroke:none;fill-rule:nonzero;fill:rgb(0%,0%,0%);fill-opacity:1;" d="M 18.390625 2.191406 C 18.390625 1.089844 17.496094 0.199219 16.398438 0.199219 C 15.296875 0.199219 14.402344 1.089844 14.402344 2.191406 C 14.402344 3.292969 15.296875 4.183594 16.398438 4.183594 C 17.496094 4.183594 18.390625 3.292969 18.390625 2.191406 Z M 18.390625 2.191406 "/>
<path style="fill:none;stroke-width:0.79701;stroke-linecap:butt;stroke-linejoin:miter;stroke:rgb(0%,0%,0%);stroke-opacity:1;stroke-miterlimit:10;" d="M -28.347344 0.00171875 L -14.171562 -24.549063 " transform="matrix(1,0,0,-1,30.57,26.74)"/>
<path style=" stroke:none;fill-rule:nonzero;fill:rgb(0%,0%,0%);fill-opacity:1;" d="M 4.214844 26.738281 C 4.214844 25.640625 3.324219 24.746094 2.222656 24.746094 C 1.121094 24.746094 0.230469 25.640625 0.230469 26.738281 C 0.230469 27.839844 1.121094 28.734375 2.222656 28.734375 C 3.324219 28.734375 4.214844 27.839844 4.214844 26.738281 Z M 4.214844 26.738281 "/>
<path style="fill:none;stroke-width:0.79701;stroke-linecap:butt;stroke-linejoin:miter;stroke:rgb(0%,0%,0%);stroke-opacity:1;stroke-miterlimit:10;" d="M -14.171562 -24.549063 L 14.172188 -24.549063 " transform="matrix(1,0,0,-1,30.57,26.74)"/>
<path style=" stroke:none;fill-rule:nonzero;fill:rgb(0%,0%,0%);fill-opacity:1;" d="M 18.390625 51.289062 C 18.390625 50.1875 17.496094 49.296875 16.398438 49.296875 C 15.296875 49.296875 14.402344 50.1875 14.402344 51.289062 C 14.402344 52.390625 15.296875 53.28125 16.398438 53.28125 C 17.496094 53.28125 18.390625 52.390625 18.390625 51.289062 Z M 18.390625 51.289062 "/>
<path style="fill:none;stroke-width:0.79701;stroke-linecap:butt;stroke-linejoin:miter;stroke:rgb(0%,0%,0%);stroke-opacity:1;stroke-miterlimit:10;" d="M 14.172188 -24.549063 L 28.347969 0.00171875 " transform="matrix(1,0,0,-1,30.57,26.74)"/>
<path style=" stroke:none;fill-rule:nonzero;fill:rgb(0%,0%,0%);fill-opacity:1;" d="M 46.734375 51.289062 C 46.734375 50.1875 45.84375 49.296875 44.742188 49.296875 C 43.644531 49.296875 42.75 50.1875 42.75 51.289062 C 42.75 52.390625 43.644531 53.28125 44.742188 53.28125 C 45.84375 53.28125 46.734375 52.390625 46.734375 51.289062 Z M 46.734375 51.289062 "/>
<path style="fill:none;stroke-width:0.79701;stroke-linecap:butt;stroke-linejoin:miter;stroke:rgb(0%,0%,0%);stroke-opacity:1;stroke-miterlimit:10;" d="M 28.347969 0.00171875 L -28.347344 0.00171875 " transform="matrix(1,0,0,-1,30.57,26.74)"/>
</g>
</svg>
