<?xml version="1.0" encoding="UTF-8"?>
<svg xmlns="http://www.w3.org/2000/svg" xmlns:xlink="http://www.w3.org/1999/xlink" width="103pt" height="119pt" viewBox="0 0 103 119" version="1.1">
<g id="surface1">
<path style="fill:none;stroke-width:0.3985;stroke-linecap:butt;stroke-linejoin:miter;stroke:rgb(0%,0%,0%);stroke-opacity:1;stroke-miterlimit:10;" d="M 0.0003125 56.693125 L 49.097969 28.345469 " transform="matrix(1,0,0,-1,51.32,59.49)"/>
<path style=" stroke:none;fill-rule:nonzero;fill:rgb(0%,0%,0%);fill-opacity:1;" d="M 53.3125 2.796875 C 53.3125 1.695312 52.421875 0.804688 51.320312 0.804688 C 50.21875 0.804688 49.328125 1.695312 49.328125 2.796875 C 49.328125 3.898438 50.21875 4.789062 51.320312 4.789062 C 52.421875 4.789062 53.3125 3.898438 53.3125 2.796875 Z M 53.3125 2.796875 "/>
<path style="fill:none;stroke-width:0.3985;stroke-linecap:butt;stroke-linejoin:miter;stroke:rgb(0%,0%,0%);stroke-opacity:1;stroke-miterlimit:10;" d="M 49.097969 28.345469 L 49.097969 -28.345937 " transform="matrix(1,0,0,-1,51.32,59.49)"/>
<path style=" stroke:none;fill-rule:nonzero;fill:rgb(0%,0%,0%);fill-opacity:1;" d="M 102.410156 31.144531 C 102.410156 30.042969 101.519531 29.152344 100.417969 29.152344 C 99.316406 29.152344 98.425781 30.042969 98.425781 31.144531 C 98.425781 32.242188 99.316406 33.136719 100.417969 33.136719 C 101.519531 33.136719 102.410156 32.242188 102.410156 31.144531 Z M 102.410156 31.144531 "/>
<path style="fill:none;stroke-width:0.3985;stroke-linecap:butt;stroke-linejoin:miter;stroke:rgb(0%,0%,0%);stroke-opacity:1;stroke-miterlimit:10;" d="M 49.097969 -28.345937 L 0.0003125 -56.693594 " transform="matrix(1,0,0,-1,51.32,59.49)"/>
<path style=" stroke:none;fill-rule:nonzero;fill:rgb(0%,0%,0%);fill-opacity:1;" d="M 102.410156 87.835938 C 102.410156 86.738281 101.519531 85.84375 100.417969 85.84375 C 99.316406 85.84375 98.425781 86.738281 98.425781 87.835938 C 98.425781 88.9375 99.316406 89.828125 100.417969 89.828125 C 101.519531 89.828125 102.410156 88.9375 102.410156 87.835938 Z M 102.410156 87.835938 "/>
<path style="fill:none;stroke-width:0.3985;stroke-linecap:butt;stroke-linejoin:miter;stroke:rgb(0%,0%,0%);stroke-opacity:1;stroke-miterlimit:10;" d="M 0.0003125 -56.693594 L -49.097344 -28.345937 " transform="matrix(1,0,0,-1,51.32,59.49)"/>
<path style=" stroke:none;fill-rule:nonzero;fill:rgb(0%,0%,0%);fill-opacity:1;" d="M 53.3125 116.183594 C 53.3125 115.082031 52.421875 114.191406 51.320312 114.191406 C 50.21875 114.191406 49.328125 115.082031 49.328125 116.183594 C 49.328125 117.285156 50.21875 118.175781 51.320312 118.175781 C 52.421875 118.175781 53.3125 117.285156 53.3125 116.183594 Z M 53.3125 116.183594 "/>
<path style="fill:none;stroke-width:0.3985;stroke-linecap:butt;stroke-linejoin:miter;stroke:rgb(0%,0%,0%);stroke-opacity:1;stroke-miterlimit:10;" d="M -49.097344 -28.345937 L -49.097344 28.345469 " transform="matrix(1,0,0,-1,51.32,59.49)"/>
<path style=" stroke:none;fill-rule:nonzero;fill:rgb(0%,0%,0%);fill-opacity:1;" d="M 4.214844 87.835938 C 4.214844 86.738281 3.320312 85.84375 2.222656 85.84375 C 1.121094 85.84375 0.230469 86.738281 0.230469 87.835938 C 0.230469 88.9375 1.121094 89.828125 2.222656 89.828125 C 3.320312 89.828125 4.214844 88.9375 4.214844 87.835938 Z M 4.214844 87.835938 "/>
<path style="fill:none;stroke-width:0.3985;stroke-linecap:butt;stroke-linejoin:miter;stroke:rgb(0%,0%,0%);stroke-opacity:1;stroke-miterlimit:10;" d="M -49.097344 28.345469 L 0.0003125 56.693125 " transform="matrix(1,0,0,-1,51.32,59.49)"/>
<path style=" stroke:none;fill-rule:nonzero;fill:rgb(0%,0%,0%);fill-opacity:1;" d="M 4.214844 31.144531 C 4.214844 30.042969 3.320312 29.152344 2.222656 29.152344 C 1.121094 29.152344 0.230469 30.042969 0.230469 31.144531 C 0.230469 32.242188 1.121094 33.136719 2.222656 33.136719 C 3.320312 33.136719 4.214844 32.242188 4.214844 31.144531 Z M 4.214844 31.144531 "/>
<path style="fill:none;stroke-width:0.3985;stroke-linecap:butt;stroke-linejoin:miter;stroke:rgb(0%,0%,0%);stroke-opacity:1;stroke-miterlimit:10;" d="M 0.0003125 56.693125 L -28.347344 0.00171875 L 14.172188 -24.549062 L 14.172188 24.548594 L -28.347344 0.00171875 L 0.0003125 -56.693594 " transform="matrix(1,0,0,-1,51.32,59.49)"/>
<path style=" stroke:none;fill-rule:nonzero;fill:rgb(0%,0%,0%);fill-opacity:1;" d="M 24.964844 59.488281 C 24.964844 58.390625 24.074219 57.496094 22.972656 57.496094 C 21.871094 57.496094 20.980469 58.390625 20.980469 59.488281 C 20.980469 60.589844 21.871094 61.484375 22.972656 61.484375 C 24.074219 61.484375 24.964844 60.589844 24.964844 59.488281 Z M 24.964844 59.488281 "/>
<path style=" stroke:none;fill-rule:nonzero;fill:rgb(0%,0%,0%);fill-opacity:1;" d="M 67.484375 84.039062 C 67.484375 82.9375 66.59375 82.046875 65.492188 82.046875 C 64.394531 82.046875 63.5 82.9375 63.5 84.039062 C 63.5 85.140625 64.394531 86.03125 65.492188 86.03125 C 66.59375 86.03125 67.484375 85.140625 67.484375 84.039062 Z M 67.484375 84.039062 "/>
<path style=" stroke:none;fill-rule:nonzero;fill:rgb(0%,0%,0%);fill-opacity:1;" d="M 67.484375 34.941406 C 67.484375 33.839844 66.59375 32.949219 65.492188 32.949219 C 64.394531 32.949219 63.5 33.839844 63.5 34.941406 C 63.5 36.042969 64.394531 36.933594 65.492188 36.933594 C 66.59375 36.933594 67.484375 36.042969 67.484375 34.941406 Z M 67.484375 34.941406 "/>
<path style="fill:none;stroke-width:0.3985;stroke-linecap:butt;stroke-linejoin:miter;stroke:rgb(0%,0%,0%);stroke-opacity:1;stroke-miterlimit:10;" d="M 49.097969 28.345469 L 14.172188 -24.549062 L -49.097344 -28.345937 M 49.097969 -28.345937 L 14.172188 24.548594 L -49.097344 28.345469 " transform="matrix(1,0,0,-1,51.32,59.49)"/>
</g>
</svg>
