<?xml version="1.0" encoding="UTF-8"?>
<svg xmlns="http://www.w3.org/2000/svg" xmlns:xlink="http://www.w3.org/1999/xlink" width="79pt" height="79pt" viewBox="0 0 79 79" version="1.1">
<g id="surface1">
<path style="fill:none;stroke-width:0.3985;stroke-linecap:butt;stroke-linejoin:miter;stroke:rgb(75%,75%,75%);stroke-opacity:1;stroke-miterlimit:10;" d="M -0.000875 0.00175 L 74.409281 0.00175 M -0.000875 21.259563 L 74.409281 21.259563 M -0.000875 42.521281 L 74.409281 42.521281 M -0.000875 63.779094 L 74.409281 63.779094 M -0.000875 0.00175 L -0.000875 74.411906 M 21.260844 0.00175 L 21.260844 74.411906 M 42.518656 0.00175 L 42.518656 74.411906 M 63.780375 0.00175 L 63.780375 74.411906 " transform="matrix(1,0,0,-1,4.204,75.408)"/>
<path style="fill:none;stroke-width:0.79701;stroke-linecap:butt;stroke-linejoin:miter;stroke:rgb(0%,0%,0%);stroke-opacity:1;stroke-miterlimit:10;" d="M -0.000875 0.00175 L -0.000875 73.615031 " transform="matrix(1,0,0,-1,4.204,75.408)"/>
<path style="fill:none;stroke-width:0.79701;stroke-linecap:round;stroke-linejoin:round;stroke:rgb(0%,0%,0%);stroke-opacity:1;stroke-miterlimit:10;" d="M -2.549173 3.11025 C -2.084329 1.243063 -1.045266 0.364156 0.00160875 0.000875 C -1.045266 -0.362406 -2.084329 -1.245219 -2.549173 -3.112406 " transform="matrix(0,-1,-1,0,4.204,1.39614)"/>
<path style="fill:none;stroke-width:0.79701;stroke-linecap:butt;stroke-linejoin:miter;stroke:rgb(0%,0%,0%);stroke-opacity:1;stroke-miterlimit:10;" d="M -0.000875 0.00175 L 73.612406 0.00175 " transform="matrix(1,0,0,-1,4.204,75.408)"/>
<path style="fill:none;stroke-width:0.79701;stroke-linecap:round;stroke-linejoin:round;stroke:rgb(0%,0%,0%);stroke-opacity:1;stroke-miterlimit:10;" d="M -2.551798 3.111125 C -2.083048 1.243938 -1.047891 0.361125 -0.00101625 0.00175 C -1.047891 -0.361531 -2.083048 -1.244344 -2.551798 -3.111531 " transform="matrix(1,0,0,-1,78.21586,75.408)"/>
<path style=" stroke:none;fill-rule:nonzero;fill:rgb(0%,0%,0%);fill-opacity:1;" d="M 27.707031 32.886719 C 27.707031 31.648438 26.703125 30.644531 25.464844 30.644531 C 24.226562 30.644531 23.222656 31.648438 23.222656 32.886719 C 23.222656 34.125 24.226562 35.128906 25.464844 35.128906 C 26.703125 35.128906 27.707031 34.125 27.707031 32.886719 Z M 48.964844 54.148438 C 48.964844 52.910156 47.960938 51.90625 46.722656 51.90625 C 45.484375 51.90625 44.484375 52.910156 44.484375 54.148438 C 44.484375 55.386719 45.484375 56.390625 46.722656 56.390625 C 47.960938 56.390625 48.964844 55.386719 48.964844 54.148438 Z M 70.226562 11.628906 C 70.226562 10.390625 69.222656 9.386719 67.984375 9.386719 C 66.746094 9.386719 65.742188 10.390625 65.742188 11.628906 C 65.742188 12.867188 66.746094 13.871094 67.984375 13.871094 C 69.222656 13.871094 70.226562 12.867188 70.226562 11.628906 Z M 70.226562 11.628906 "/>
</g>
</svg>
