<?xml version="1.0" encoding="UTF-8"?>
<svg xmlns="http://www.w3.org/2000/svg" xmlns:xlink="http://www.w3.org/1999/xlink" width="102pt" height="108pt" viewBox="0 0 102 108" version="1.1">
<g id="surface1">
<path style="fill:none;stroke-width:0.3985;stroke-linecap:butt;stroke-linejoin:miter;stroke:rgb(0%,0%,0%);stroke-opacity:1;stroke-miterlimit:10;" d="M 0.00103125 51.022062 L 0.00103125 -51.024813 L 48.528375 -15.767 L -48.526313 15.768156 L -48.526313 -15.767 M -29.991156 -41.278719 L -29.991156 41.279875 L 29.989312 41.279875 L 0.00103125 -51.024813 M 29.989312 41.279875 L -29.991156 -41.278719 L 0.00103125 51.022062 L -29.991156 41.279875 " transform="matrix(1,0,0,-1,51.206,53.983)"/>
<path style="fill:none;stroke-width:0.3985;stroke-linecap:butt;stroke-linejoin:miter;stroke:rgb(0%,0%,0%);stroke-opacity:1;stroke-miterlimit:10;" d="M 0.00103125 51.022062 L 29.989312 41.279875 L 0.00103125 -51.024813 L -29.991156 -41.278719 L -29.991156 41.279875 L 0.00103125 51.022062 L 0.00103125 -51.024813 L -29.991156 41.279875 L 29.989312 41.279875 L -29.991156 -41.278719 L 0.00103125 51.022062 " transform="matrix(1,0,0,-1,51.206,53.983)"/>
<path style="fill:none;stroke-width:0.3985;stroke-linecap:butt;stroke-linejoin:miter;stroke:rgb(0%,0%,0%);stroke-opacity:1;stroke-miterlimit:10;" d="M 0.00103125 51.022062 L 29.989312 41.279875 L 48.528375 15.768156 L 48.528375 -15.767 L 29.989312 -41.278719 L -48.526313 -15.767 L -29.991156 41.279875 L 0.00103125 -51.024813 L -29.991156 -41.278719 " transform="matrix(1,0,0,-1,51.206,53.983)"/>
<path style=" stroke:none;fill-rule:nonzero;fill:rgb(0%,0%,0%);fill-opacity:1;" d="M 53.199219 2.960938 C 53.199219 1.859375 52.304688 0.964844 51.207031 0.964844 C 50.105469 0.964844 49.214844 1.859375 49.214844 2.960938 C 49.214844 4.058594 50.105469 4.953125 51.207031 4.953125 C 52.304688 4.953125 53.199219 4.058594 53.199219 2.960938 Z M 53.199219 2.960938 "/>
<path style=" stroke:none;fill-rule:nonzero;fill:rgb(0%,0%,0%);fill-opacity:1;" d="M 83.1875 12.703125 C 83.1875 11.601562 82.296875 10.710938 81.195312 10.710938 C 80.097656 10.710938 79.203125 11.601562 79.203125 12.703125 C 79.203125 13.804688 80.097656 14.695312 81.195312 14.695312 C 82.296875 14.695312 83.1875 13.804688 83.1875 12.703125 Z M 83.1875 12.703125 "/>
<path style=" stroke:none;fill-rule:nonzero;fill:rgb(0%,0%,0%);fill-opacity:1;" d="M 101.726562 38.214844 C 101.726562 37.113281 100.832031 36.222656 99.734375 36.222656 C 98.632812 36.222656 97.742188 37.113281 97.742188 38.214844 C 97.742188 39.316406 98.632812 40.207031 99.734375 40.207031 C 100.832031 40.207031 101.726562 39.316406 101.726562 38.214844 Z M 101.726562 38.214844 "/>
<path style=" stroke:none;fill-rule:nonzero;fill:rgb(0%,0%,0%);fill-opacity:1;" d="M 101.726562 69.75 C 101.726562 68.648438 100.832031 67.757812 99.734375 67.757812 C 98.632812 67.757812 97.742188 68.648438 97.742188 69.75 C 97.742188 70.851562 98.632812 71.742188 99.734375 71.742188 C 100.832031 71.742188 101.726562 70.851562 101.726562 69.75 Z M 101.726562 69.75 "/>
<path style=" stroke:none;fill-rule:nonzero;fill:rgb(0%,0%,0%);fill-opacity:1;" d="M 83.1875 95.261719 C 83.1875 94.160156 82.296875 93.269531 81.195312 93.269531 C 80.097656 93.269531 79.203125 94.160156 79.203125 95.261719 C 79.203125 96.363281 80.097656 97.253906 81.195312 97.253906 C 82.296875 97.253906 83.1875 96.363281 83.1875 95.261719 Z M 83.1875 95.261719 "/>
<path style=" stroke:none;fill-rule:nonzero;fill:rgb(0%,0%,0%);fill-opacity:1;" d="M 4.671875 69.75 C 4.671875 68.648438 3.78125 67.757812 2.679688 67.757812 C 1.578125 67.757812 0.6875 68.648438 0.6875 69.75 C 0.6875 70.851562 1.578125 71.742188 2.679688 71.742188 C 3.78125 71.742188 4.671875 70.851562 4.671875 69.75 Z M 4.671875 69.75 "/>
<path style=" stroke:none;fill-rule:nonzero;fill:rgb(0%,0%,0%);fill-opacity:1;" d="M 23.207031 12.703125 C 23.207031 11.601562 22.316406 10.710938 21.214844 10.710938 C 20.113281 10.710938 19.222656 11.601562 19.222656 12.703125 C 19.222656 13.804688 20.113281 14.695312 21.214844 14.695312 C 22.316406 14.695312 23.207031 13.804688 23.207031 12.703125 Z M 23.207031 12.703125 "/>
<path style=" stroke:none;fill-rule:nonzero;fill:rgb(0%,0%,0%);fill-opacity:1;" d="M 53.199219 105.007812 C 53.199219 103.90625 52.304688 103.015625 51.207031 103.015625 C 50.105469 103.015625 49.214844 103.90625 49.214844 105.007812 C 49.214844 106.105469 50.105469 107 51.207031 107 C 52.304688 107 53.199219 106.105469 53.199219 105.007812 Z M 53.199219 105.007812 "/>
<path style=" stroke:none;fill-rule:nonzero;fill:rgb(0%,0%,0%);fill-opacity:1;" d="M 23.207031 95.261719 C 23.207031 94.160156 22.316406 93.269531 21.214844 93.269531 C 20.113281 93.269531 19.222656 94.160156 19.222656 95.261719 C 19.222656 96.363281 20.113281 97.253906 21.214844 97.253906 C 22.316406 97.253906 23.207031 96.363281 23.207031 95.261719 Z M 23.207031 95.261719 "/>
<path style=" stroke:none;fill-rule:nonzero;fill:rgb(0%,0%,0%);fill-opacity:1;" d="M 4.671875 38.214844 C 4.671875 37.113281 3.78125 36.222656 2.679688 36.222656 C 1.578125 36.222656 0.6875 37.113281 0.6875 38.214844 C 0.6875 39.316406 1.578125 40.207031 2.679688 40.207031 C 3.78125 40.207031 4.671875 39.316406 4.671875 38.214844 Z M 4.671875 38.214844 "/>
</g>
</svg>
