<?xml version="1.0" encoding="UTF-8"?>
<svg xmlns="http://www.w3.org/2000/svg" xmlns:xlink="http://www.w3.org/1999/xlink" width="61pt" height="34pt" viewBox="0 0 61 34" version="1.1">
<g id="surface1">
<path style="fill:none;stroke-width:0.3985;stroke-linecap:butt;stroke-linejoin:miter;stroke:rgb(0%,0%,0%);stroke-opacity:1;stroke-miterlimit:10;" d="M -0.00125 -0.000625 L 28.346406 28.347031 L 56.694062 -0.000625 L 56.694062 28.347031 L -0.00125 -0.000625 L -0.00125 28.347031 L 28.346406 -0.000625 " transform="matrix(1,0,0,-1,2.22,31.14)"/>
<path style=" stroke:none;fill-rule:nonzero;fill:rgb(0%,0%,0%);fill-opacity:1;" d="M 4.210938 31.140625 C 4.210938 30.039062 3.320312 29.148438 2.21875 29.148438 C 1.121094 29.148438 0.226562 30.039062 0.226562 31.140625 C 0.226562 32.242188 1.121094 33.132812 2.21875 33.132812 C 3.320312 33.132812 4.210938 32.242188 4.210938 31.140625 Z M 4.210938 31.140625 "/>
<path style=" stroke:none;fill-rule:nonzero;fill:rgb(0%,0%,0%);fill-opacity:1;" d="M 32.558594 2.792969 C 32.558594 1.691406 31.667969 0.800781 30.566406 0.800781 C 29.464844 0.800781 28.574219 1.691406 28.574219 2.792969 C 28.574219 3.894531 29.464844 4.785156 30.566406 4.785156 C 31.667969 4.785156 32.558594 3.894531 32.558594 2.792969 Z M 32.558594 2.792969 "/>
<path style=" stroke:none;fill-rule:nonzero;fill:rgb(0%,0%,0%);fill-opacity:1;" d="M 60.90625 31.140625 C 60.90625 30.039062 60.015625 29.148438 58.914062 29.148438 C 57.8125 29.148438 56.921875 30.039062 56.921875 31.140625 C 56.921875 32.242188 57.8125 33.132812 58.914062 33.132812 C 60.015625 33.132812 60.90625 32.242188 60.90625 31.140625 Z M 60.90625 31.140625 "/>
<path style=" stroke:none;fill-rule:nonzero;fill:rgb(0%,0%,0%);fill-opacity:1;" d="M 60.90625 2.792969 C 60.90625 1.691406 60.015625 0.800781 58.914062 0.800781 C 57.8125 0.800781 56.921875 1.691406 56.921875 2.792969 C 56.921875 3.894531 57.8125 4.785156 58.914062 4.785156 C 60.015625 4.785156 60.90625 3.894531 60.90625 2.792969 Z M 60.90625 2.792969 "/>
<path style=" stroke:none;fill-rule:nonzero;fill:rgb(0%,0%,0%);fill-opacity:1;" d="M 4.210938 31.140625 C 4.210938 30.039062 3.320312 29.148438 2.21875 29.148438 C 1.121094 29.148438 0.226562 30.039062 0.226562 31.140625 C 0.226562 32.242188 1.121094 33.132812 2.21875 33.132812 C 3.320312 33.132812 4.210938 32.242188 4.210938 31.140625 Z M 4.210938 31.140625 "/>
<path style=" stroke:none;fill-rule:nonzero;fill:rgb(0%,0%,0%);fill-opacity:1;" d="M 4.210938 2.792969 C 4.210938 1.691406 3.320312 0.800781 2.21875 0.800781 C 1.121094 0.800781 0.226562 1.691406 0.226562 2.792969 C 0.226562 3.894531 1.121094 4.785156 2.21875 4.785156 C 3.320312 4.785156 4.210938 3.894531 4.210938 2.792969 Z M 4.210938 2.792969 "/>
<path style=" stroke:none;fill-rule:nonzero;fill:rgb(0%,0%,0%);fill-opacity:1;" d="M 32.558594 31.140625 C 32.558594 30.039062 31.667969 29.148438 30.566406 29.148438 C 29.464844 29.148438 28.574219 30.039062 28.574219 31.140625 C 28.574219 32.242188 29.464844 33.132812 30.566406 33.132812 C 31.667969 33.132812 32.558594 32.242188 32.558594 31.140625 Z M 32.558594 31.140625 "/>
</g>
</svg>
