<?xml version="1.0" encoding="UTF-8"?>
<svg xmlns="http://www.w3.org/2000/svg" xmlns:xlink="http://www.w3.org/1999/xlink" width="144pt" height="116pt" viewBox="0 0 144 116" version="1.1">
<g id="surface1">
<path style="fill:none;stroke-width:0.3985;stroke-linecap:butt;stroke-linejoin:miter;stroke:rgb(0%,0%,0%);stroke-opacity:1;stroke-miterlimit:10;" d="M 0.000625 0.00140625 L 0.000625 113.388125 M 0.000625 0.00140625 L 141.735 0.00140625 " transform="matrix(1,0,0,-1,1.89,114.185)"/>
<path style="fill:none;stroke-width:0.3985;stroke-linecap:butt;stroke-linejoin:miter;stroke:rgb(0%,0%,0%);stroke-opacity:1;stroke-miterlimit:10;" d="M 28.348281 0.00140625 L 0.000625 28.345156 " transform="matrix(1,0,0,-1,1.89,114.185)"/>
<path style="fill-rule:nonzero;fill:rgb(0%,0%,0%);fill-opacity:1;stroke-width:0.3985;stroke-linecap:butt;stroke-linejoin:miter;stroke:rgb(0%,0%,0%);stroke-opacity:1;stroke-miterlimit:10;" d="M 29.344375 0.00140625 C 29.344375 0.548281 28.895156 0.9975 28.348281 0.9975 C 27.7975 0.9975 27.352187 0.548281 27.352187 0.00140625 C 27.352187 -0.549375 27.7975 -0.994688 28.348281 -0.994688 C 28.895156 -0.994688 29.344375 -0.549375 29.344375 0.00140625 Z M 29.344375 0.00140625 " transform="matrix(1,0,0,-1,1.89,114.185)"/>
<path style="fill-rule:nonzero;fill:rgb(0%,0%,0%);fill-opacity:1;stroke-width:0.3985;stroke-linecap:butt;stroke-linejoin:miter;stroke:rgb(0%,0%,0%);stroke-opacity:1;stroke-miterlimit:10;" d="M 0.996719 28.345156 C 0.996719 28.895937 0.551406 29.34125 0.000625 29.34125 C -0.550156 29.34125 -0.995469 28.895937 -0.995469 28.345156 C -0.995469 27.798281 -0.550156 27.349062 0.000625 27.349062 C 0.551406 27.349062 0.996719 27.798281 0.996719 28.345156 Z M 0.996719 28.345156 " transform="matrix(1,0,0,-1,1.89,114.185)"/>
<path style="fill:none;stroke-width:0.3985;stroke-linecap:butt;stroke-linejoin:miter;stroke:rgb(0%,0%,0%);stroke-opacity:1;stroke-miterlimit:10;" d="M 28.348281 0.00140625 L 0.000625 56.692812 " transform="matrix(1,0,0,-1,1.89,114.185)"/>
<path style="fill-rule:nonzero;fill:rgb(0%,0%,0%);fill-opacity:1;stroke-width:0.3985;stroke-linecap:butt;stroke-linejoin:miter;stroke:rgb(0%,0%,0%);stroke-opacity:1;stroke-miterlimit:10;" d="M 29.344375 0.00140625 C 29.344375 0.548281 28.895156 0.9975 28.348281 0.9975 C 27.7975 0.9975 27.352187 0.548281 27.352187 0.00140625 C 27.352187 -0.549375 27.7975 -0.994688 28.348281 -0.994688 C 28.895156 -0.994688 29.344375 -0.549375 29.344375 0.00140625 Z M 29.344375 0.00140625 " transform="matrix(1,0,0,-1,1.89,114.185)"/>
<path style="fill-rule:nonzero;fill:rgb(0%,0%,0%);fill-opacity:1;stroke-width:0.3985;stroke-linecap:butt;stroke-linejoin:miter;stroke:rgb(0%,0%,0%);stroke-opacity:1;stroke-miterlimit:10;" d="M 0.996719 56.692812 C 0.996719 57.243594 0.551406 57.688906 0.000625 57.688906 C -0.550156 57.688906 -0.995469 57.243594 -0.995469 56.692812 C -0.995469 56.142031 -0.550156 55.696719 0.000625 55.696719 C 0.551406 55.696719 0.996719 56.142031 0.996719 56.692812 Z M 0.996719 56.692812 " transform="matrix(1,0,0,-1,1.89,114.185)"/>
<path style="fill:none;stroke-width:0.3985;stroke-linecap:butt;stroke-linejoin:miter;stroke:rgb(0%,0%,0%);stroke-opacity:1;stroke-miterlimit:10;" d="M 28.348281 0.00140625 L 0.000625 85.040469 " transform="matrix(1,0,0,-1,1.89,114.185)"/>
<path style="fill-rule:nonzero;fill:rgb(0%,0%,0%);fill-opacity:1;stroke-width:0.3985;stroke-linecap:butt;stroke-linejoin:miter;stroke:rgb(0%,0%,0%);stroke-opacity:1;stroke-miterlimit:10;" d="M 29.344375 0.00140625 C 29.344375 0.548281 28.895156 0.9975 28.348281 0.9975 C 27.7975 0.9975 27.352187 0.548281 27.352187 0.00140625 C 27.352187 -0.549375 27.7975 -0.994688 28.348281 -0.994688 C 28.895156 -0.994688 29.344375 -0.549375 29.344375 0.00140625 Z M 29.344375 0.00140625 " transform="matrix(1,0,0,-1,1.89,114.185)"/>
<path style="fill-rule:nonzero;fill:rgb(0%,0%,0%);fill-opacity:1;stroke-width:0.3985;stroke-linecap:butt;stroke-linejoin:miter;stroke:rgb(0%,0%,0%);stroke-opacity:1;stroke-miterlimit:10;" d="M 0.996719 85.040469 C 0.996719 85.59125 0.551406 86.036562 0.000625 86.036562 C -0.550156 86.036562 -0.995469 85.59125 -0.995469 85.040469 C -0.995469 84.489687 -0.550156 84.044375 0.000625 84.044375 C 0.551406 84.044375 0.996719 84.489687 0.996719 85.040469 Z M 0.996719 85.040469 " transform="matrix(1,0,0,-1,1.89,114.185)"/>
<path style="fill:none;stroke-width:0.3985;stroke-linecap:butt;stroke-linejoin:miter;stroke:rgb(0%,0%,0%);stroke-opacity:1;stroke-miterlimit:10;" d="M 56.692031 0.00140625 L 0.000625 28.345156 " transform="matrix(1,0,0,-1,1.89,114.185)"/>
<path style="fill-rule:nonzero;fill:rgb(0%,0%,0%);fill-opacity:1;stroke-width:0.3985;stroke-linecap:butt;stroke-linejoin:miter;stroke:rgb(0%,0%,0%);stroke-opacity:1;stroke-miterlimit:10;" d="M 57.688125 0.00140625 C 57.688125 0.548281 57.242812 0.9975 56.692031 0.9975 C 56.145156 0.9975 55.695937 0.548281 55.695937 0.00140625 C 55.695937 -0.549375 56.145156 -0.994688 56.692031 -0.994688 C 57.242812 -0.994688 57.688125 -0.549375 57.688125 0.00140625 Z M 57.688125 0.00140625 " transform="matrix(1,0,0,-1,1.89,114.185)"/>
<path style="fill-rule:nonzero;fill:rgb(0%,0%,0%);fill-opacity:1;stroke-width:0.3985;stroke-linecap:butt;stroke-linejoin:miter;stroke:rgb(0%,0%,0%);stroke-opacity:1;stroke-miterlimit:10;" d="M 0.996719 28.345156 C 0.996719 28.895937 0.551406 29.34125 0.000625 29.34125 C -0.550156 29.34125 -0.995469 28.895937 -0.995469 28.345156 C -0.995469 27.798281 -0.550156 27.349062 0.000625 27.349062 C 0.551406 27.349062 0.996719 27.798281 0.996719 28.345156 Z M 0.996719 28.345156 " transform="matrix(1,0,0,-1,1.89,114.185)"/>
<path style="fill:none;stroke-width:0.3985;stroke-linecap:butt;stroke-linejoin:miter;stroke:rgb(0%,0%,0%);stroke-opacity:1;stroke-miterlimit:10;" d="M 56.692031 0.00140625 L 0.000625 56.692812 " transform="matrix(1,0,0,-1,1.89,114.185)"/>
<path style="fill-rule:nonzero;fill:rgb(0%,0%,0%);fill-opacity:1;stroke-width:0.3985;stroke-linecap:butt;stroke-linejoin:miter;stroke:rgb(0%,0%,0%);stroke-opacity:1;stroke-miterlimit:10;" d="M 57.688125 0.00140625 C 57.688125 0.548281 57.242812 0.9975 56.692031 0.9975 C 56.145156 0.9975 55.695937 0.548281 55.695937 0.00140625 C 55.695937 -0.549375 56.145156 -0.994688 56.692031 -0.994688 C 57.242812 -0.994688 57.688125 -0.549375 57.688125 0.00140625 Z M 57.688125 0.00140625 " transform="matrix(1,0,0,-1,1.89,114.185)"/>
<path style="fill-rule:nonzero;fill:rgb(0%,0%,0%);fill-opacity:1;stroke-width:0.3985;stroke-linecap:butt;stroke-linejoin:miter;stroke:rgb(0%,0%,0%);stroke-opacity:1;stroke-miterlimit:10;" d="M 0.996719 56.692812 C 0.996719 57.243594 0.551406 57.688906 0.000625 57.688906 C -0.550156 57.688906 -0.995469 57.243594 -0.995469 56.692812 C -0.995469 56.142031 -0.550156 55.696719 0.000625 55.696719 C 0.551406 55.696719 0.996719 56.142031 0.996719 56.692812 Z M 0.996719 56.692812 " transform="matrix(1,0,0,-1,1.89,114.185)"/>
<path style="fill:none;stroke-width:0.3985;stroke-linecap:butt;stroke-linejoin:miter;stroke:rgb(0%,0%,0%);stroke-opacity:1;stroke-miterlimit:10;" d="M 56.692031 0.00140625 L 0.000625 85.040469 " transform="matrix(1,0,0,-1,1.89,114.185)"/>
<path style="fill-rule:nonzero;fill:rgb(0%,0%,0%);fill-opacity:1;stroke-width:0.3985;stroke-linecap:butt;stroke-linejoin:miter;stroke:rgb(0%,0%,0%);stroke-opacity:1;stroke-miterlimit:10;" d="M 57.688125 0.00140625 C 57.688125 0.548281 57.242812 0.9975 56.692031 0.9975 C 56.145156 0.9975 55.695937 0.548281 55.695937 0.00140625 C 55.695937 -0.549375 56.145156 -0.994688 56.692031 -0.994688 C 57.242812 -0.994688 57.688125 -0.549375 57.688125 0.00140625 Z M 57.688125 0.00140625 " transform="matrix(1,0,0,-1,1.89,114.185)"/>
<path style="fill-rule:nonzero;fill:rgb(0%,0%,0%);fill-opacity:1;stroke-width:0.3985;stroke-linecap:butt;stroke-linejoin:miter;stroke:rgb(0%,0%,0%);stroke-opacity:1;stroke-miterlimit:10;" d="M 0.996719 85.040469 C 0.996719 85.59125 0.551406 86.036562 0.000625 86.036562 C -0.550156 86.036562 -0.995469 85.59125 -0.995469 85.040469 C -0.995469 84.489687 -0.550156 84.044375 0.000625 84.044375 C 0.551406 84.044375 0.996719 84.489687 0.996719 85.040469 Z M 0.996719 85.040469 " transform="matrix(1,0,0,-1,1.89,114.185)"/>
<path style="fill:none;stroke-width:0.3985;stroke-linecap:butt;stroke-linejoin:miter;stroke:rgb(0%,0%,0%);stroke-opacity:1;stroke-miterlimit:10;" d="M 85.039687 0.00140625 L 0.000625 28.345156 " transform="matrix(1,0,0,-1,1.89,114.185)"/>
<path style="fill-rule:nonzero;fill:rgb(0%,0%,0%);fill-opacity:1;stroke-width:0.3985;stroke-linecap:butt;stroke-linejoin:miter;stroke:rgb(0%,0%,0%);stroke-opacity:1;stroke-miterlimit:10;" d="M 86.035781 0.00140625 C 86.035781 0.548281 85.590469 0.9975 85.039687 0.9975 C 84.488906 0.9975 84.043594 0.548281 84.043594 0.00140625 C 84.043594 -0.549375 84.488906 -0.994688 85.039687 -0.994688 C 85.590469 -0.994688 86.035781 -0.549375 86.035781 0.00140625 Z M 86.035781 0.00140625 " transform="matrix(1,0,0,-1,1.89,114.185)"/>
<path style="fill-rule:nonzero;fill:rgb(0%,0%,0%);fill-opacity:1;stroke-width:0.3985;stroke-linecap:butt;stroke-linejoin:miter;stroke:rgb(0%,0%,0%);stroke-opacity:1;stroke-miterlimit:10;" d="M 0.996719 28.345156 C 0.996719 28.895937 0.551406 29.34125 0.000625 29.34125 C -0.550156 29.34125 -0.995469 28.895937 -0.995469 28.345156 C -0.995469 27.798281 -0.550156 27.349062 0.000625 27.349062 C 0.551406 27.349062 0.996719 27.798281 0.996719 28.345156 Z M 0.996719 28.345156 " transform="matrix(1,0,0,-1,1.89,114.185)"/>
<path style="fill:none;stroke-width:0.3985;stroke-linecap:butt;stroke-linejoin:miter;stroke:rgb(0%,0%,0%);stroke-opacity:1;stroke-miterlimit:10;" d="M 85.039687 0.00140625 L 0.000625 56.692812 " transform="matrix(1,0,0,-1,1.89,114.185)"/>
<path style="fill-rule:nonzero;fill:rgb(0%,0%,0%);fill-opacity:1;stroke-width:0.3985;stroke-linecap:butt;stroke-linejoin:miter;stroke:rgb(0%,0%,0%);stroke-opacity:1;stroke-miterlimit:10;" d="M 86.035781 0.00140625 C 86.035781 0.548281 85.590469 0.9975 85.039687 0.9975 C 84.488906 0.9975 84.043594 0.548281 84.043594 0.00140625 C 84.043594 -0.549375 84.488906 -0.994688 85.039687 -0.994688 C 85.590469 -0.994688 86.035781 -0.549375 86.035781 0.00140625 Z M 86.035781 0.00140625 " transform="matrix(1,0,0,-1,1.89,114.185)"/>
<path style="fill-rule:nonzero;fill:rgb(0%,0%,0%);fill-opacity:1;stroke-width:0.3985;stroke-linecap:butt;stroke-linejoin:miter;stroke:rgb(0%,0%,0%);stroke-opacity:1;stroke-miterlimit:10;" d="M 0.996719 56.692812 C 0.996719 57.243594 0.551406 57.688906 0.000625 57.688906 C -0.550156 57.688906 -0.995469 57.243594 -0.995469 56.692812 C -0.995469 56.142031 -0.550156 55.696719 0.000625 55.696719 C 0.551406 55.696719 0.996719 56.142031 0.996719 56.692812 Z M 0.996719 56.692812 " transform="matrix(1,0,0,-1,1.89,114.185)"/>
<path style="fill:none;stroke-width:0.3985;stroke-linecap:butt;stroke-linejoin:miter;stroke:rgb(0%,0%,0%);stroke-opacity:1;stroke-miterlimit:10;" d="M 85.039687 0.00140625 L 0.000625 85.040469 " transform="matrix(1,0,0,-1,1.89,114.185)"/>
<path style="fill-rule:nonzero;fill:rgb(0%,0%,0%);fill-opacity:1;stroke-width:0.3985;stroke-linecap:butt;stroke-linejoin:miter;stroke:rgb(0%,0%,0%);stroke-opacity:1;stroke-miterlimit:10;" d="M 86.035781 0.00140625 C 86.035781 0.548281 85.590469 0.9975 85.039687 0.9975 C 84.488906 0.9975 84.043594 0.548281 84.043594 0.00140625 C 84.043594 -0.549375 84.488906 -0.994688 85.039687 -0.994688 C 85.590469 -0.994688 86.035781 -0.549375 86.035781 0.00140625 Z M 86.035781 0.00140625 " transform="matrix(1,0,0,-1,1.89,114.185)"/>
<path style="fill-rule:nonzero;fill:rgb(0%,0%,0%);fill-opacity:1;stroke-width:0.3985;stroke-linecap:butt;stroke-linejoin:miter;stroke:rgb(0%,0%,0%);stroke-opacity:1;stroke-miterlimit:10;" d="M 0.996719 85.040469 C 0.996719 85.59125 0.551406 86.036562 0.000625 86.036562 C -0.550156 86.036562 -0.995469 85.59125 -0.995469 85.040469 C -0.995469 84.489687 -0.550156 84.044375 0.000625 84.044375 C 0.551406 84.044375 0.996719 84.489687 0.996719 85.040469 Z M 0.996719 85.040469 " transform="matrix(1,0,0,-1,1.89,114.185)"/>
<path style="fill:none;stroke-width:0.3985;stroke-linecap:butt;stroke-linejoin:miter;stroke:rgb(0%,0%,0%);stroke-opacity:1;stroke-miterlimit:10;" d="M 113.387344 0.00140625 L 0.000625 28.345156 " transform="matrix(1,0,0,-1,1.89,114.185)"/>
<path style="fill-rule:nonzero;fill:rgb(0%,0%,0%);fill-opacity:1;stroke-width:0.3985;stroke-linecap:butt;stroke-linejoin:miter;stroke:rgb(0%,0%,0%);stroke-opacity:1;stroke-miterlimit:10;" d="M 114.383437 0.00140625 C 114.383437 0.548281 113.938125 0.9975 113.387344 0.9975 C 112.836562 0.9975 112.39125 0.548281 112.39125 0.00140625 C 112.39125 -0.549375 112.836562 -0.994688 113.387344 -0.994688 C 113.938125 -0.994688 114.383437 -0.549375 114.383437 0.00140625 Z M 114.383437 0.00140625 " transform="matrix(1,0,0,-1,1.89,114.185)"/>
<path style="fill-rule:nonzero;fill:rgb(0%,0%,0%);fill-opacity:1;stroke-width:0.3985;stroke-linecap:butt;stroke-linejoin:miter;stroke:rgb(0%,0%,0%);stroke-opacity:1;stroke-miterlimit:10;" d="M 0.996719 28.345156 C 0.996719 28.895937 0.551406 29.34125 0.000625 29.34125 C -0.550156 29.34125 -0.995469 28.895937 -0.995469 28.345156 C -0.995469 27.798281 -0.550156 27.349062 0.000625 27.349062 C 0.551406 27.349062 0.996719 27.798281 0.996719 28.345156 Z M 0.996719 28.345156 " transform="matrix(1,0,0,-1,1.89,114.185)"/>
<path style="fill:none;stroke-width:0.3985;stroke-linecap:butt;stroke-linejoin:miter;stroke:rgb(0%,0%,0%);stroke-opacity:1;stroke-miterlimit:10;" d="M 113.387344 0.00140625 L 0.000625 56.692812 " transform="matrix(1,0,0,-1,1.89,114.185)"/>
<path style="fill-rule:nonzero;fill:rgb(0%,0%,0%);fill-opacity:1;stroke-width:0.3985;stroke-linecap:butt;stroke-linejoin:miter;stroke:rgb(0%,0%,0%);stroke-opacity:1;stroke-miterlimit:10;" d="M 114.383437 0.00140625 C 114.383437 0.548281 113.938125 0.9975 113.387344 0.9975 C 112.836562 0.9975 112.39125 0.548281 112.39125 0.00140625 C 112.39125 -0.549375 112.836562 -0.994688 113.387344 -0.994688 C 113.938125 -0.994688 114.383437 -0.549375 114.383437 0.00140625 Z M 114.383437 0.00140625 " transform="matrix(1,0,0,-1,1.89,114.185)"/>
<path style="fill-rule:nonzero;fill:rgb(0%,0%,0%);fill-opacity:1;stroke-width:0.3985;stroke-linecap:butt;stroke-linejoin:miter;stroke:rgb(0%,0%,0%);stroke-opacity:1;stroke-miterlimit:10;" d="M 0.996719 56.692812 C 0.996719 57.243594 0.551406 57.688906 0.000625 57.688906 C -0.550156 57.688906 -0.995469 57.243594 -0.995469 56.692812 C -0.995469 56.142031 -0.550156 55.696719 0.000625 55.696719 C 0.551406 55.696719 0.996719 56.142031 0.996719 56.692812 Z M 0.996719 56.692812 " transform="matrix(1,0,0,-1,1.89,114.185)"/>
<path style="fill:none;stroke-width:0.3985;stroke-linecap:butt;stroke-linejoin:miter;stroke:rgb(0%,0%,0%);stroke-opacity:1;stroke-miterlimit:10;" d="M 113.387344 0.00140625 L 0.000625 85.040469 " transform="matrix(1,0,0,-1,1.89,114.185)"/>
<path style="fill-rule:nonzero;fill:rgb(0%,0%,0%);fill-opacity:1;stroke-width:0.3985;stroke-linecap:butt;stroke-linejoin:miter;stroke:rgb(0%,0%,0%);stroke-opacity:1;stroke-miterlimit:10;" d="M 114.383437 0.00140625 C 114.383437 0.548281 113.938125 0.9975 113.387344 0.9975 C 112.836562 0.9975 112.39125 0.548281 112.39125 0.00140625 C 112.39125 -0.549375 112.836562 -0.994688 113.387344 -0.994688 C 113.938125 -0.994688 114.383437 -0.549375 114.383437 0.00140625 Z M 114.383437 0.00140625 " transform="matrix(1,0,0,-1,1.89,114.185)"/>
<path style="fill-rule:nonzero;fill:rgb(0%,0%,0%);fill-opacity:1;stroke-width:0.3985;stroke-linecap:butt;stroke-linejoin:miter;stroke:rgb(0%,0%,0%);stroke-opacity:1;stroke-miterlimit:10;" d="M 0.996719 85.040469 C 0.996719 85.59125 0.551406 86.036562 0.000625 86.036562 C -0.550156 86.036562 -0.995469 85.59125 -0.995469 85.040469 C -0.995469 84.489687 -0.550156 84.044375 0.000625 84.044375 C 0.551406 84.044375 0.996719 84.489687 0.996719 85.040469 Z M 0.996719 85.040469 " transform="matrix(1,0,0,-1,1.89,114.185)"/>
</g>
</svg>
