<?xml version="1.0" encoding="UTF-8"?>
<svg xmlns="http://www.w3.org/2000/svg" xmlns:xlink="http://www.w3.org/1999/xlink" width="176pt" height="176pt" viewBox="0 0 176 176" version="1.1">
<g id="surface1">
<path style="fill:none;stroke-width:0.3985;stroke-linecap:butt;stroke-linejoin:miter;stroke:rgb(0%,0%,0%);stroke-opacity:1;stroke-miterlimit:10;" d="M 1.991906 -0.00109375 C 1.991906 1.100469 1.101281 1.991094 -0.00028125 1.991094 C -1.101844 1.991094 -1.992469 1.100469 -1.992469 -0.00109375 C -1.992469 -1.09875 -1.101844 -1.993281 -0.00028125 -1.993281 C 1.101281 -1.993281 1.991906 -1.09875 1.991906 -0.00109375 Z M 1.991906 -0.00109375 " transform="matrix(1,0,0,-1,2.887,172.87)"/>
<path style="fill:none;stroke-width:0.3985;stroke-linecap:butt;stroke-linejoin:miter;stroke:rgb(0%,0%,0%);stroke-opacity:1;stroke-miterlimit:10;" d="M 30.339563 -0.00109375 C 30.339563 1.100469 29.448938 1.991094 28.347375 1.991094 C 27.245813 1.991094 26.355188 1.100469 26.355188 -0.00109375 C 26.355188 -1.09875 27.245813 -1.993281 28.347375 -1.993281 C 29.448938 -1.993281 30.339563 -1.09875 30.339563 -0.00109375 Z M 30.339563 -0.00109375 " transform="matrix(1,0,0,-1,2.887,172.87)"/>
<path style="fill:none;stroke-width:0.3985;stroke-linecap:butt;stroke-linejoin:miter;stroke:rgb(0%,0%,0%);stroke-opacity:1;stroke-miterlimit:10;" d="M 30.339563 28.346563 C 30.339563 29.448125 29.448938 30.33875 28.347375 30.33875 C 27.245813 30.33875 26.355188 29.448125 26.355188 28.346563 C 26.355188 27.245 27.245813 26.354375 28.347375 26.354375 C 29.448938 26.354375 30.339563 27.245 30.339563 28.346563 Z M 30.339563 28.346563 " transform="matrix(1,0,0,-1,2.887,172.87)"/>
<path style="fill:none;stroke-width:0.3985;stroke-linecap:butt;stroke-linejoin:miter;stroke:rgb(0%,0%,0%);stroke-opacity:1;stroke-miterlimit:10;" d="M 58.687219 -0.00109375 C 58.687219 1.100469 57.792688 1.991094 56.695031 1.991094 C 55.593469 1.991094 54.702844 1.100469 54.702844 -0.00109375 C 54.702844 -1.09875 55.593469 -1.993281 56.695031 -1.993281 C 57.792688 -1.993281 58.687219 -1.09875 58.687219 -0.00109375 Z M 58.687219 -0.00109375 " transform="matrix(1,0,0,-1,2.887,172.87)"/>
<path style="fill:none;stroke-width:0.3985;stroke-linecap:butt;stroke-linejoin:miter;stroke:rgb(0%,0%,0%);stroke-opacity:1;stroke-miterlimit:10;" d="M 58.687219 28.346563 C 58.687219 29.448125 57.792688 30.33875 56.695031 30.33875 C 55.593469 30.33875 54.702844 29.448125 54.702844 28.346563 C 54.702844 27.245 55.593469 26.354375 56.695031 26.354375 C 57.792688 26.354375 58.687219 27.245 58.687219 28.346563 Z M 58.687219 28.346563 " transform="matrix(1,0,0,-1,2.887,172.87)"/>
<path style="fill:none;stroke-width:0.3985;stroke-linecap:butt;stroke-linejoin:miter;stroke:rgb(0%,0%,0%);stroke-opacity:1;stroke-miterlimit:10;" d="M 58.687219 56.694219 C 58.687219 57.795781 57.792688 58.686406 56.695031 58.686406 C 55.593469 58.686406 54.702844 57.795781 54.702844 56.694219 C 54.702844 55.592656 55.593469 54.702031 56.695031 54.702031 C 57.792688 54.702031 58.687219 55.592656 58.687219 56.694219 Z M 58.687219 56.694219 " transform="matrix(1,0,0,-1,2.887,172.87)"/>
<path style="fill:none;stroke-width:0.3985;stroke-linecap:butt;stroke-linejoin:miter;stroke:rgb(0%,0%,0%);stroke-opacity:1;stroke-miterlimit:10;" d="M 87.034875 -0.00109375 C 87.034875 1.100469 86.140344 1.991094 85.038781 1.991094 C 83.941125 1.991094 83.046594 1.100469 83.046594 -0.00109375 C 83.046594 -1.09875 83.941125 -1.993281 85.038781 -1.993281 C 86.140344 -1.993281 87.034875 -1.09875 87.034875 -0.00109375 Z M 87.034875 -0.00109375 " transform="matrix(1,0,0,-1,2.887,172.87)"/>
<path style="fill:none;stroke-width:0.3985;stroke-linecap:butt;stroke-linejoin:miter;stroke:rgb(0%,0%,0%);stroke-opacity:1;stroke-miterlimit:10;" d="M 87.034875 28.346563 C 87.034875 29.448125 86.140344 30.33875 85.038781 30.33875 C 83.941125 30.33875 83.046594 29.448125 83.046594 28.346563 C 83.046594 27.245 83.941125 26.354375 85.038781 26.354375 C 86.140344 26.354375 87.034875 27.245 87.034875 28.346563 Z M 87.034875 28.346563 " transform="matrix(1,0,0,-1,2.887,172.87)"/>
<path style="fill:none;stroke-width:0.3985;stroke-linecap:butt;stroke-linejoin:miter;stroke:rgb(0%,0%,0%);stroke-opacity:1;stroke-miterlimit:10;" d="M 87.034875 56.694219 C 87.034875 57.795781 86.140344 58.686406 85.038781 58.686406 C 83.941125 58.686406 83.046594 57.795781 83.046594 56.694219 C 83.046594 55.592656 83.941125 54.702031 85.038781 54.702031 C 86.140344 54.702031 87.034875 55.592656 87.034875 56.694219 Z M 87.034875 56.694219 " transform="matrix(1,0,0,-1,2.887,172.87)"/>
<path style="fill:none;stroke-width:0.3985;stroke-linecap:butt;stroke-linejoin:miter;stroke:rgb(0%,0%,0%);stroke-opacity:1;stroke-miterlimit:10;" d="M 87.034875 85.041875 C 87.034875 86.139531 86.140344 87.034063 85.038781 87.034063 C 83.941125 87.034063 83.046594 86.139531 83.046594 85.041875 C 83.046594 83.940313 83.941125 83.049688 85.038781 83.049688 C 86.140344 83.049688 87.034875 83.940313 87.034875 85.041875 Z M 87.034875 85.041875 " transform="matrix(1,0,0,-1,2.887,172.87)"/>
<path style="fill:none;stroke-width:0.3985;stroke-linecap:butt;stroke-linejoin:miter;stroke:rgb(0%,0%,0%);stroke-opacity:1;stroke-miterlimit:10;" d="M 115.378625 -0.00109375 C 115.378625 1.100469 114.488 1.991094 113.386437 1.991094 C 112.284875 1.991094 111.39425 1.100469 111.39425 -0.00109375 C 111.39425 -1.09875 112.284875 -1.993281 113.386437 -1.993281 C 114.488 -1.993281 115.378625 -1.09875 115.378625 -0.00109375 Z M 115.378625 -0.00109375 " transform="matrix(1,0,0,-1,2.887,172.87)"/>
<path style="fill:none;stroke-width:0.3985;stroke-linecap:butt;stroke-linejoin:miter;stroke:rgb(0%,0%,0%);stroke-opacity:1;stroke-miterlimit:10;" d="M 115.378625 28.346563 C 115.378625 29.448125 114.488 30.33875 113.386437 30.33875 C 112.284875 30.33875 111.39425 29.448125 111.39425 28.346563 C 111.39425 27.245 112.284875 26.354375 113.386437 26.354375 C 114.488 26.354375 115.378625 27.245 115.378625 28.346563 Z M 115.378625 28.346563 " transform="matrix(1,0,0,-1,2.887,172.87)"/>
<path style="fill:none;stroke-width:0.3985;stroke-linecap:butt;stroke-linejoin:miter;stroke:rgb(0%,0%,0%);stroke-opacity:1;stroke-miterlimit:10;" d="M 115.378625 56.694219 C 115.378625 57.795781 114.488 58.686406 113.386437 58.686406 C 112.284875 58.686406 111.39425 57.795781 111.39425 56.694219 C 111.39425 55.592656 112.284875 54.702031 113.386437 54.702031 C 114.488 54.702031 115.378625 55.592656 115.378625 56.694219 Z M 115.378625 56.694219 " transform="matrix(1,0,0,-1,2.887,172.87)"/>
<path style="fill:none;stroke-width:0.3985;stroke-linecap:butt;stroke-linejoin:miter;stroke:rgb(0%,0%,0%);stroke-opacity:1;stroke-miterlimit:10;" d="M 115.378625 85.041875 C 115.378625 86.139531 114.488 87.034063 113.386437 87.034063 C 112.284875 87.034063 111.39425 86.139531 111.39425 85.041875 C 111.39425 83.940313 112.284875 83.049688 113.386437 83.049688 C 114.488 83.049688 115.378625 83.940313 115.378625 85.041875 Z M 115.378625 85.041875 " transform="matrix(1,0,0,-1,2.887,172.87)"/>
<path style="fill:none;stroke-width:0.3985;stroke-linecap:butt;stroke-linejoin:miter;stroke:rgb(0%,0%,0%);stroke-opacity:1;stroke-miterlimit:10;" d="M 115.378625 113.385625 C 115.378625 114.487188 114.488 115.381719 113.386437 115.381719 C 112.284875 115.381719 111.39425 114.487188 111.39425 113.385625 C 111.39425 112.287969 112.284875 111.393438 113.386437 111.393438 C 114.488 111.393438 115.378625 112.287969 115.378625 113.385625 Z M 115.378625 113.385625 " transform="matrix(1,0,0,-1,2.887,172.87)"/>
<path style="fill:none;stroke-width:0.3985;stroke-linecap:butt;stroke-linejoin:miter;stroke:rgb(0%,0%,0%);stroke-opacity:1;stroke-miterlimit:10;" d="M 143.726281 -0.00109375 C 143.726281 1.100469 142.835656 1.991094 141.734094 1.991094 C 140.632531 1.991094 139.741906 1.100469 139.741906 -0.00109375 C 139.741906 -1.09875 140.632531 -1.993281 141.734094 -1.993281 C 142.835656 -1.993281 143.726281 -1.09875 143.726281 -0.00109375 Z M 143.726281 -0.00109375 " transform="matrix(1,0,0,-1,2.887,172.87)"/>
<path style="fill:none;stroke-width:0.3985;stroke-linecap:butt;stroke-linejoin:miter;stroke:rgb(0%,0%,0%);stroke-opacity:1;stroke-miterlimit:10;" d="M 143.726281 28.346563 C 143.726281 29.448125 142.835656 30.33875 141.734094 30.33875 C 140.632531 30.33875 139.741906 29.448125 139.741906 28.346563 C 139.741906 27.245 140.632531 26.354375 141.734094 26.354375 C 142.835656 26.354375 143.726281 27.245 143.726281 28.346563 Z M 143.726281 28.346563 " transform="matrix(1,0,0,-1,2.887,172.87)"/>
<path style="fill:none;stroke-width:0.3985;stroke-linecap:butt;stroke-linejoin:miter;stroke:rgb(0%,0%,0%);stroke-opacity:1;stroke-miterlimit:10;" d="M 143.726281 56.694219 C 143.726281 57.795781 142.835656 58.686406 141.734094 58.686406 C 140.632531 58.686406 139.741906 57.795781 139.741906 56.694219 C 139.741906 55.592656 140.632531 54.702031 141.734094 54.702031 C 142.835656 54.702031 143.726281 55.592656 143.726281 56.694219 Z M 143.726281 56.694219 " transform="matrix(1,0,0,-1,2.887,172.87)"/>
<path style="fill:none;stroke-width:0.3985;stroke-linecap:butt;stroke-linejoin:miter;stroke:rgb(0%,0%,0%);stroke-opacity:1;stroke-miterlimit:10;" d="M 143.726281 85.041875 C 143.726281 86.139531 142.835656 87.034063 141.734094 87.034063 C 140.632531 87.034063 139.741906 86.139531 139.741906 85.041875 C 139.741906 83.940313 140.632531 83.049688 141.734094 83.049688 C 142.835656 83.049688 143.726281 83.940313 143.726281 85.041875 Z M 143.726281 85.041875 " transform="matrix(1,0,0,-1,2.887,172.87)"/>
<path style="fill:none;stroke-width:0.3985;stroke-linecap:butt;stroke-linejoin:miter;stroke:rgb(0%,0%,0%);stroke-opacity:1;stroke-miterlimit:10;" d="M 143.726281 113.385625 C 143.726281 114.487188 142.835656 115.381719 141.734094 115.381719 C 140.632531 115.381719 139.741906 114.487188 139.741906 113.385625 C 139.741906 112.287969 140.632531 111.393438 141.734094 111.393438 C 142.835656 111.393438 143.726281 112.287969 143.726281 113.385625 Z M 143.726281 113.385625 " transform="matrix(1,0,0,-1,2.887,172.87)"/>
<path style="fill:none;stroke-width:0.3985;stroke-linecap:butt;stroke-linejoin:miter;stroke:rgb(0%,0%,0%);stroke-opacity:1;stroke-miterlimit:10;" d="M 143.726281 141.733281 C 143.726281 142.834844 142.835656 143.725469 141.734094 143.725469 C 140.632531 143.725469 139.741906 142.834844 139.741906 141.733281 C 139.741906 140.631719 140.632531 139.741094 141.734094 139.741094 C 142.835656 139.741094 143.726281 140.631719 143.726281 141.733281 Z M 143.726281 141.733281 " transform="matrix(1,0,0,-1,2.887,172.87)"/>
<path style="fill:none;stroke-width:0.3985;stroke-linecap:butt;stroke-linejoin:miter;stroke:rgb(0%,0%,0%);stroke-opacity:1;stroke-miterlimit:10;" d="M 172.073937 -0.00109375 C 172.073937 1.100469 171.179406 1.991094 170.08175 1.991094 C 168.980187 1.991094 168.089562 1.100469 168.089562 -0.00109375 C 168.089562 -1.09875 168.980187 -1.993281 170.08175 -1.993281 C 171.179406 -1.993281 172.073937 -1.09875 172.073937 -0.00109375 Z M 172.073937 -0.00109375 " transform="matrix(1,0,0,-1,2.887,172.87)"/>
<path style="fill:none;stroke-width:0.3985;stroke-linecap:butt;stroke-linejoin:miter;stroke:rgb(0%,0%,0%);stroke-opacity:1;stroke-miterlimit:10;" d="M 172.073937 28.346563 C 172.073937 29.448125 171.179406 30.33875 170.08175 30.33875 C 168.980187 30.33875 168.089562 29.448125 168.089562 28.346563 C 168.089562 27.245 168.980187 26.354375 170.08175 26.354375 C 171.179406 26.354375 172.073937 27.245 172.073937 28.346563 Z M 172.073937 28.346563 " transform="matrix(1,0,0,-1,2.887,172.87)"/>
<path style="fill:none;stroke-width:0.3985;stroke-linecap:butt;stroke-linejoin:miter;stroke:rgb(0%,0%,0%);stroke-opacity:1;stroke-miterlimit:10;" d="M 172.073937 56.694219 C 172.073937 57.795781 171.179406 58.686406 170.08175 58.686406 C 168.980187 58.686406 168.089562 57.795781 168.089562 56.694219 C 168.089562 55.592656 168.980187 54.702031 170.08175 54.702031 C 171.179406 54.702031 172.073937 55.592656 172.073937 56.694219 Z M 172.073937 56.694219 " transform="matrix(1,0,0,-1,2.887,172.87)"/>
<path style="fill:none;stroke-width:0.3985;stroke-linecap:butt;stroke-linejoin:miter;stroke:rgb(0%,0%,0%);stroke-opacity:1;stroke-miterlimit:10;" d="M 172.073937 85.041875 C 172.073937 86.139531 171.179406 87.034063 170.08175 87.034063 C 168.980187 87.034063 168.089562 86.139531 168.089562 85.041875 C 168.089562 83.940313 168.980187 83.049688 170.08175 83.049688 C 171.179406 83.049688 172.073937 83.940313 172.073937 85.041875 Z M 172.073937 85.041875 " transform="matrix(1,0,0,-1,2.887,172.87)"/>
<path style="fill:none;stroke-width:0.3985;stroke-linecap:butt;stroke-linejoin:miter;stroke:rgb(0%,0%,0%);stroke-opacity:1;stroke-miterlimit:10;" d="M 172.073937 113.385625 C 172.073937 114.487188 171.179406 115.381719 170.08175 115.381719 C 168.980187 115.381719 168.089562 114.487188 168.089562 113.385625 C 168.089562 112.287969 168.980187 111.393438 170.08175 111.393438 C 171.179406 111.393438 172.073937 112.287969 172.073937 113.385625 Z M 172.073937 113.385625 " transform="matrix(1,0,0,-1,2.887,172.87)"/>
<path style="fill:none;stroke-width:0.3985;stroke-linecap:butt;stroke-linejoin:miter;stroke:rgb(0%,0%,0%);stroke-opacity:1;stroke-miterlimit:10;" d="M 172.073937 141.733281 C 172.073937 142.834844 171.179406 143.725469 170.08175 143.725469 C 168.980187 143.725469 168.089562 142.834844 168.089562 141.733281 C 168.089562 140.631719 168.980187 139.741094 170.08175 139.741094 C 171.179406 139.741094 172.073937 140.631719 172.073937 141.733281 Z M 172.073937 141.733281 " transform="matrix(1,0,0,-1,2.887,172.87)"/>
<path style="fill:none;stroke-width:0.3985;stroke-linecap:butt;stroke-linejoin:miter;stroke:rgb(0%,0%,0%);stroke-opacity:1;stroke-miterlimit:10;" d="M 172.073937 170.080938 C 172.073937 171.1825 171.179406 172.073125 170.08175 172.073125 C 168.980187 172.073125 168.089562 171.1825 168.089562 170.080938 C 168.089562 168.979375 168.980187 168.08875 170.08175 168.08875 C 171.179406 168.08875 172.073937 168.979375 172.073937 170.080938 Z M 172.073937 170.080938 " transform="matrix(1,0,0,-1,2.887,172.87)"/>
<path style="fill:none;stroke-width:0.3985;stroke-linecap:butt;stroke-linejoin:miter;stroke:rgb(0%,0%,0%);stroke-opacity:1;stroke-dasharray:2.98883,2.98883;stroke-miterlimit:10;" d="M 42.51925 -0.00109375 L 42.51925 70.866094 L 170.08175 70.866094 " transform="matrix(1,0,0,-1,2.887,172.87)"/>
</g>
</svg>
