<?xml version="1.0" encoding="UTF-8"?>
<svg xmlns="http://www.w3.org/2000/svg" xmlns:xlink="http://www.w3.org/1999/xlink" width="87pt" height="87pt" viewBox="0 0 87 87" version="1.1">
<g id="surface1">
<path style="fill:none;stroke-width:3.9851;stroke-linecap:butt;stroke-linejoin:miter;stroke:rgb(54.998779%,54.998779%,100%);stroke-opacity:1;stroke-miterlimit:10;" d="M -28.060312 28.060063 L -0.00171875 39.685063 L 28.060781 28.060063 L -0.00171875 0.00146875 L 28.060781 -28.061031 L 39.685781 0.00146875 L 19.842031 0.00146875 L -0.00171875 -39.686031 L -19.841562 0.00146875 L -39.685312 0.00146875 L -28.060312 -28.061031 " transform="matrix(1,0,0,-1,43.365,42.646)"/>
<path style="fill:none;stroke-width:0.3985;stroke-linecap:butt;stroke-linejoin:miter;stroke:rgb(0%,0%,0%);stroke-opacity:1;stroke-miterlimit:10;" d="M 39.685781 0.00146875 L 28.060781 28.060063 " transform="matrix(1,0,0,-1,43.365,42.646)"/>
<path style=" stroke:none;fill-rule:nonzero;fill:rgb(0%,0%,0%);fill-opacity:1;" d="M 85.042969 42.644531 C 85.042969 41.546875 84.152344 40.652344 83.050781 40.652344 C 81.949219 40.652344 81.058594 41.546875 81.058594 42.644531 C 81.058594 43.746094 81.949219 44.636719 83.050781 44.636719 C 84.152344 44.636719 85.042969 43.746094 85.042969 42.644531 Z M 85.042969 42.644531 "/>
<path style="fill:none;stroke-width:0.3985;stroke-linecap:butt;stroke-linejoin:miter;stroke:rgb(0%,0%,0%);stroke-opacity:1;stroke-miterlimit:10;" d="M 28.060781 28.060063 L -0.00171875 39.685063 " transform="matrix(1,0,0,-1,43.365,42.646)"/>
<path style=" stroke:none;fill-rule:nonzero;fill:rgb(0%,0%,0%);fill-opacity:1;" d="M 73.417969 14.585938 C 73.417969 13.484375 72.527344 12.589844 71.425781 12.589844 C 70.328125 12.589844 69.433594 13.484375 69.433594 14.585938 C 69.433594 15.683594 70.328125 16.578125 71.425781 16.578125 C 72.527344 16.578125 73.417969 15.683594 73.417969 14.585938 Z M 73.417969 14.585938 "/>
<path style="fill:none;stroke-width:0.3985;stroke-linecap:butt;stroke-linejoin:miter;stroke:rgb(0%,0%,0%);stroke-opacity:1;stroke-miterlimit:10;" d="M -0.00171875 39.685063 L -28.060312 28.060063 " transform="matrix(1,0,0,-1,43.365,42.646)"/>
<path style=" stroke:none;fill-rule:nonzero;fill:rgb(0%,0%,0%);fill-opacity:1;" d="M 45.359375 2.960938 C 45.359375 1.859375 44.464844 0.96875 43.363281 0.96875 C 42.265625 0.96875 41.371094 1.859375 41.371094 2.960938 C 41.371094 4.0625 42.265625 4.953125 43.363281 4.953125 C 44.464844 4.953125 45.359375 4.0625 45.359375 2.960938 Z M 45.359375 2.960938 "/>
<path style="fill:none;stroke-width:0.3985;stroke-linecap:butt;stroke-linejoin:miter;stroke:rgb(0%,0%,0%);stroke-opacity:1;stroke-miterlimit:10;" d="M -28.060312 28.060063 L -39.685312 0.00146875 " transform="matrix(1,0,0,-1,43.365,42.646)"/>
<path style=" stroke:none;fill-rule:nonzero;fill:rgb(0%,0%,0%);fill-opacity:1;" d="M 17.296875 14.585938 C 17.296875 13.484375 16.402344 12.589844 15.304688 12.589844 C 14.203125 12.589844 13.3125 13.484375 13.3125 14.585938 C 13.3125 15.683594 14.203125 16.578125 15.304688 16.578125 C 16.402344 16.578125 17.296875 15.683594 17.296875 14.585938 Z M 17.296875 14.585938 "/>
<path style="fill:none;stroke-width:0.3985;stroke-linecap:butt;stroke-linejoin:miter;stroke:rgb(0%,0%,0%);stroke-opacity:1;stroke-miterlimit:10;" d="M -39.685312 0.00146875 L -28.060312 -28.061031 " transform="matrix(1,0,0,-1,43.365,42.646)"/>
<path style=" stroke:none;fill-rule:nonzero;fill:rgb(0%,0%,0%);fill-opacity:1;" d="M 5.671875 42.644531 C 5.671875 41.546875 4.78125 40.652344 3.679688 40.652344 C 2.578125 40.652344 1.6875 41.546875 1.6875 42.644531 C 1.6875 43.746094 2.578125 44.636719 3.679688 44.636719 C 4.78125 44.636719 5.671875 43.746094 5.671875 42.644531 Z M 5.671875 42.644531 "/>
<path style="fill:none;stroke-width:0.3985;stroke-linecap:butt;stroke-linejoin:miter;stroke:rgb(0%,0%,0%);stroke-opacity:1;stroke-miterlimit:10;" d="M -28.060312 -28.061031 L -0.00171875 -39.686031 " transform="matrix(1,0,0,-1,43.365,42.646)"/>
<path style=" stroke:none;fill-rule:nonzero;fill:rgb(0%,0%,0%);fill-opacity:1;" d="M 17.296875 70.707031 C 17.296875 69.605469 16.402344 68.714844 15.304688 68.714844 C 14.203125 68.714844 13.3125 69.605469 13.3125 70.707031 C 13.3125 71.808594 14.203125 72.699219 15.304688 72.699219 C 16.402344 72.699219 17.296875 71.808594 17.296875 70.707031 Z M 17.296875 70.707031 "/>
<path style="fill:none;stroke-width:0.3985;stroke-linecap:butt;stroke-linejoin:miter;stroke:rgb(0%,0%,0%);stroke-opacity:1;stroke-miterlimit:10;" d="M -0.00171875 -39.686031 L 28.060781 -28.061031 " transform="matrix(1,0,0,-1,43.365,42.646)"/>
<path style=" stroke:none;fill-rule:nonzero;fill:rgb(0%,0%,0%);fill-opacity:1;" d="M 45.359375 82.332031 C 45.359375 81.230469 44.464844 80.339844 43.363281 80.339844 C 42.265625 80.339844 41.371094 81.230469 41.371094 82.332031 C 41.371094 83.433594 42.265625 84.324219 43.363281 84.324219 C 44.464844 84.324219 45.359375 83.433594 45.359375 82.332031 Z M 45.359375 82.332031 "/>
<path style="fill:none;stroke-width:0.3985;stroke-linecap:butt;stroke-linejoin:miter;stroke:rgb(0%,0%,0%);stroke-opacity:1;stroke-miterlimit:10;" d="M 28.060781 -28.061031 L 39.685781 0.00146875 " transform="matrix(1,0,0,-1,43.365,42.646)"/>
<path style=" stroke:none;fill-rule:nonzero;fill:rgb(0%,0%,0%);fill-opacity:1;" d="M 73.417969 70.707031 C 73.417969 69.605469 72.527344 68.714844 71.425781 68.714844 C 70.328125 68.714844 69.433594 69.605469 69.433594 70.707031 C 69.433594 71.808594 70.328125 72.699219 71.425781 72.699219 C 72.527344 72.699219 73.417969 71.808594 73.417969 70.707031 Z M 73.417969 70.707031 "/>
<path style="fill:none;stroke-width:0.3985;stroke-linecap:butt;stroke-linejoin:miter;stroke:rgb(0%,0%,0%);stroke-opacity:1;stroke-miterlimit:10;" d="M -0.00171875 0.00146875 L 28.060781 28.060063 M -0.00171875 0.00146875 L -28.060312 28.060063 M -0.00171875 0.00146875 L -28.060312 -28.061031 M -0.00171875 0.00146875 L 28.060781 -28.061031 " transform="matrix(1,0,0,-1,43.365,42.646)"/>
<path style=" stroke:none;fill-rule:nonzero;fill:rgb(0%,0%,0%);fill-opacity:1;" d="M 45.359375 42.644531 C 45.359375 41.546875 44.464844 40.652344 43.363281 40.652344 C 42.265625 40.652344 41.371094 41.546875 41.371094 42.644531 C 41.371094 43.746094 42.265625 44.636719 43.363281 44.636719 C 44.464844 44.636719 45.359375 43.746094 45.359375 42.644531 Z M 45.359375 42.644531 "/>
<path style="fill:none;stroke-width:0.3985;stroke-linecap:butt;stroke-linejoin:miter;stroke:rgb(0%,0%,0%);stroke-opacity:1;stroke-miterlimit:10;" d="M -19.841562 0.00146875 L -0.00171875 39.685063 M -19.841562 0.00146875 L -39.685312 0.00146875 M -19.841562 0.00146875 L -0.00171875 -39.686031 " transform="matrix(1,0,0,-1,43.365,42.646)"/>
<path style=" stroke:none;fill-rule:nonzero;fill:rgb(0%,0%,0%);fill-opacity:1;" d="M 25.515625 42.644531 C 25.515625 41.546875 24.621094 40.652344 23.523438 40.652344 C 22.421875 40.652344 21.53125 41.546875 21.53125 42.644531 C 21.53125 43.746094 22.421875 44.636719 23.523438 44.636719 C 24.621094 44.636719 25.515625 43.746094 25.515625 42.644531 Z M 25.515625 42.644531 "/>
<path style="fill:none;stroke-width:0.3985;stroke-linecap:butt;stroke-linejoin:miter;stroke:rgb(0%,0%,0%);stroke-opacity:1;stroke-miterlimit:10;" d="M 19.842031 0.00146875 L -0.00171875 39.685063 M 19.842031 0.00146875 L 39.685781 0.00146875 M 19.842031 0.00146875 L -0.00171875 -39.686031 " transform="matrix(1,0,0,-1,43.365,42.646)"/>
<path style=" stroke:none;fill-rule:nonzero;fill:rgb(0%,0%,0%);fill-opacity:1;" d="M 65.199219 42.644531 C 65.199219 41.546875 64.308594 40.652344 63.207031 40.652344 C 62.105469 40.652344 61.214844 41.546875 61.214844 42.644531 C 61.214844 43.746094 62.105469 44.636719 63.207031 44.636719 C 64.308594 44.636719 65.199219 43.746094 65.199219 42.644531 Z M 65.199219 42.644531 "/>
</g>
</svg>
