<?xml version="1.0" encoding="UTF-8"?>
<svg xmlns="http://www.w3.org/2000/svg" xmlns:xlink="http://www.w3.org/1999/xlink" width="76pt" height="62pt" viewBox="0 0 76 62" version="1.1">
<g id="surface1">
<path style="fill:none;stroke-width:0.3985;stroke-linecap:butt;stroke-linejoin:miter;stroke:rgb(0%,0%,0%);stroke-opacity:1;stroke-miterlimit:10;" d="M 0.0003125 0.00171875 L 28.347969 28.345469 L 14.172188 56.693125 M 28.347969 28.345469 L 42.519844 56.693125 M 0.0003125 0.00171875 L -28.347344 28.345469 " transform="matrix(1,0,0,-1,30.57,59.49)"/>
<path style=" stroke:none;fill-rule:nonzero;fill:rgb(0%,0%,0%);fill-opacity:1;" d="M 32.5625 59.488281 C 32.5625 58.390625 31.671875 57.496094 30.570312 57.496094 C 29.46875 57.496094 28.578125 58.390625 28.578125 59.488281 C 28.578125 60.589844 29.46875 61.484375 30.570312 61.484375 C 31.671875 61.484375 32.5625 60.589844 32.5625 59.488281 Z M 32.5625 59.488281 "/>
<path style=" stroke:none;fill-rule:nonzero;fill:rgb(0%,0%,0%);fill-opacity:1;" d="M 60.910156 31.144531 C 60.910156 30.042969 60.015625 29.152344 58.917969 29.152344 C 57.816406 29.152344 56.925781 30.042969 56.925781 31.144531 C 56.925781 32.242188 57.816406 33.136719 58.917969 33.136719 C 60.015625 33.136719 60.910156 32.242188 60.910156 31.144531 Z M 60.910156 31.144531 "/>
<path style=" stroke:none;fill-rule:nonzero;fill:rgb(0%,0%,0%);fill-opacity:1;" d="M 46.734375 2.796875 C 46.734375 1.695312 45.84375 0.804688 44.742188 0.804688 C 43.644531 0.804688 42.75 1.695312 42.75 2.796875 C 42.75 3.898438 43.644531 4.789062 44.742188 4.789062 C 45.84375 4.789062 46.734375 3.898438 46.734375 2.796875 Z M 46.734375 2.796875 "/>
<path style=" stroke:none;fill-rule:nonzero;fill:rgb(0%,0%,0%);fill-opacity:1;" d="M 75.082031 2.796875 C 75.082031 1.695312 74.191406 0.804688 73.089844 0.804688 C 71.988281 0.804688 71.097656 1.695312 71.097656 2.796875 C 71.097656 3.898438 71.988281 4.789062 73.089844 4.789062 C 74.191406 4.789062 75.082031 3.898438 75.082031 2.796875 Z M 75.082031 2.796875 "/>
<path style=" stroke:none;fill-rule:nonzero;fill:rgb(0%,0%,0%);fill-opacity:1;" d="M 4.214844 31.144531 C 4.214844 30.042969 3.324219 29.152344 2.222656 29.152344 C 1.121094 29.152344 0.230469 30.042969 0.230469 31.144531 C 0.230469 32.242188 1.121094 33.136719 2.222656 33.136719 C 3.324219 33.136719 4.214844 32.242188 4.214844 31.144531 Z M 4.214844 31.144531 "/>
</g>
</svg>
