<?xml version="1.0" encoding="UTF-8"?>
<svg xmlns="http://www.w3.org/2000/svg" xmlns:xlink="http://www.w3.org/1999/xlink" width="76pt" height="62pt" viewBox="0 0 76 62" version="1.1">
<g id="surface1">
<path style="fill:none;stroke-width:0.3985;stroke-linecap:butt;stroke-linejoin:miter;stroke:rgb(0%,0%,0%);stroke-opacity:1;stroke-miterlimit:10;" d="M 0.00134375 0.00065625 L 28.345094 28.348312 L 14.173219 56.692062 M 28.345094 28.348312 L 42.520875 56.692062 M 0.00134375 0.00065625 L -28.346312 28.348312 " transform="matrix(1,0,0,-1,31.026,59.653)"/>
<path style=" stroke:none;fill-rule:nonzero;fill:rgb(0%,0%,0%);fill-opacity:1;" d="M 33.019531 59.652344 C 33.019531 58.550781 32.125 57.660156 31.027344 57.660156 C 29.925781 57.660156 29.035156 58.550781 29.035156 59.652344 C 29.035156 60.753906 29.925781 61.644531 31.027344 61.644531 C 32.125 61.644531 33.019531 60.753906 33.019531 59.652344 Z M 33.019531 59.652344 "/>
<path style=" stroke:none;fill-rule:nonzero;fill:rgb(0%,0%,0%);fill-opacity:1;" d="M 61.367188 31.304688 C 61.367188 30.207031 60.472656 29.3125 59.371094 29.3125 C 58.273438 29.3125 57.378906 30.207031 57.378906 31.304688 C 57.378906 32.40625 58.273438 33.296875 59.371094 33.296875 C 60.472656 33.296875 61.367188 32.40625 61.367188 31.304688 Z M 61.367188 31.304688 "/>
<path style=" stroke:none;fill-rule:nonzero;fill:rgb(0%,0%,0%);fill-opacity:1;" d="M 47.191406 2.960938 C 47.191406 1.859375 46.300781 0.96875 45.199219 0.96875 C 44.097656 0.96875 43.207031 1.859375 43.207031 2.960938 C 43.207031 4.058594 44.097656 4.953125 45.199219 4.953125 C 46.300781 4.953125 47.191406 4.058594 47.191406 2.960938 Z M 47.191406 2.960938 "/>
<path style=" stroke:none;fill-rule:nonzero;fill:rgb(0%,0%,0%);fill-opacity:1;" d="M 75.539062 2.960938 C 75.539062 1.859375 74.648438 0.96875 73.546875 0.96875 C 72.445312 0.96875 71.554688 1.859375 71.554688 2.960938 C 71.554688 4.058594 72.445312 4.953125 73.546875 4.953125 C 74.648438 4.953125 75.539062 4.058594 75.539062 2.960938 Z M 75.539062 2.960938 "/>
<path style=" stroke:none;fill-rule:nonzero;fill:rgb(0%,0%,0%);fill-opacity:1;" d="M 4.671875 31.304688 C 4.671875 30.207031 3.78125 29.3125 2.679688 29.3125 C 1.578125 29.3125 0.6875 30.207031 0.6875 31.304688 C 0.6875 32.40625 1.578125 33.296875 2.679688 33.296875 C 3.78125 33.296875 4.671875 32.40625 4.671875 31.304688 Z M 4.671875 31.304688 "/>
</g>
</svg>
