<?xml version="1.0" encoding="UTF-8"?>
<svg xmlns="http://www.w3.org/2000/svg" xmlns:xlink="http://www.w3.org/1999/xlink" width="144pt" height="116pt" viewBox="0 0 144 116" version="1.1">
<g id="surface1">
<path style="fill:none;stroke-width:0.3985;stroke-linecap:butt;stroke-linejoin:miter;stroke:rgb(0%,0%,0%);stroke-opacity:1;stroke-miterlimit:10;" d="M -0.00046875 -0.00140625 L -0.00046875 113.385312 M -0.00046875 -0.00140625 L 141.733906 -0.00140625 " transform="matrix(1,0,0,-1,1.52,114.19)"/>
<path style="fill:none;stroke-width:0.3985;stroke-linecap:butt;stroke-linejoin:miter;stroke:rgb(0%,0%,0%);stroke-opacity:1;stroke-miterlimit:10;" d="M 28.347187 -0.00140625 L -0.00046875 28.34625 " transform="matrix(1,0,0,-1,1.52,114.19)"/>
<path style="fill-rule:nonzero;fill:rgb(0%,0%,0%);fill-opacity:1;stroke-width:0.3985;stroke-linecap:butt;stroke-linejoin:miter;stroke:rgb(0%,0%,0%);stroke-opacity:1;stroke-miterlimit:10;" d="M 29.343281 -0.00140625 C 29.343281 0.549375 28.897969 0.994687 28.347187 0.994687 C 27.796406 0.994687 27.351094 0.549375 27.351094 -0.00140625 C 27.351094 -0.548281 27.796406 -0.9975 28.347187 -0.9975 C 28.897969 -0.9975 29.343281 -0.548281 29.343281 -0.00140625 Z M 29.343281 -0.00140625 " transform="matrix(1,0,0,-1,1.52,114.19)"/>
<path style="fill-rule:nonzero;fill:rgb(0%,0%,0%);fill-opacity:1;stroke-width:0.3985;stroke-linecap:butt;stroke-linejoin:miter;stroke:rgb(0%,0%,0%);stroke-opacity:1;stroke-miterlimit:10;" d="M 0.995625 28.34625 C 0.995625 28.897031 0.550312 29.342344 -0.00046875 29.342344 C -0.55125 29.342344 -0.996563 28.897031 -0.996563 28.34625 C -0.996563 27.795469 -0.55125 27.350156 -0.00046875 27.350156 C 0.550312 27.350156 0.995625 27.795469 0.995625 28.34625 Z M 0.995625 28.34625 " transform="matrix(1,0,0,-1,1.52,114.19)"/>
<path style="fill:none;stroke-width:0.3985;stroke-linecap:butt;stroke-linejoin:miter;stroke:rgb(0%,0%,0%);stroke-opacity:1;stroke-miterlimit:10;" d="M 28.347187 -0.00140625 L -0.00046875 56.693906 " transform="matrix(1,0,0,-1,1.52,114.19)"/>
<path style="fill-rule:nonzero;fill:rgb(0%,0%,0%);fill-opacity:1;stroke-width:0.3985;stroke-linecap:butt;stroke-linejoin:miter;stroke:rgb(0%,0%,0%);stroke-opacity:1;stroke-miterlimit:10;" d="M 29.343281 -0.00140625 C 29.343281 0.549375 28.897969 0.994687 28.347187 0.994687 C 27.796406 0.994687 27.351094 0.549375 27.351094 -0.00140625 C 27.351094 -0.548281 27.796406 -0.9975 28.347187 -0.9975 C 28.897969 -0.9975 29.343281 -0.548281 29.343281 -0.00140625 Z M 29.343281 -0.00140625 " transform="matrix(1,0,0,-1,1.52,114.19)"/>
<path style="fill-rule:nonzero;fill:rgb(0%,0%,0%);fill-opacity:1;stroke-width:0.3985;stroke-linecap:butt;stroke-linejoin:miter;stroke:rgb(0%,0%,0%);stroke-opacity:1;stroke-miterlimit:10;" d="M 0.995625 56.693906 C 0.995625 57.244687 0.550312 57.69 -0.00046875 57.69 C -0.55125 57.69 -0.996563 57.244687 -0.996563 56.693906 C -0.996563 56.143125 -0.55125 55.697812 -0.00046875 55.697812 C 0.550312 55.697812 0.995625 56.143125 0.995625 56.693906 Z M 0.995625 56.693906 " transform="matrix(1,0,0,-1,1.52,114.19)"/>
<path style="fill:none;stroke-width:0.3985;stroke-linecap:butt;stroke-linejoin:miter;stroke:rgb(0%,0%,0%);stroke-opacity:1;stroke-miterlimit:10;" d="M 28.347187 -0.00140625 L -0.00046875 85.041562 " transform="matrix(1,0,0,-1,1.52,114.19)"/>
<path style="fill-rule:nonzero;fill:rgb(0%,0%,0%);fill-opacity:1;stroke-width:0.3985;stroke-linecap:butt;stroke-linejoin:miter;stroke:rgb(0%,0%,0%);stroke-opacity:1;stroke-miterlimit:10;" d="M 29.343281 -0.00140625 C 29.343281 0.549375 28.897969 0.994687 28.347187 0.994687 C 27.796406 0.994687 27.351094 0.549375 27.351094 -0.00140625 C 27.351094 -0.548281 27.796406 -0.9975 28.347187 -0.9975 C 28.897969 -0.9975 29.343281 -0.548281 29.343281 -0.00140625 Z M 29.343281 -0.00140625 " transform="matrix(1,0,0,-1,1.52,114.19)"/>
<path style="fill-rule:nonzero;fill:rgb(0%,0%,0%);fill-opacity:1;stroke-width:0.3985;stroke-linecap:butt;stroke-linejoin:miter;stroke:rgb(0%,0%,0%);stroke-opacity:1;stroke-miterlimit:10;" d="M 0.995625 85.041562 C 0.995625 85.592344 0.550312 86.037656 -0.00046875 86.037656 C -0.55125 86.037656 -0.996563 85.592344 -0.996563 85.041562 C -0.996563 84.490781 -0.55125 84.045469 -0.00046875 84.045469 C 0.550312 84.045469 0.995625 84.490781 0.995625 85.041562 Z M 0.995625 85.041562 " transform="matrix(1,0,0,-1,1.52,114.19)"/>
<path style="fill:none;stroke-width:0.3985;stroke-linecap:butt;stroke-linejoin:miter;stroke:rgb(0%,0%,0%);stroke-opacity:1;stroke-miterlimit:10;" d="M 56.694844 -0.00140625 L -0.00046875 28.34625 " transform="matrix(1,0,0,-1,1.52,114.19)"/>
<path style="fill-rule:nonzero;fill:rgb(0%,0%,0%);fill-opacity:1;stroke-width:0.3985;stroke-linecap:butt;stroke-linejoin:miter;stroke:rgb(0%,0%,0%);stroke-opacity:1;stroke-miterlimit:10;" d="M 57.690937 -0.00140625 C 57.690937 0.549375 57.245625 0.994687 56.694844 0.994687 C 56.144062 0.994687 55.69875 0.549375 55.69875 -0.00140625 C 55.69875 -0.548281 56.144062 -0.9975 56.694844 -0.9975 C 57.245625 -0.9975 57.690937 -0.548281 57.690937 -0.00140625 Z M 57.690937 -0.00140625 " transform="matrix(1,0,0,-1,1.52,114.19)"/>
<path style="fill-rule:nonzero;fill:rgb(0%,0%,0%);fill-opacity:1;stroke-width:0.3985;stroke-linecap:butt;stroke-linejoin:miter;stroke:rgb(0%,0%,0%);stroke-opacity:1;stroke-miterlimit:10;" d="M 0.995625 28.34625 C 0.995625 28.897031 0.550312 29.342344 -0.00046875 29.342344 C -0.55125 29.342344 -0.996563 28.897031 -0.996563 28.34625 C -0.996563 27.795469 -0.55125 27.350156 -0.00046875 27.350156 C 0.550312 27.350156 0.995625 27.795469 0.995625 28.34625 Z M 0.995625 28.34625 " transform="matrix(1,0,0,-1,1.52,114.19)"/>
<path style="fill:none;stroke-width:0.3985;stroke-linecap:butt;stroke-linejoin:miter;stroke:rgb(0%,0%,0%);stroke-opacity:1;stroke-miterlimit:10;" d="M 56.694844 -0.00140625 L -0.00046875 56.693906 " transform="matrix(1,0,0,-1,1.52,114.19)"/>
<path style="fill-rule:nonzero;fill:rgb(0%,0%,0%);fill-opacity:1;stroke-width:0.3985;stroke-linecap:butt;stroke-linejoin:miter;stroke:rgb(0%,0%,0%);stroke-opacity:1;stroke-miterlimit:10;" d="M 57.690937 -0.00140625 C 57.690937 0.549375 57.245625 0.994687 56.694844 0.994687 C 56.144062 0.994687 55.69875 0.549375 55.69875 -0.00140625 C 55.69875 -0.548281 56.144062 -0.9975 56.694844 -0.9975 C 57.245625 -0.9975 57.690937 -0.548281 57.690937 -0.00140625 Z M 57.690937 -0.00140625 " transform="matrix(1,0,0,-1,1.52,114.19)"/>
<path style="fill-rule:nonzero;fill:rgb(0%,0%,0%);fill-opacity:1;stroke-width:0.3985;stroke-linecap:butt;stroke-linejoin:miter;stroke:rgb(0%,0%,0%);stroke-opacity:1;stroke-miterlimit:10;" d="M 0.995625 56.693906 C 0.995625 57.244687 0.550312 57.69 -0.00046875 57.69 C -0.55125 57.69 -0.996563 57.244687 -0.996563 56.693906 C -0.996563 56.143125 -0.55125 55.697812 -0.00046875 55.697812 C 0.550312 55.697812 0.995625 56.143125 0.995625 56.693906 Z M 0.995625 56.693906 " transform="matrix(1,0,0,-1,1.52,114.19)"/>
<path style="fill:none;stroke-width:0.3985;stroke-linecap:butt;stroke-linejoin:miter;stroke:rgb(0%,0%,0%);stroke-opacity:1;stroke-miterlimit:10;" d="M 56.694844 -0.00140625 L -0.00046875 85.041562 " transform="matrix(1,0,0,-1,1.52,114.19)"/>
<path style="fill-rule:nonzero;fill:rgb(0%,0%,0%);fill-opacity:1;stroke-width:0.3985;stroke-linecap:butt;stroke-linejoin:miter;stroke:rgb(0%,0%,0%);stroke-opacity:1;stroke-miterlimit:10;" d="M 57.690937 -0.00140625 C 57.690937 0.549375 57.245625 0.994687 56.694844 0.994687 C 56.144062 0.994687 55.69875 0.549375 55.69875 -0.00140625 C 55.69875 -0.548281 56.144062 -0.9975 56.694844 -0.9975 C 57.245625 -0.9975 57.690937 -0.548281 57.690937 -0.00140625 Z M 57.690937 -0.00140625 " transform="matrix(1,0,0,-1,1.52,114.19)"/>
<path style="fill-rule:nonzero;fill:rgb(0%,0%,0%);fill-opacity:1;stroke-width:0.3985;stroke-linecap:butt;stroke-linejoin:miter;stroke:rgb(0%,0%,0%);stroke-opacity:1;stroke-miterlimit:10;" d="M 0.995625 85.041562 C 0.995625 85.592344 0.550312 86.037656 -0.00046875 86.037656 C -0.55125 86.037656 -0.996563 85.592344 -0.996563 85.041562 C -0.996563 84.490781 -0.55125 84.045469 -0.00046875 84.045469 C 0.550312 84.045469 0.995625 84.490781 0.995625 85.041562 Z M 0.995625 85.041562 " transform="matrix(1,0,0,-1,1.52,114.19)"/>
<path style="fill:none;stroke-width:0.3985;stroke-linecap:butt;stroke-linejoin:miter;stroke:rgb(0%,0%,0%);stroke-opacity:1;stroke-miterlimit:10;" d="M 85.038594 -0.00140625 L -0.00046875 28.34625 " transform="matrix(1,0,0,-1,1.52,114.19)"/>
<path style="fill-rule:nonzero;fill:rgb(0%,0%,0%);fill-opacity:1;stroke-width:0.3985;stroke-linecap:butt;stroke-linejoin:miter;stroke:rgb(0%,0%,0%);stroke-opacity:1;stroke-miterlimit:10;" d="M 86.038594 -0.00140625 C 86.038594 0.549375 85.589375 0.994687 85.038594 0.994687 C 84.491719 0.994687 84.0425 0.549375 84.0425 -0.00140625 C 84.0425 -0.548281 84.491719 -0.9975 85.038594 -0.9975 C 85.589375 -0.9975 86.038594 -0.548281 86.038594 -0.00140625 Z M 86.038594 -0.00140625 " transform="matrix(1,0,0,-1,1.52,114.19)"/>
<path style="fill-rule:nonzero;fill:rgb(0%,0%,0%);fill-opacity:1;stroke-width:0.3985;stroke-linecap:butt;stroke-linejoin:miter;stroke:rgb(0%,0%,0%);stroke-opacity:1;stroke-miterlimit:10;" d="M 0.995625 28.34625 C 0.995625 28.897031 0.550312 29.342344 -0.00046875 29.342344 C -0.55125 29.342344 -0.996563 28.897031 -0.996563 28.34625 C -0.996563 27.795469 -0.55125 27.350156 -0.00046875 27.350156 C 0.550312 27.350156 0.995625 27.795469 0.995625 28.34625 Z M 0.995625 28.34625 " transform="matrix(1,0,0,-1,1.52,114.19)"/>
<path style="fill:none;stroke-width:0.3985;stroke-linecap:butt;stroke-linejoin:miter;stroke:rgb(0%,0%,0%);stroke-opacity:1;stroke-miterlimit:10;" d="M 85.038594 -0.00140625 L -0.00046875 56.693906 " transform="matrix(1,0,0,-1,1.52,114.19)"/>
<path style="fill-rule:nonzero;fill:rgb(0%,0%,0%);fill-opacity:1;stroke-width:0.3985;stroke-linecap:butt;stroke-linejoin:miter;stroke:rgb(0%,0%,0%);stroke-opacity:1;stroke-miterlimit:10;" d="M 86.038594 -0.00140625 C 86.038594 0.549375 85.589375 0.994687 85.038594 0.994687 C 84.491719 0.994687 84.0425 0.549375 84.0425 -0.00140625 C 84.0425 -0.548281 84.491719 -0.9975 85.038594 -0.9975 C 85.589375 -0.9975 86.038594 -0.548281 86.038594 -0.00140625 Z M 86.038594 -0.00140625 " transform="matrix(1,0,0,-1,1.52,114.19)"/>
<path style="fill-rule:nonzero;fill:rgb(0%,0%,0%);fill-opacity:1;stroke-width:0.3985;stroke-linecap:butt;stroke-linejoin:miter;stroke:rgb(0%,0%,0%);stroke-opacity:1;stroke-miterlimit:10;" d="M 0.995625 56.693906 C 0.995625 57.244687 0.550312 57.69 -0.00046875 57.69 C -0.55125 57.69 -0.996563 57.244687 -0.996563 56.693906 C -0.996563 56.143125 -0.55125 55.697812 -0.00046875 55.697812 C 0.550312 55.697812 0.995625 56.143125 0.995625 56.693906 Z M 0.995625 56.693906 " transform="matrix(1,0,0,-1,1.52,114.19)"/>
<path style="fill:none;stroke-width:0.3985;stroke-linecap:butt;stroke-linejoin:miter;stroke:rgb(0%,0%,0%);stroke-opacity:1;stroke-miterlimit:10;" d="M 85.038594 -0.00140625 L -0.00046875 85.041562 " transform="matrix(1,0,0,-1,1.52,114.19)"/>
<path style="fill-rule:nonzero;fill:rgb(0%,0%,0%);fill-opacity:1;stroke-width:0.3985;stroke-linecap:butt;stroke-linejoin:miter;stroke:rgb(0%,0%,0%);stroke-opacity:1;stroke-miterlimit:10;" d="M 86.038594 -0.00140625 C 86.038594 0.549375 85.589375 0.994687 85.038594 0.994687 C 84.491719 0.994687 84.0425 0.549375 84.0425 -0.00140625 C 84.0425 -0.548281 84.491719 -0.9975 85.038594 -0.9975 C 85.589375 -0.9975 86.038594 -0.548281 86.038594 -0.00140625 Z M 86.038594 -0.00140625 " transform="matrix(1,0,0,-1,1.52,114.19)"/>
<path style="fill-rule:nonzero;fill:rgb(0%,0%,0%);fill-opacity:1;stroke-width:0.3985;stroke-linecap:butt;stroke-linejoin:miter;stroke:rgb(0%,0%,0%);stroke-opacity:1;stroke-miterlimit:10;" d="M 0.995625 85.041562 C 0.995625 85.592344 0.550312 86.037656 -0.00046875 86.037656 C -0.55125 86.037656 -0.996563 85.592344 -0.996563 85.041562 C -0.996563 84.490781 -0.55125 84.045469 -0.00046875 84.045469 C 0.550312 84.045469 0.995625 84.490781 0.995625 85.041562 Z M 0.995625 85.041562 " transform="matrix(1,0,0,-1,1.52,114.19)"/>
<path style="fill:none;stroke-width:0.3985;stroke-linecap:butt;stroke-linejoin:miter;stroke:rgb(0%,0%,0%);stroke-opacity:1;stroke-miterlimit:10;" d="M 113.38625 -0.00140625 L -0.00046875 28.34625 " transform="matrix(1,0,0,-1,1.52,114.19)"/>
<path style="fill-rule:nonzero;fill:rgb(0%,0%,0%);fill-opacity:1;stroke-width:0.3985;stroke-linecap:butt;stroke-linejoin:miter;stroke:rgb(0%,0%,0%);stroke-opacity:1;stroke-miterlimit:10;" d="M 114.382344 -0.00140625 C 114.382344 0.549375 113.937031 0.994687 113.38625 0.994687 C 112.835469 0.994687 112.390156 0.549375 112.390156 -0.00140625 C 112.390156 -0.548281 112.835469 -0.9975 113.38625 -0.9975 C 113.937031 -0.9975 114.382344 -0.548281 114.382344 -0.00140625 Z M 114.382344 -0.00140625 " transform="matrix(1,0,0,-1,1.52,114.19)"/>
<path style="fill-rule:nonzero;fill:rgb(0%,0%,0%);fill-opacity:1;stroke-width:0.3985;stroke-linecap:butt;stroke-linejoin:miter;stroke:rgb(0%,0%,0%);stroke-opacity:1;stroke-miterlimit:10;" d="M 0.995625 28.34625 C 0.995625 28.897031 0.550312 29.342344 -0.00046875 29.342344 C -0.55125 29.342344 -0.996563 28.897031 -0.996563 28.34625 C -0.996563 27.795469 -0.55125 27.350156 -0.00046875 27.350156 C 0.550312 27.350156 0.995625 27.795469 0.995625 28.34625 Z M 0.995625 28.34625 " transform="matrix(1,0,0,-1,1.52,114.19)"/>
<path style="fill:none;stroke-width:0.3985;stroke-linecap:butt;stroke-linejoin:miter;stroke:rgb(0%,0%,0%);stroke-opacity:1;stroke-miterlimit:10;" d="M 113.38625 -0.00140625 L -0.00046875 56.693906 " transform="matrix(1,0,0,-1,1.52,114.19)"/>
<path style="fill-rule:nonzero;fill:rgb(0%,0%,0%);fill-opacity:1;stroke-width:0.3985;stroke-linecap:butt;stroke-linejoin:miter;stroke:rgb(0%,0%,0%);stroke-opacity:1;stroke-miterlimit:10;" d="M 114.382344 -0.00140625 C 114.382344 0.549375 113.937031 0.994687 113.38625 0.994687 C 112.835469 0.994687 112.390156 0.549375 112.390156 -0.00140625 C 112.390156 -0.548281 112.835469 -0.9975 113.38625 -0.9975 C 113.937031 -0.9975 114.382344 -0.548281 114.382344 -0.00140625 Z M 114.382344 -0.00140625 " transform="matrix(1,0,0,-1,1.52,114.19)"/>
<path style="fill-rule:nonzero;fill:rgb(0%,0%,0%);fill-opacity:1;stroke-width:0.3985;stroke-linecap:butt;stroke-linejoin:miter;stroke:rgb(0%,0%,0%);stroke-opacity:1;stroke-miterlimit:10;" d="M 0.995625 56.693906 C 0.995625 57.244687 0.550312 57.69 -0.00046875 57.69 C -0.55125 57.69 -0.996563 57.244687 -0.996563 56.693906 C -0.996563 56.143125 -0.55125 55.697812 -0.00046875 55.697812 C 0.550312 55.697812 0.995625 56.143125 0.995625 56.693906 Z M 0.995625 56.693906 " transform="matrix(1,0,0,-1,1.52,114.19)"/>
<path style="fill:none;stroke-width:0.3985;stroke-linecap:butt;stroke-linejoin:miter;stroke:rgb(0%,0%,0%);stroke-opacity:1;stroke-miterlimit:10;" d="M 113.38625 -0.00140625 L -0.00046875 85.041562 " transform="matrix(1,0,0,-1,1.52,114.19)"/>
<path style="fill-rule:nonzero;fill:rgb(0%,0%,0%);fill-opacity:1;stroke-width:0.3985;stroke-linecap:butt;stroke-linejoin:miter;stroke:rgb(0%,0%,0%);stroke-opacity:1;stroke-miterlimit:10;" d="M 114.382344 -0.00140625 C 114.382344 0.549375 113.937031 0.994687 113.38625 0.994687 C 112.835469 0.994687 112.390156 0.549375 112.390156 -0.00140625 C 112.390156 -0.548281 112.835469 -0.9975 113.38625 -0.9975 C 113.937031 -0.9975 114.382344 -0.548281 114.382344 -0.00140625 Z M 114.382344 -0.00140625 " transform="matrix(1,0,0,-1,1.52,114.19)"/>
<path style="fill-rule:nonzero;fill:rgb(0%,0%,0%);fill-opacity:1;stroke-width:0.3985;stroke-linecap:butt;stroke-linejoin:miter;stroke:rgb(0%,0%,0%);stroke-opacity:1;stroke-miterlimit:10;" d="M 0.995625 85.041562 C 0.995625 85.592344 0.550312 86.037656 -0.00046875 86.037656 C -0.55125 86.037656 -0.996563 85.592344 -0.996563 85.041562 C -0.996563 84.490781 -0.55125 84.045469 -0.00046875 84.045469 C 0.550312 84.045469 0.995625 84.490781 0.995625 85.041562 Z M 0.995625 85.041562 " transform="matrix(1,0,0,-1,1.52,114.19)"/>
</g>
</svg>
