<?xml version="1.0" encoding="UTF-8"?>
<svg xmlns="http://www.w3.org/2000/svg" xmlns:xlink="http://www.w3.org/1999/xlink" width="76pt" height="62pt" viewBox="0 0 76 62" version="1.1">
<g id="surface1">
<path style="fill:none;stroke-width:0.3985;stroke-linecap:butt;stroke-linejoin:miter;stroke:rgb(0%,0%,0%);stroke-opacity:1;stroke-miterlimit:10;" d="M 0.00021875 0.00065625 L -28.347437 28.348312 L -42.519312 56.692062 M -28.347437 28.348312 L -14.171656 56.692062 M 0.00021875 0.00065625 L 28.347875 28.348312 " transform="matrix(1,0,0,-1,45.199,59.653)"/>
<path style=" stroke:none;fill-rule:nonzero;fill:rgb(0%,0%,0%);fill-opacity:1;" d="M 47.191406 59.652344 C 47.191406 58.550781 46.300781 57.660156 45.199219 57.660156 C 44.097656 57.660156 43.207031 58.550781 43.207031 59.652344 C 43.207031 60.753906 44.097656 61.644531 45.199219 61.644531 C 46.300781 61.644531 47.191406 60.753906 47.191406 59.652344 Z M 47.191406 59.652344 "/>
<path style=" stroke:none;fill-rule:nonzero;fill:rgb(0%,0%,0%);fill-opacity:1;" d="M 18.84375 31.304688 C 18.84375 30.207031 17.953125 29.3125 16.851562 29.3125 C 15.75 29.3125 14.859375 30.207031 14.859375 31.304688 C 14.859375 32.40625 15.75 33.296875 16.851562 33.296875 C 17.953125 33.296875 18.84375 32.40625 18.84375 31.304688 Z M 18.84375 31.304688 "/>
<path style=" stroke:none;fill-rule:nonzero;fill:rgb(0%,0%,0%);fill-opacity:1;" d="M 4.671875 2.960938 C 4.671875 1.859375 3.777344 0.96875 2.679688 0.96875 C 1.578125 0.96875 0.6875 1.859375 0.6875 2.960938 C 0.6875 4.058594 1.578125 4.953125 2.679688 4.953125 C 3.777344 4.953125 4.671875 4.058594 4.671875 2.960938 Z M 4.671875 2.960938 "/>
<path style=" stroke:none;fill-rule:nonzero;fill:rgb(0%,0%,0%);fill-opacity:1;" d="M 33.019531 2.960938 C 33.019531 1.859375 32.125 0.96875 31.027344 0.96875 C 29.925781 0.96875 29.03125 1.859375 29.03125 2.960938 C 29.03125 4.058594 29.925781 4.953125 31.027344 4.953125 C 32.125 4.953125 33.019531 4.058594 33.019531 2.960938 Z M 33.019531 2.960938 "/>
<path style=" stroke:none;fill-rule:nonzero;fill:rgb(0%,0%,0%);fill-opacity:1;" d="M 75.539062 31.304688 C 75.539062 30.207031 74.644531 29.3125 73.546875 29.3125 C 72.445312 29.3125 71.554688 30.207031 71.554688 31.304688 C 71.554688 32.40625 72.445312 33.296875 73.546875 33.296875 C 74.644531 33.296875 75.539062 32.40625 75.539062 31.304688 Z M 75.539062 31.304688 "/>
</g>
</svg>
