<?xml version="1.0" encoding="UTF-8"?>
<svg xmlns="http://www.w3.org/2000/svg" xmlns:xlink="http://www.w3.org/1999/xlink" width="175pt" height="176pt" viewBox="0 0 175 176" version="1.1">
<g id="surface1">
<path style="fill:none;stroke-width:0.3985;stroke-linecap:butt;stroke-linejoin:miter;stroke:rgb(0%,0%,0%);stroke-opacity:1;stroke-miterlimit:10;" d="M 1.993906 -0.00109375 C 1.993906 1.100469 1.099375 1.991094 0.00171875 1.991094 C -1.099844 1.991094 -1.994375 1.100469 -1.994375 -0.00109375 C -1.994375 -1.09875 -1.099844 -1.993281 0.00171875 -1.993281 C 1.099375 -1.993281 1.993906 -1.09875 1.993906 -0.00109375 Z M 1.993906 -0.00109375 " transform="matrix(1,0,0,-1,2.51,172.87)"/>
<path style="fill:none;stroke-width:0.3985;stroke-linecap:butt;stroke-linejoin:miter;stroke:rgb(0%,0%,0%);stroke-opacity:1;stroke-miterlimit:10;" d="M 30.337656 -0.00109375 C 30.337656 1.100469 29.447031 1.991094 28.345469 1.991094 C 27.247813 1.991094 26.353281 1.100469 26.353281 -0.00109375 C 26.353281 -1.09875 27.247813 -1.993281 28.345469 -1.993281 C 29.447031 -1.993281 30.337656 -1.09875 30.337656 -0.00109375 Z M 30.337656 -0.00109375 " transform="matrix(1,0,0,-1,2.51,172.87)"/>
<path style="fill:none;stroke-width:0.3985;stroke-linecap:butt;stroke-linejoin:miter;stroke:rgb(0%,0%,0%);stroke-opacity:1;stroke-miterlimit:10;" d="M 30.337656 28.346563 C 30.337656 29.448125 29.447031 30.33875 28.345469 30.33875 C 27.247813 30.33875 26.353281 29.448125 26.353281 28.346563 C 26.353281 27.245 27.247813 26.354375 28.345469 26.354375 C 29.447031 26.354375 30.337656 27.245 30.337656 28.346563 Z M 30.337656 28.346563 " transform="matrix(1,0,0,-1,2.51,172.87)"/>
<path style="fill:none;stroke-width:0.3985;stroke-linecap:butt;stroke-linejoin:miter;stroke:rgb(0%,0%,0%);stroke-opacity:1;stroke-miterlimit:10;" d="M 58.685313 -0.00109375 C 58.685313 1.100469 57.794688 1.991094 56.693125 1.991094 C 55.591563 1.991094 54.700938 1.100469 54.700938 -0.00109375 C 54.700938 -1.09875 55.591563 -1.993281 56.693125 -1.993281 C 57.794688 -1.993281 58.685313 -1.09875 58.685313 -0.00109375 Z M 58.685313 -0.00109375 " transform="matrix(1,0,0,-1,2.51,172.87)"/>
<path style="fill:none;stroke-width:0.3985;stroke-linecap:butt;stroke-linejoin:miter;stroke:rgb(0%,0%,0%);stroke-opacity:1;stroke-miterlimit:10;" d="M 58.685313 28.346563 C 58.685313 29.448125 57.794688 30.33875 56.693125 30.33875 C 55.591563 30.33875 54.700938 29.448125 54.700938 28.346563 C 54.700938 27.245 55.591563 26.354375 56.693125 26.354375 C 57.794688 26.354375 58.685313 27.245 58.685313 28.346563 Z M 58.685313 28.346563 " transform="matrix(1,0,0,-1,2.51,172.87)"/>
<path style="fill:none;stroke-width:0.3985;stroke-linecap:butt;stroke-linejoin:miter;stroke:rgb(0%,0%,0%);stroke-opacity:1;stroke-miterlimit:10;" d="M 58.685313 56.694219 C 58.685313 57.795781 57.794688 58.686406 56.693125 58.686406 C 55.591563 58.686406 54.700938 57.795781 54.700938 56.694219 C 54.700938 55.592656 55.591563 54.702031 56.693125 54.702031 C 57.794688 54.702031 58.685313 55.592656 58.685313 56.694219 Z M 58.685313 56.694219 " transform="matrix(1,0,0,-1,2.51,172.87)"/>
<path style="fill:none;stroke-width:0.3985;stroke-linecap:butt;stroke-linejoin:miter;stroke:rgb(0%,0%,0%);stroke-opacity:1;stroke-miterlimit:10;" d="M 87.032969 -0.00109375 C 87.032969 1.100469 86.142344 1.991094 85.040781 1.991094 C 83.939219 1.991094 83.048594 1.100469 83.048594 -0.00109375 C 83.048594 -1.09875 83.939219 -1.993281 85.040781 -1.993281 C 86.142344 -1.993281 87.032969 -1.09875 87.032969 -0.00109375 Z M 87.032969 -0.00109375 " transform="matrix(1,0,0,-1,2.51,172.87)"/>
<path style="fill:none;stroke-width:0.3985;stroke-linecap:butt;stroke-linejoin:miter;stroke:rgb(0%,0%,0%);stroke-opacity:1;stroke-miterlimit:10;" d="M 87.032969 28.346563 C 87.032969 29.448125 86.142344 30.33875 85.040781 30.33875 C 83.939219 30.33875 83.048594 29.448125 83.048594 28.346563 C 83.048594 27.245 83.939219 26.354375 85.040781 26.354375 C 86.142344 26.354375 87.032969 27.245 87.032969 28.346563 Z M 87.032969 28.346563 " transform="matrix(1,0,0,-1,2.51,172.87)"/>
<path style="fill:none;stroke-width:0.3985;stroke-linecap:butt;stroke-linejoin:miter;stroke:rgb(0%,0%,0%);stroke-opacity:1;stroke-miterlimit:10;" d="M 87.032969 56.694219 C 87.032969 57.795781 86.142344 58.686406 85.040781 58.686406 C 83.939219 58.686406 83.048594 57.795781 83.048594 56.694219 C 83.048594 55.592656 83.939219 54.702031 85.040781 54.702031 C 86.142344 54.702031 87.032969 55.592656 87.032969 56.694219 Z M 87.032969 56.694219 " transform="matrix(1,0,0,-1,2.51,172.87)"/>
<path style="fill:none;stroke-width:0.3985;stroke-linecap:butt;stroke-linejoin:miter;stroke:rgb(0%,0%,0%);stroke-opacity:1;stroke-miterlimit:10;" d="M 87.032969 85.041875 C 87.032969 86.139531 86.142344 87.034063 85.040781 87.034063 C 83.939219 87.034063 83.048594 86.139531 83.048594 85.041875 C 83.048594 83.940313 83.939219 83.049688 85.040781 83.049688 C 86.142344 83.049688 87.032969 83.940313 87.032969 85.041875 Z M 87.032969 85.041875 " transform="matrix(1,0,0,-1,2.51,172.87)"/>
<path style="fill:none;stroke-width:0.3985;stroke-linecap:butt;stroke-linejoin:miter;stroke:rgb(0%,0%,0%);stroke-opacity:1;stroke-miterlimit:10;" d="M 115.380625 -0.00109375 C 115.380625 1.100469 114.486094 1.991094 113.388438 1.991094 C 112.286875 1.991094 111.39625 1.100469 111.39625 -0.00109375 C 111.39625 -1.09875 112.286875 -1.993281 113.388438 -1.993281 C 114.486094 -1.993281 115.380625 -1.09875 115.380625 -0.00109375 Z M 115.380625 -0.00109375 " transform="matrix(1,0,0,-1,2.51,172.87)"/>
<path style="fill:none;stroke-width:0.3985;stroke-linecap:butt;stroke-linejoin:miter;stroke:rgb(0%,0%,0%);stroke-opacity:1;stroke-miterlimit:10;" d="M 115.380625 28.346563 C 115.380625 29.448125 114.486094 30.33875 113.388438 30.33875 C 112.286875 30.33875 111.39625 29.448125 111.39625 28.346563 C 111.39625 27.245 112.286875 26.354375 113.388438 26.354375 C 114.486094 26.354375 115.380625 27.245 115.380625 28.346563 Z M 115.380625 28.346563 " transform="matrix(1,0,0,-1,2.51,172.87)"/>
<path style="fill:none;stroke-width:0.3985;stroke-linecap:butt;stroke-linejoin:miter;stroke:rgb(0%,0%,0%);stroke-opacity:1;stroke-miterlimit:10;" d="M 115.380625 56.694219 C 115.380625 57.795781 114.486094 58.686406 113.388438 58.686406 C 112.286875 58.686406 111.39625 57.795781 111.39625 56.694219 C 111.39625 55.592656 112.286875 54.702031 113.388438 54.702031 C 114.486094 54.702031 115.380625 55.592656 115.380625 56.694219 Z M 115.380625 56.694219 " transform="matrix(1,0,0,-1,2.51,172.87)"/>
<path style="fill:none;stroke-width:0.3985;stroke-linecap:butt;stroke-linejoin:miter;stroke:rgb(0%,0%,0%);stroke-opacity:1;stroke-miterlimit:10;" d="M 115.380625 85.041875 C 115.380625 86.139531 114.486094 87.034063 113.388438 87.034063 C 112.286875 87.034063 111.39625 86.139531 111.39625 85.041875 C 111.39625 83.940313 112.286875 83.049688 113.388438 83.049688 C 114.486094 83.049688 115.380625 83.940313 115.380625 85.041875 Z M 115.380625 85.041875 " transform="matrix(1,0,0,-1,2.51,172.87)"/>
<path style="fill:none;stroke-width:0.3985;stroke-linecap:butt;stroke-linejoin:miter;stroke:rgb(0%,0%,0%);stroke-opacity:1;stroke-miterlimit:10;" d="M 115.380625 113.385625 C 115.380625 114.487188 114.486094 115.381719 113.388438 115.381719 C 112.286875 115.381719 111.39625 114.487188 111.39625 113.385625 C 111.39625 112.287969 112.286875 111.393438 113.388438 111.393438 C 114.486094 111.393438 115.380625 112.287969 115.380625 113.385625 Z M 115.380625 113.385625 " transform="matrix(1,0,0,-1,2.51,172.87)"/>
<path style="fill:none;stroke-width:0.3985;stroke-linecap:butt;stroke-linejoin:miter;stroke:rgb(0%,0%,0%);stroke-opacity:1;stroke-miterlimit:10;" d="M 143.728281 -0.00109375 C 143.728281 1.100469 142.83375 1.991094 141.732188 1.991094 C 140.634531 1.991094 139.74 1.100469 139.74 -0.00109375 C 139.74 -1.09875 140.634531 -1.993281 141.732188 -1.993281 C 142.83375 -1.993281 143.728281 -1.09875 143.728281 -0.00109375 Z M 143.728281 -0.00109375 " transform="matrix(1,0,0,-1,2.51,172.87)"/>
<path style="fill:none;stroke-width:0.3985;stroke-linecap:butt;stroke-linejoin:miter;stroke:rgb(0%,0%,0%);stroke-opacity:1;stroke-miterlimit:10;" d="M 143.728281 28.346563 C 143.728281 29.448125 142.83375 30.33875 141.732188 30.33875 C 140.634531 30.33875 139.74 29.448125 139.74 28.346563 C 139.74 27.245 140.634531 26.354375 141.732188 26.354375 C 142.83375 26.354375 143.728281 27.245 143.728281 28.346563 Z M 143.728281 28.346563 " transform="matrix(1,0,0,-1,2.51,172.87)"/>
<path style="fill:none;stroke-width:0.3985;stroke-linecap:butt;stroke-linejoin:miter;stroke:rgb(0%,0%,0%);stroke-opacity:1;stroke-miterlimit:10;" d="M 143.728281 56.694219 C 143.728281 57.795781 142.83375 58.686406 141.732188 58.686406 C 140.634531 58.686406 139.74 57.795781 139.74 56.694219 C 139.74 55.592656 140.634531 54.702031 141.732188 54.702031 C 142.83375 54.702031 143.728281 55.592656 143.728281 56.694219 Z M 143.728281 56.694219 " transform="matrix(1,0,0,-1,2.51,172.87)"/>
<path style="fill:none;stroke-width:0.3985;stroke-linecap:butt;stroke-linejoin:miter;stroke:rgb(0%,0%,0%);stroke-opacity:1;stroke-miterlimit:10;" d="M 143.728281 85.041875 C 143.728281 86.139531 142.83375 87.034063 141.732188 87.034063 C 140.634531 87.034063 139.74 86.139531 139.74 85.041875 C 139.74 83.940313 140.634531 83.049688 141.732188 83.049688 C 142.83375 83.049688 143.728281 83.940313 143.728281 85.041875 Z M 143.728281 85.041875 " transform="matrix(1,0,0,-1,2.51,172.87)"/>
<path style="fill:none;stroke-width:0.3985;stroke-linecap:butt;stroke-linejoin:miter;stroke:rgb(0%,0%,0%);stroke-opacity:1;stroke-miterlimit:10;" d="M 143.728281 113.385625 C 143.728281 114.487188 142.83375 115.381719 141.732188 115.381719 C 140.634531 115.381719 139.74 114.487188 139.74 113.385625 C 139.74 112.287969 140.634531 111.393438 141.732188 111.393438 C 142.83375 111.393438 143.728281 112.287969 143.728281 113.385625 Z M 143.728281 113.385625 " transform="matrix(1,0,0,-1,2.51,172.87)"/>
<path style="fill:none;stroke-width:0.3985;stroke-linecap:butt;stroke-linejoin:miter;stroke:rgb(0%,0%,0%);stroke-opacity:1;stroke-miterlimit:10;" d="M 143.728281 141.733281 C 143.728281 142.834844 142.83375 143.725469 141.732188 143.725469 C 140.634531 143.725469 139.74 142.834844 139.74 141.733281 C 139.74 140.631719 140.634531 139.741094 141.732188 139.741094 C 142.83375 139.741094 143.728281 140.631719 143.728281 141.733281 Z M 143.728281 141.733281 " transform="matrix(1,0,0,-1,2.51,172.87)"/>
<path style="fill:none;stroke-width:0.3985;stroke-linecap:butt;stroke-linejoin:miter;stroke:rgb(0%,0%,0%);stroke-opacity:1;stroke-miterlimit:10;" d="M 172.072031 -0.00109375 C 172.072031 1.100469 171.181406 1.991094 170.079844 1.991094 C 168.982188 1.991094 168.087656 1.100469 168.087656 -0.00109375 C 168.087656 -1.09875 168.982188 -1.993281 170.079844 -1.993281 C 171.181406 -1.993281 172.072031 -1.09875 172.072031 -0.00109375 Z M 172.072031 -0.00109375 " transform="matrix(1,0,0,-1,2.51,172.87)"/>
<path style="fill:none;stroke-width:0.3985;stroke-linecap:butt;stroke-linejoin:miter;stroke:rgb(0%,0%,0%);stroke-opacity:1;stroke-miterlimit:10;" d="M 172.072031 28.346563 C 172.072031 29.448125 171.181406 30.33875 170.079844 30.33875 C 168.982188 30.33875 168.087656 29.448125 168.087656 28.346563 C 168.087656 27.245 168.982188 26.354375 170.079844 26.354375 C 171.181406 26.354375 172.072031 27.245 172.072031 28.346563 Z M 172.072031 28.346563 " transform="matrix(1,0,0,-1,2.51,172.87)"/>
<path style="fill:none;stroke-width:0.3985;stroke-linecap:butt;stroke-linejoin:miter;stroke:rgb(0%,0%,0%);stroke-opacity:1;stroke-miterlimit:10;" d="M 172.072031 56.694219 C 172.072031 57.795781 171.181406 58.686406 170.079844 58.686406 C 168.982188 58.686406 168.087656 57.795781 168.087656 56.694219 C 168.087656 55.592656 168.982188 54.702031 170.079844 54.702031 C 171.181406 54.702031 172.072031 55.592656 172.072031 56.694219 Z M 172.072031 56.694219 " transform="matrix(1,0,0,-1,2.51,172.87)"/>
<path style="fill:none;stroke-width:0.3985;stroke-linecap:butt;stroke-linejoin:miter;stroke:rgb(0%,0%,0%);stroke-opacity:1;stroke-miterlimit:10;" d="M 172.072031 85.041875 C 172.072031 86.139531 171.181406 87.034063 170.079844 87.034063 C 168.982188 87.034063 168.087656 86.139531 168.087656 85.041875 C 168.087656 83.940313 168.982188 83.049688 170.079844 83.049688 C 171.181406 83.049688 172.072031 83.940313 172.072031 85.041875 Z M 172.072031 85.041875 " transform="matrix(1,0,0,-1,2.51,172.87)"/>
<path style="fill:none;stroke-width:0.3985;stroke-linecap:butt;stroke-linejoin:miter;stroke:rgb(0%,0%,0%);stroke-opacity:1;stroke-miterlimit:10;" d="M 172.072031 113.385625 C 172.072031 114.487188 171.181406 115.381719 170.079844 115.381719 C 168.982188 115.381719 168.087656 114.487188 168.087656 113.385625 C 168.087656 112.287969 168.982188 111.393438 170.079844 111.393438 C 171.181406 111.393438 172.072031 112.287969 172.072031 113.385625 Z M 172.072031 113.385625 " transform="matrix(1,0,0,-1,2.51,172.87)"/>
<path style="fill:none;stroke-width:0.3985;stroke-linecap:butt;stroke-linejoin:miter;stroke:rgb(0%,0%,0%);stroke-opacity:1;stroke-miterlimit:10;" d="M 172.072031 141.733281 C 172.072031 142.834844 171.181406 143.725469 170.079844 143.725469 C 168.982188 143.725469 168.087656 142.834844 168.087656 141.733281 C 168.087656 140.631719 168.982188 139.741094 170.079844 139.741094 C 171.181406 139.741094 172.072031 140.631719 172.072031 141.733281 Z M 172.072031 141.733281 " transform="matrix(1,0,0,-1,2.51,172.87)"/>
<path style="fill:none;stroke-width:0.3985;stroke-linecap:butt;stroke-linejoin:miter;stroke:rgb(0%,0%,0%);stroke-opacity:1;stroke-miterlimit:10;" d="M 172.072031 170.080938 C 172.072031 171.1825 171.181406 172.073125 170.079844 172.073125 C 168.982188 172.073125 168.087656 171.1825 168.087656 170.080938 C 168.087656 168.979375 168.982188 168.08875 170.079844 168.08875 C 171.181406 168.08875 172.072031 168.979375 172.072031 170.080938 Z M 172.072031 170.080938 " transform="matrix(1,0,0,-1,2.51,172.87)"/>
<path style="fill:none;stroke-width:0.3985;stroke-linecap:butt;stroke-linejoin:miter;stroke:rgb(0%,0%,0%);stroke-opacity:1;stroke-dasharray:2.98883,2.98883;stroke-miterlimit:10;" d="M 42.52125 -0.00109375 L 42.52125 70.866094 L 170.079844 70.866094 " transform="matrix(1,0,0,-1,2.51,172.87)"/>
</g>
</svg>
