<?xml version="1.0" encoding="UTF-8"?>
<svg xmlns="http://www.w3.org/2000/svg" xmlns:xlink="http://www.w3.org/1999/xlink" width="62pt" height="54pt" viewBox="0 0 62 54" version="1.1">
<g id="surface1">
<path style="fill:none;stroke-width:0.79701;stroke-linecap:butt;stroke-linejoin:miter;stroke:rgb(0%,0%,0%);stroke-opacity:1;stroke-miterlimit:10;" d="M 28.345094 0.00175 L 14.173219 24.548625 " transform="matrix(1,0,0,-1,31.026,26.908)"/>
<path style=" stroke:none;fill-rule:nonzero;fill:rgb(0%,0%,0%);fill-opacity:1;" d="M 61.367188 26.90625 C 61.367188 25.808594 60.472656 24.914062 59.371094 24.914062 C 58.273438 24.914062 57.378906 25.808594 57.378906 26.90625 C 57.378906 28.007812 58.273438 28.902344 59.371094 28.902344 C 60.472656 28.902344 61.367188 28.007812 61.367188 26.90625 Z M 61.367188 26.90625 "/>
<path style="fill:none;stroke-width:0.79701;stroke-linecap:butt;stroke-linejoin:miter;stroke:rgb(0%,0%,0%);stroke-opacity:1;stroke-miterlimit:10;" d="M 14.173219 24.548625 L -14.174437 24.548625 " transform="matrix(1,0,0,-1,31.026,26.908)"/>
<path style=" stroke:none;fill-rule:nonzero;fill:rgb(0%,0%,0%);fill-opacity:1;" d="M 47.191406 2.359375 C 47.191406 1.257812 46.300781 0.367188 45.199219 0.367188 C 44.097656 0.367188 43.207031 1.257812 43.207031 2.359375 C 43.207031 3.460938 44.097656 4.351562 45.199219 4.351562 C 46.300781 4.351562 47.191406 3.460938 47.191406 2.359375 Z M 47.191406 2.359375 "/>
<path style="fill:none;stroke-width:0.79701;stroke-linecap:butt;stroke-linejoin:miter;stroke:rgb(0%,0%,0%);stroke-opacity:1;stroke-miterlimit:10;" d="M -14.174437 24.548625 L -28.346312 0.00175 " transform="matrix(1,0,0,-1,31.026,26.908)"/>
<path style=" stroke:none;fill-rule:nonzero;fill:rgb(0%,0%,0%);fill-opacity:1;" d="M 18.84375 2.359375 C 18.84375 1.257812 17.953125 0.367188 16.851562 0.367188 C 15.753906 0.367188 14.859375 1.257812 14.859375 2.359375 C 14.859375 3.460938 15.753906 4.351562 16.851562 4.351562 C 17.953125 4.351562 18.84375 3.460938 18.84375 2.359375 Z M 18.84375 2.359375 "/>
<path style="fill:none;stroke-width:0.79701;stroke-linecap:butt;stroke-linejoin:miter;stroke:rgb(0%,0%,0%);stroke-opacity:1;stroke-miterlimit:10;" d="M -28.346312 0.00175 L -14.174437 -24.549031 " transform="matrix(1,0,0,-1,31.026,26.908)"/>
<path style=" stroke:none;fill-rule:nonzero;fill:rgb(0%,0%,0%);fill-opacity:1;" d="M 4.671875 26.90625 C 4.671875 25.808594 3.78125 24.914062 2.679688 24.914062 C 1.578125 24.914062 0.6875 25.808594 0.6875 26.90625 C 0.6875 28.007812 1.578125 28.902344 2.679688 28.902344 C 3.78125 28.902344 4.671875 28.007812 4.671875 26.90625 Z M 4.671875 26.90625 "/>
<path style="fill:none;stroke-width:0.79701;stroke-linecap:butt;stroke-linejoin:miter;stroke:rgb(0%,0%,0%);stroke-opacity:1;stroke-miterlimit:10;" d="M -14.174437 -24.549031 L 14.173219 -24.549031 " transform="matrix(1,0,0,-1,31.026,26.908)"/>
<path style=" stroke:none;fill-rule:nonzero;fill:rgb(0%,0%,0%);fill-opacity:1;" d="M 18.84375 51.457031 C 18.84375 50.355469 17.953125 49.464844 16.851562 49.464844 C 15.753906 49.464844 14.859375 50.355469 14.859375 51.457031 C 14.859375 52.558594 15.753906 53.449219 16.851562 53.449219 C 17.953125 53.449219 18.84375 52.558594 18.84375 51.457031 Z M 18.84375 51.457031 "/>
<path style="fill:none;stroke-width:0.79701;stroke-linecap:butt;stroke-linejoin:miter;stroke:rgb(0%,0%,0%);stroke-opacity:1;stroke-miterlimit:10;" d="M 14.173219 -24.549031 L 28.345094 0.00175 " transform="matrix(1,0,0,-1,31.026,26.908)"/>
<path style=" stroke:none;fill-rule:nonzero;fill:rgb(0%,0%,0%);fill-opacity:1;" d="M 47.191406 51.457031 C 47.191406 50.355469 46.300781 49.464844 45.199219 49.464844 C 44.097656 49.464844 43.207031 50.355469 43.207031 51.457031 C 43.207031 52.558594 44.097656 53.449219 45.199219 53.449219 C 46.300781 53.449219 47.191406 52.558594 47.191406 51.457031 Z M 47.191406 51.457031 "/>
<path style="fill:none;stroke-width:0.79701;stroke-linecap:butt;stroke-linejoin:miter;stroke:rgb(0%,0%,0%);stroke-opacity:1;stroke-miterlimit:10;" d="M 28.345094 0.00175 L -28.346312 0.00175 " transform="matrix(1,0,0,-1,31.026,26.908)"/>
</g>
</svg>
