<?xml version="1.0" encoding="UTF-8"?>
<svg xmlns="http://www.w3.org/2000/svg" xmlns:xlink="http://www.w3.org/1999/xlink" width="119pt" height="33pt" viewBox="0 0 119 33" version="1.1">
<g id="surface1">
<path style="fill:none;stroke-width:0.79701;stroke-linecap:butt;stroke-linejoin:miter;stroke:rgb(0%,0%,0%);stroke-opacity:1;stroke-miterlimit:10;" d="M -56.692312 0.001875 L -28.348562 0.001875 L -42.520437 28.345625 L -56.692312 0.001875 M -42.520437 28.345625 L 42.518625 28.345625 L 28.34675 0.001875 L 56.694406 0.001875 L 42.518625 28.345625 " transform="matrix(1,0,0,-1,59.372,30.705)"/>
<path style=" stroke:none;fill-rule:nonzero;fill:rgb(0%,0%,0%);fill-opacity:1;" d="M 4.671875 30.703125 C 4.671875 29.605469 3.777344 28.710938 2.679688 28.710938 C 1.578125 28.710938 0.6875 29.605469 0.6875 30.703125 C 0.6875 31.804688 1.578125 32.699219 2.679688 32.699219 C 3.777344 32.699219 4.671875 31.804688 4.671875 30.703125 Z M 4.671875 30.703125 "/>
<path style=" stroke:none;fill-rule:nonzero;fill:rgb(0%,0%,0%);fill-opacity:1;" d="M 33.019531 30.703125 C 33.019531 29.605469 32.125 28.710938 31.023438 28.710938 C 29.925781 28.710938 29.03125 29.605469 29.03125 30.703125 C 29.03125 31.804688 29.925781 32.699219 31.023438 32.699219 C 32.125 32.699219 33.019531 31.804688 33.019531 30.703125 Z M 33.019531 30.703125 "/>
<path style=" stroke:none;fill-rule:nonzero;fill:rgb(0%,0%,0%);fill-opacity:1;" d="M 18.84375 2.359375 C 18.84375 1.257812 17.953125 0.367188 16.851562 0.367188 C 15.75 0.367188 14.859375 1.257812 14.859375 2.359375 C 14.859375 3.457031 15.75 4.351562 16.851562 4.351562 C 17.953125 4.351562 18.84375 3.457031 18.84375 2.359375 Z M 18.84375 2.359375 "/>
<path style=" stroke:none;fill-rule:nonzero;fill:rgb(0%,0%,0%);fill-opacity:1;" d="M 103.882812 2.359375 C 103.882812 1.257812 102.992188 0.367188 101.890625 0.367188 C 100.792969 0.367188 99.898438 1.257812 99.898438 2.359375 C 99.898438 3.457031 100.792969 4.351562 101.890625 4.351562 C 102.992188 4.351562 103.882812 3.457031 103.882812 2.359375 Z M 103.882812 2.359375 "/>
<path style=" stroke:none;fill-rule:nonzero;fill:rgb(0%,0%,0%);fill-opacity:1;" d="M 89.710938 30.703125 C 89.710938 29.605469 88.820312 28.710938 87.71875 28.710938 C 86.617188 28.710938 85.726562 29.605469 85.726562 30.703125 C 85.726562 31.804688 86.617188 32.699219 87.71875 32.699219 C 88.820312 32.699219 89.710938 31.804688 89.710938 30.703125 Z M 89.710938 30.703125 "/>
<path style=" stroke:none;fill-rule:nonzero;fill:rgb(0%,0%,0%);fill-opacity:1;" d="M 118.058594 30.703125 C 118.058594 29.605469 117.167969 28.710938 116.066406 28.710938 C 114.964844 28.710938 114.074219 29.605469 114.074219 30.703125 C 114.074219 31.804688 114.964844 32.699219 116.066406 32.699219 C 117.167969 32.699219 118.058594 31.804688 118.058594 30.703125 Z M 118.058594 30.703125 "/>
</g>
</svg>
