<?xml version="1.0" encoding="UTF-8"?>
<svg xmlns="http://www.w3.org/2000/svg" xmlns:xlink="http://www.w3.org/1999/xlink" width="76pt" height="62pt" viewBox="0 0 76 62" version="1.1">
<g id="surface1">
<path style="fill:none;stroke-width:0.3985;stroke-linecap:butt;stroke-linejoin:miter;stroke:rgb(0%,0%,0%);stroke-opacity:1;stroke-miterlimit:10;" d="M -0.00171875 0.00171875 L -28.345469 28.345469 L -42.52125 56.693125 M -28.345469 28.345469 L -14.173594 56.693125 M -0.00171875 0.00171875 L 28.345937 28.345469 " transform="matrix(1,0,0,-1,44.74,59.49)"/>
<path style=" stroke:none;fill-rule:nonzero;fill:rgb(0%,0%,0%);fill-opacity:1;" d="M 46.734375 59.488281 C 46.734375 58.390625 45.839844 57.496094 44.738281 57.496094 C 43.640625 57.496094 42.746094 58.390625 42.746094 59.488281 C 42.746094 60.589844 43.640625 61.484375 44.738281 61.484375 C 45.839844 61.484375 46.734375 60.589844 46.734375 59.488281 Z M 46.734375 59.488281 "/>
<path style=" stroke:none;fill-rule:nonzero;fill:rgb(0%,0%,0%);fill-opacity:1;" d="M 18.386719 31.144531 C 18.386719 30.042969 17.492188 29.152344 16.394531 29.152344 C 15.292969 29.152344 14.402344 30.042969 14.402344 31.144531 C 14.402344 32.242188 15.292969 33.136719 16.394531 33.136719 C 17.492188 33.136719 18.386719 32.242188 18.386719 31.144531 Z M 18.386719 31.144531 "/>
<path style=" stroke:none;fill-rule:nonzero;fill:rgb(0%,0%,0%);fill-opacity:1;" d="M 4.210938 2.796875 C 4.210938 1.695312 3.320312 0.804688 2.21875 0.804688 C 1.121094 0.804688 0.226562 1.695312 0.226562 2.796875 C 0.226562 3.898438 1.121094 4.789062 2.21875 4.789062 C 3.320312 4.789062 4.210938 3.898438 4.210938 2.796875 Z M 4.210938 2.796875 "/>
<path style=" stroke:none;fill-rule:nonzero;fill:rgb(0%,0%,0%);fill-opacity:1;" d="M 32.558594 2.796875 C 32.558594 1.695312 31.667969 0.804688 30.566406 0.804688 C 29.464844 0.804688 28.574219 1.695312 28.574219 2.796875 C 28.574219 3.898438 29.464844 4.789062 30.566406 4.789062 C 31.667969 4.789062 32.558594 3.898438 32.558594 2.796875 Z M 32.558594 2.796875 "/>
<path style=" stroke:none;fill-rule:nonzero;fill:rgb(0%,0%,0%);fill-opacity:1;" d="M 75.078125 31.144531 C 75.078125 30.042969 74.1875 29.152344 73.085938 29.152344 C 71.988281 29.152344 71.09375 30.042969 71.09375 31.144531 C 71.09375 32.242188 71.988281 33.136719 73.085938 33.136719 C 74.1875 33.136719 75.078125 32.242188 75.078125 31.144531 Z M 75.078125 31.144531 "/>
</g>
</svg>
