<?xml version="1.0" encoding="UTF-8"?>
<svg xmlns="http://www.w3.org/2000/svg" xmlns:xlink="http://www.w3.org/1999/xlink" width="171pt" height="143pt" viewBox="0 0 171 143" version="1.1">
<g id="surface1">
<path style="fill:none;stroke-width:0.3985;stroke-linecap:butt;stroke-linejoin:miter;stroke:rgb(0%,0%,0%);stroke-opacity:1;stroke-miterlimit:10;" d="M 0.00053125 -0.00025 L 141.734906 -0.00025 M 0.00053125 28.347406 L 141.734906 28.347406 M 0.00053125 56.695063 L 141.734906 56.695063 M 0.00053125 85.038813 L 141.734906 85.038813 M 0.00053125 113.378656 L 141.734906 113.378656 M 0.00053125 -0.00025 L 0.00053125 113.386469 M 28.348188 -0.00025 L 28.348188 113.386469 M 56.691938 -0.00025 L 56.691938 113.386469 M 85.039594 -0.00025 L 85.039594 113.386469 M 113.38725 -0.00025 L 113.38725 113.386469 M 141.723187 -0.00025 L 141.723187 113.386469 " transform="matrix(1,0,0,-1,0.894,142.531)"/>
<path style="fill:none;stroke-width:0.3985;stroke-linecap:butt;stroke-linejoin:miter;stroke:rgb(0%,0%,0%);stroke-opacity:1;stroke-miterlimit:10;" d="M 99.215375 141.734125 L 99.215375 120.870844 " transform="matrix(1,0,0,-1,0.894,142.531)"/>
<path style="fill:none;stroke-width:0.3985;stroke-linecap:round;stroke-linejoin:round;stroke:rgb(0%,0%,0%);stroke-opacity:1;stroke-miterlimit:10;" d="M -2.072674 2.39218 C -1.693768 0.95468 -0.850018 0.278899 0.001545 0.001555 C -0.850018 -0.279695 -1.693768 -0.955476 -2.072674 -2.392976 " transform="matrix(0,1,1,0,100.10782,21.85783)"/>
<path style="fill:none;stroke-width:0.3985;stroke-linecap:butt;stroke-linejoin:miter;stroke:rgb(0%,0%,0%);stroke-opacity:1;stroke-miterlimit:10;" d="M 170.082562 42.519281 L 149.219281 42.519281 " transform="matrix(1,0,0,-1,0.894,142.531)"/>
<path style="fill:none;stroke-width:0.3985;stroke-linecap:round;stroke-linejoin:round;stroke:rgb(0%,0%,0%);stroke-opacity:1;stroke-miterlimit:10;" d="M -2.070385 2.391544 C -1.695385 0.95795 -0.851635 0.278262 -0.0000725 0.00091875 C -0.851635 -0.280331 -1.695385 -0.956113 -2.070385 -2.389706 " transform="matrix(-1,0,0,1,149.91399,100.0108)"/>
</g>
</svg>
