<?xml version="1.0" encoding="UTF-8"?>
<svg xmlns="http://www.w3.org/2000/svg" xmlns:xlink="http://www.w3.org/1999/xlink" width="86pt" height="87pt" viewBox="0 0 86 87" version="1.1">
<g id="surface1">
<path style="fill:none;stroke-width:3.9851;stroke-linecap:butt;stroke-linejoin:miter;stroke:rgb(54.998779%,54.998779%,100%);stroke-opacity:1;stroke-miterlimit:10;" d="M -28.062344 28.062031 L 0.00015625 39.687031 L 28.062656 28.062031 L 0.00015625 -0.00046875 L 28.062656 -28.062969 L 39.68375 -0.00046875 L 19.843906 -0.00046875 L 0.00015625 -39.684063 L -19.843594 -0.00046875 L -39.683438 -0.00046875 L -28.062344 -28.062969 " transform="matrix(1,0,0,-1,42.91,42.48)"/>
<path style="fill:none;stroke-width:0.3985;stroke-linecap:butt;stroke-linejoin:miter;stroke:rgb(0%,0%,0%);stroke-opacity:1;stroke-miterlimit:10;" d="M 39.68375 -0.00046875 L 28.062656 28.062031 " transform="matrix(1,0,0,-1,42.91,42.48)"/>
<path style=" stroke:none;fill-rule:nonzero;fill:rgb(0%,0%,0%);fill-opacity:1;" d="M 84.589844 42.480469 C 84.589844 41.378906 83.695312 40.488281 82.59375 40.488281 C 81.496094 40.488281 80.601562 41.378906 80.601562 42.480469 C 80.601562 43.582031 81.496094 44.472656 82.59375 44.472656 C 83.695312 44.472656 84.589844 43.582031 84.589844 42.480469 Z M 84.589844 42.480469 "/>
<path style="fill:none;stroke-width:0.3985;stroke-linecap:butt;stroke-linejoin:miter;stroke:rgb(0%,0%,0%);stroke-opacity:1;stroke-miterlimit:10;" d="M 28.062656 28.062031 L 0.00015625 39.687031 " transform="matrix(1,0,0,-1,42.91,42.48)"/>
<path style=" stroke:none;fill-rule:nonzero;fill:rgb(0%,0%,0%);fill-opacity:1;" d="M 72.964844 14.417969 C 72.964844 13.316406 72.070312 12.425781 70.972656 12.425781 C 69.871094 12.425781 68.980469 13.316406 68.980469 14.417969 C 68.980469 15.519531 69.871094 16.410156 70.972656 16.410156 C 72.070312 16.410156 72.964844 15.519531 72.964844 14.417969 Z M 72.964844 14.417969 "/>
<path style="fill:none;stroke-width:0.3985;stroke-linecap:butt;stroke-linejoin:miter;stroke:rgb(0%,0%,0%);stroke-opacity:1;stroke-miterlimit:10;" d="M 0.00015625 39.687031 L -28.062344 28.062031 " transform="matrix(1,0,0,-1,42.91,42.48)"/>
<path style=" stroke:none;fill-rule:nonzero;fill:rgb(0%,0%,0%);fill-opacity:1;" d="M 44.902344 2.792969 C 44.902344 1.695312 44.011719 0.800781 42.910156 0.800781 C 41.808594 0.800781 40.917969 1.695312 40.917969 2.792969 C 40.917969 3.894531 41.808594 4.789062 42.910156 4.789062 C 44.011719 4.789062 44.902344 3.894531 44.902344 2.792969 Z M 44.902344 2.792969 "/>
<path style="fill:none;stroke-width:0.3985;stroke-linecap:butt;stroke-linejoin:miter;stroke:rgb(0%,0%,0%);stroke-opacity:1;stroke-miterlimit:10;" d="M -28.062344 28.062031 L -39.683438 -0.00046875 " transform="matrix(1,0,0,-1,42.91,42.48)"/>
<path style=" stroke:none;fill-rule:nonzero;fill:rgb(0%,0%,0%);fill-opacity:1;" d="M 16.839844 14.417969 C 16.839844 13.316406 15.949219 12.425781 14.847656 12.425781 C 13.746094 12.425781 12.855469 13.316406 12.855469 14.417969 C 12.855469 15.519531 13.746094 16.410156 14.847656 16.410156 C 15.949219 16.410156 16.839844 15.519531 16.839844 14.417969 Z M 16.839844 14.417969 "/>
<path style="fill:none;stroke-width:0.3985;stroke-linecap:butt;stroke-linejoin:miter;stroke:rgb(0%,0%,0%);stroke-opacity:1;stroke-miterlimit:10;" d="M -39.683438 -0.00046875 L -28.062344 -28.062969 " transform="matrix(1,0,0,-1,42.91,42.48)"/>
<path style=" stroke:none;fill-rule:nonzero;fill:rgb(0%,0%,0%);fill-opacity:1;" d="M 5.21875 42.480469 C 5.21875 41.378906 4.324219 40.488281 3.226562 40.488281 C 2.125 40.488281 1.230469 41.378906 1.230469 42.480469 C 1.230469 43.582031 2.125 44.472656 3.226562 44.472656 C 4.324219 44.472656 5.21875 43.582031 5.21875 42.480469 Z M 5.21875 42.480469 "/>
<path style="fill:none;stroke-width:0.3985;stroke-linecap:butt;stroke-linejoin:miter;stroke:rgb(0%,0%,0%);stroke-opacity:1;stroke-miterlimit:10;" d="M -28.062344 -28.062969 L 0.00015625 -39.684063 " transform="matrix(1,0,0,-1,42.91,42.48)"/>
<path style=" stroke:none;fill-rule:nonzero;fill:rgb(0%,0%,0%);fill-opacity:1;" d="M 16.839844 70.542969 C 16.839844 69.441406 15.949219 68.550781 14.847656 68.550781 C 13.746094 68.550781 12.855469 69.441406 12.855469 70.542969 C 12.855469 71.640625 13.746094 72.535156 14.847656 72.535156 C 15.949219 72.535156 16.839844 71.640625 16.839844 70.542969 Z M 16.839844 70.542969 "/>
<path style="fill:none;stroke-width:0.3985;stroke-linecap:butt;stroke-linejoin:miter;stroke:rgb(0%,0%,0%);stroke-opacity:1;stroke-miterlimit:10;" d="M 0.00015625 -39.684063 L 28.062656 -28.062969 " transform="matrix(1,0,0,-1,42.91,42.48)"/>
<path style=" stroke:none;fill-rule:nonzero;fill:rgb(0%,0%,0%);fill-opacity:1;" d="M 44.902344 82.164062 C 44.902344 81.066406 44.011719 80.171875 42.910156 80.171875 C 41.808594 80.171875 40.917969 81.066406 40.917969 82.164062 C 40.917969 83.265625 41.808594 84.15625 42.910156 84.15625 C 44.011719 84.15625 44.902344 83.265625 44.902344 82.164062 Z M 44.902344 82.164062 "/>
<path style="fill:none;stroke-width:0.3985;stroke-linecap:butt;stroke-linejoin:miter;stroke:rgb(0%,0%,0%);stroke-opacity:1;stroke-miterlimit:10;" d="M 28.062656 -28.062969 L 39.68375 -0.00046875 " transform="matrix(1,0,0,-1,42.91,42.48)"/>
<path style=" stroke:none;fill-rule:nonzero;fill:rgb(0%,0%,0%);fill-opacity:1;" d="M 72.964844 70.542969 C 72.964844 69.441406 72.070312 68.550781 70.972656 68.550781 C 69.871094 68.550781 68.980469 69.441406 68.980469 70.542969 C 68.980469 71.640625 69.871094 72.535156 70.972656 72.535156 C 72.070312 72.535156 72.964844 71.640625 72.964844 70.542969 Z M 72.964844 70.542969 "/>
<path style="fill:none;stroke-width:0.3985;stroke-linecap:butt;stroke-linejoin:miter;stroke:rgb(0%,0%,0%);stroke-opacity:1;stroke-miterlimit:10;" d="M 0.00015625 -0.00046875 L 28.062656 28.062031 M 0.00015625 -0.00046875 L -28.062344 28.062031 M 0.00015625 -0.00046875 L -28.062344 -28.062969 M 0.00015625 -0.00046875 L 28.062656 -28.062969 " transform="matrix(1,0,0,-1,42.91,42.48)"/>
<path style=" stroke:none;fill-rule:nonzero;fill:rgb(0%,0%,0%);fill-opacity:1;" d="M 44.902344 42.480469 C 44.902344 41.378906 44.011719 40.488281 42.910156 40.488281 C 41.808594 40.488281 40.917969 41.378906 40.917969 42.480469 C 40.917969 43.582031 41.808594 44.472656 42.910156 44.472656 C 44.011719 44.472656 44.902344 43.582031 44.902344 42.480469 Z M 44.902344 42.480469 "/>
<path style="fill:none;stroke-width:0.3985;stroke-linecap:butt;stroke-linejoin:miter;stroke:rgb(0%,0%,0%);stroke-opacity:1;stroke-miterlimit:10;" d="M -19.843594 -0.00046875 L 0.00015625 39.687031 M -19.843594 -0.00046875 L -39.683438 -0.00046875 M -19.843594 -0.00046875 L 0.00015625 -39.684063 " transform="matrix(1,0,0,-1,42.91,42.48)"/>
<path style=" stroke:none;fill-rule:nonzero;fill:rgb(0%,0%,0%);fill-opacity:1;" d="M 25.058594 42.480469 C 25.058594 41.378906 24.167969 40.488281 23.066406 40.488281 C 21.96875 40.488281 21.074219 41.378906 21.074219 42.480469 C 21.074219 43.582031 21.96875 44.472656 23.066406 44.472656 C 24.167969 44.472656 25.058594 43.582031 25.058594 42.480469 Z M 25.058594 42.480469 "/>
<path style="fill:none;stroke-width:0.3985;stroke-linecap:butt;stroke-linejoin:miter;stroke:rgb(0%,0%,0%);stroke-opacity:1;stroke-miterlimit:10;" d="M 19.843906 -0.00046875 L 0.00015625 39.687031 M 19.843906 -0.00046875 L 39.68375 -0.00046875 M 19.843906 -0.00046875 L 0.00015625 -39.684063 " transform="matrix(1,0,0,-1,42.91,42.48)"/>
<path style=" stroke:none;fill-rule:nonzero;fill:rgb(0%,0%,0%);fill-opacity:1;" d="M 64.746094 42.480469 C 64.746094 41.378906 63.851562 40.488281 62.753906 40.488281 C 61.652344 40.488281 60.761719 41.378906 60.761719 42.480469 C 60.761719 43.582031 61.652344 44.472656 62.753906 44.472656 C 63.851562 44.472656 64.746094 43.582031 64.746094 42.480469 Z M 64.746094 42.480469 "/>
</g>
</svg>
