<?xml version="1.0" encoding="UTF-8"?>
<svg xmlns="http://www.w3.org/2000/svg" xmlns:xlink="http://www.w3.org/1999/xlink" width="103pt" height="119pt" viewBox="0 0 103 119" version="1.1">
<g id="surface1">
<path style="fill:none;stroke-width:0.3985;stroke-linecap:butt;stroke-linejoin:miter;stroke:rgb(0%,0%,0%);stroke-opacity:1;stroke-miterlimit:10;" d="M 0.00034375 56.692062 L 49.098 28.348312 " transform="matrix(1,0,0,-1,51.777,59.653)"/>
<path style=" stroke:none;fill-rule:nonzero;fill:rgb(0%,0%,0%);fill-opacity:1;" d="M 53.769531 2.960938 C 53.769531 1.859375 52.878906 0.96875 51.777344 0.96875 C 50.675781 0.96875 49.785156 1.859375 49.785156 2.960938 C 49.785156 4.058594 50.675781 4.953125 51.777344 4.953125 C 52.878906 4.953125 53.769531 4.058594 53.769531 2.960938 Z M 53.769531 2.960938 "/>
<path style="fill:none;stroke-width:0.3985;stroke-linecap:butt;stroke-linejoin:miter;stroke:rgb(0%,0%,0%);stroke-opacity:1;stroke-miterlimit:10;" d="M 49.098 28.348312 L 49.098 -28.347 " transform="matrix(1,0,0,-1,51.777,59.653)"/>
<path style=" stroke:none;fill-rule:nonzero;fill:rgb(0%,0%,0%);fill-opacity:1;" d="M 102.867188 31.304688 C 102.867188 30.207031 101.976562 29.3125 100.875 29.3125 C 99.773438 29.3125 98.882812 30.207031 98.882812 31.304688 C 98.882812 32.40625 99.773438 33.296875 100.875 33.296875 C 101.976562 33.296875 102.867188 32.40625 102.867188 31.304688 Z M 102.867188 31.304688 "/>
<path style="fill:none;stroke-width:0.3985;stroke-linecap:butt;stroke-linejoin:miter;stroke:rgb(0%,0%,0%);stroke-opacity:1;stroke-miterlimit:10;" d="M 49.098 -28.347 L 0.00034375 -56.694656 " transform="matrix(1,0,0,-1,51.777,59.653)"/>
<path style=" stroke:none;fill-rule:nonzero;fill:rgb(0%,0%,0%);fill-opacity:1;" d="M 102.867188 88 C 102.867188 86.898438 101.976562 86.007812 100.875 86.007812 C 99.773438 86.007812 98.882812 86.898438 98.882812 88 C 98.882812 89.101562 99.773438 89.992188 100.875 89.992188 C 101.976562 89.992188 102.867188 89.101562 102.867188 88 Z M 102.867188 88 "/>
<path style="fill:none;stroke-width:0.3985;stroke-linecap:butt;stroke-linejoin:miter;stroke:rgb(0%,0%,0%);stroke-opacity:1;stroke-miterlimit:10;" d="M 0.00034375 -56.694656 L -49.097313 -28.347 " transform="matrix(1,0,0,-1,51.777,59.653)"/>
<path style=" stroke:none;fill-rule:nonzero;fill:rgb(0%,0%,0%);fill-opacity:1;" d="M 53.769531 116.347656 C 53.769531 115.246094 52.878906 114.355469 51.777344 114.355469 C 50.675781 114.355469 49.785156 115.246094 49.785156 116.347656 C 49.785156 117.445312 50.675781 118.339844 51.777344 118.339844 C 52.878906 118.339844 53.769531 117.445312 53.769531 116.347656 Z M 53.769531 116.347656 "/>
<path style="fill:none;stroke-width:0.3985;stroke-linecap:butt;stroke-linejoin:miter;stroke:rgb(0%,0%,0%);stroke-opacity:1;stroke-miterlimit:10;" d="M -49.097313 -28.347 L -49.097313 28.348312 " transform="matrix(1,0,0,-1,51.777,59.653)"/>
<path style=" stroke:none;fill-rule:nonzero;fill:rgb(0%,0%,0%);fill-opacity:1;" d="M 4.671875 88 C 4.671875 86.898438 3.777344 86.007812 2.679688 86.007812 C 1.578125 86.007812 0.6875 86.898438 0.6875 88 C 0.6875 89.101562 1.578125 89.992188 2.679688 89.992188 C 3.777344 89.992188 4.671875 89.101562 4.671875 88 Z M 4.671875 88 "/>
<path style="fill:none;stroke-width:0.3985;stroke-linecap:butt;stroke-linejoin:miter;stroke:rgb(0%,0%,0%);stroke-opacity:1;stroke-miterlimit:10;" d="M -49.097313 28.348312 L 0.00034375 56.692062 " transform="matrix(1,0,0,-1,51.777,59.653)"/>
<path style=" stroke:none;fill-rule:nonzero;fill:rgb(0%,0%,0%);fill-opacity:1;" d="M 4.671875 31.304688 C 4.671875 30.207031 3.777344 29.3125 2.679688 29.3125 C 1.578125 29.3125 0.6875 30.207031 0.6875 31.304688 C 0.6875 32.40625 1.578125 33.296875 2.679688 33.296875 C 3.777344 33.296875 4.671875 32.40625 4.671875 31.304688 Z M 4.671875 31.304688 "/>
<path style="fill:none;stroke-width:0.3985;stroke-linecap:butt;stroke-linejoin:miter;stroke:rgb(0%,0%,0%);stroke-opacity:1;stroke-miterlimit:10;" d="M 0.00034375 56.692062 L -28.347313 0.00065625 M -28.347313 0.00065625 L 0.00034375 -56.694656 " transform="matrix(1,0,0,-1,51.777,59.653)"/>
<path style=" stroke:none;fill-rule:nonzero;fill:rgb(0%,0%,0%);fill-opacity:1;" d="M 25.421875 59.652344 C 25.421875 58.550781 24.53125 57.660156 23.429688 57.660156 C 22.328125 57.660156 21.4375 58.550781 21.4375 59.652344 C 21.4375 60.753906 22.328125 61.644531 23.429688 61.644531 C 24.53125 61.644531 25.421875 60.753906 25.421875 59.652344 Z M 25.421875 59.652344 "/>
<path style=" stroke:none;fill-rule:nonzero;fill:rgb(0%,0%,0%);fill-opacity:1;" d="M 67.941406 84.203125 C 67.941406 83.101562 67.050781 82.210938 65.949219 82.210938 C 64.851562 82.210938 63.957031 83.101562 63.957031 84.203125 C 63.957031 85.300781 64.851562 86.195312 65.949219 86.195312 C 67.050781 86.195312 67.941406 85.300781 67.941406 84.203125 Z M 67.941406 84.203125 "/>
<path style=" stroke:none;fill-rule:nonzero;fill:rgb(0%,0%,0%);fill-opacity:1;" d="M 67.941406 35.105469 C 67.941406 34.003906 67.050781 33.113281 65.949219 33.113281 C 64.851562 33.113281 63.957031 34.003906 63.957031 35.105469 C 63.957031 36.203125 64.851562 37.097656 65.949219 37.097656 C 67.050781 37.097656 67.941406 36.203125 67.941406 35.105469 Z M 67.941406 35.105469 "/>
<path style="fill:none;stroke-width:0.3985;stroke-linecap:butt;stroke-linejoin:miter;stroke:rgb(0%,0%,0%);stroke-opacity:1;stroke-miterlimit:10;" d="M 49.098 28.348312 L 14.172219 -24.550125 L -49.097313 -28.347 M 49.098 -28.347 L 14.172219 24.547531 L -49.097313 28.348312 " transform="matrix(1,0,0,-1,51.777,59.653)"/>
</g>
</svg>
