<?xml version="1.0" encoding="UTF-8"?>
<svg xmlns="http://www.w3.org/2000/svg" xmlns:xlink="http://www.w3.org/1999/xlink" width="83pt" height="42pt" viewBox="0 0 83 42" version="1.1">
<g id="surface1">
<path style=" stroke:none;fill-rule:nonzero;fill:rgb(0%,0%,0%);fill-opacity:1;" d="M 18.753906 3.152344 C 18.753906 1.742188 17.609375 0.597656 16.199219 0.597656 C 14.792969 0.597656 13.648438 1.742188 13.648438 3.152344 C 13.648438 4.558594 14.792969 5.703125 16.199219 5.703125 C 17.609375 5.703125 18.753906 4.558594 18.753906 3.152344 Z M 44.265625 3.152344 C 44.265625 1.742188 43.121094 0.597656 41.714844 0.597656 C 40.304688 0.597656 39.160156 1.742188 39.160156 3.152344 C 39.160156 4.558594 40.304688 5.703125 41.714844 5.703125 C 43.121094 5.703125 44.265625 4.558594 44.265625 3.152344 Z M 69.777344 3.152344 C 69.777344 1.742188 68.632812 0.597656 67.226562 0.597656 C 65.816406 0.597656 64.671875 1.742188 64.671875 3.152344 C 64.671875 4.558594 65.816406 5.703125 67.226562 5.703125 C 68.632812 5.703125 69.777344 4.558594 69.777344 3.152344 Z M 69.777344 3.152344 "/>
<path style="fill:none;stroke-width:0.3985;stroke-linecap:butt;stroke-linejoin:miter;stroke:rgb(0%,0%,0%);stroke-opacity:1;stroke-miterlimit:10;" d="M -28.064563 25.511094 L -38.11925 0.370469 " transform="matrix(1,0,0,-1,41.713,33.765)"/>
<path style="fill:none;stroke-width:0.3985;stroke-linecap:round;stroke-linejoin:round;stroke:rgb(0%,0%,0%);stroke-opacity:1;stroke-miterlimit:10;" d="M -2.072894 2.389791 C -1.692782 0.955731 -0.849889 0.278966 -0.00192334 -0.000294117 C -0.849158 -0.280298 -1.694211 -0.954906 -2.07139 -2.388975 " transform="matrix(-0.3714,0.92847,0.92847,0.3714,3.51909,33.58002)"/>
<path style="fill:none;stroke-width:0.3985;stroke-linecap:butt;stroke-linejoin:miter;stroke:rgb(0%,0%,0%);stroke-opacity:1;stroke-miterlimit:10;" d="M -22.959094 25.511094 L -12.904406 0.370469 " transform="matrix(1,0,0,-1,41.713,33.765)"/>
<path style="fill:none;stroke-width:0.3985;stroke-linecap:round;stroke-linejoin:round;stroke:rgb(0%,0%,0%);stroke-opacity:1;stroke-miterlimit:10;" d="M -2.071311 2.389174 C -1.694132 0.955104 -0.849078 0.280497 -0.00184395 0.000492579 C -0.84981 -0.278767 -1.692702 -0.955532 -2.072815 -2.389593 " transform="matrix(0.3714,0.92847,0.92847,-0.3714,28.88304,33.58002)"/>
<path style="fill:none;stroke-width:0.3985;stroke-linecap:butt;stroke-linejoin:miter;stroke:rgb(0%,0%,0%);stroke-opacity:1;stroke-miterlimit:10;" d="M 0.00184375 25.511094 L 12.576062 0.354844 " transform="matrix(1,0,0,-1,41.713,33.765)"/>
<path style="fill:none;stroke-width:0.3985;stroke-linecap:round;stroke-linejoin:round;stroke:rgb(0%,0%,0%);stroke-opacity:1;stroke-miterlimit:10;" d="M -2.072953 2.389382 C -1.69391 0.955152 -0.848419 0.279071 -0.00117115 -0.00045836 C -0.848434 -0.279943 -1.693961 -0.957724 -2.073081 -2.388441 " transform="matrix(0.44724,0.89442,0.89442,-0.44724,54.37984,33.58678)"/>
<path style="fill:none;stroke-width:0.3985;stroke-linecap:butt;stroke-linejoin:miter;stroke:rgb(0%,0%,0%);stroke-opacity:1;stroke-miterlimit:10;" d="M 25.513562 25.511094 L 38.087781 0.354844 " transform="matrix(1,0,0,-1,41.713,33.765)"/>
<path style="fill:none;stroke-width:0.3985;stroke-linecap:round;stroke-linejoin:round;stroke:rgb(0%,0%,0%);stroke-opacity:1;stroke-miterlimit:10;" d="M -2.071283 2.392668 C -1.694002 0.954947 -0.848521 0.278862 -0.00127904 -0.000674122 C -0.848541 -0.28015 -1.69407 -0.957921 -2.073201 -2.388627 " transform="matrix(0.44725,0.89442,0.89442,-0.44725,79.8918,33.58678)"/>
<path style="fill:none;stroke-width:0.3985;stroke-linecap:butt;stroke-linejoin:miter;stroke:rgb(0%,0%,0%);stroke-opacity:1;stroke-miterlimit:10;" d="M -10.205188 -5.102187 C -10.205188 -3.692031 -11.345813 -2.551406 -12.755969 -2.551406 C -14.166125 -2.551406 -15.30675 -3.692031 -15.30675 -5.102187 C -15.30675 -6.512344 -14.166125 -7.652969 -12.755969 -7.652969 C -11.345813 -7.652969 -10.205188 -6.512344 -10.205188 -5.102187 Z M 15.306531 -5.102187 C 15.306531 -3.692031 14.165906 -2.551406 12.75575 -2.551406 C 11.345594 -2.551406 10.204969 -3.692031 10.204969 -5.102187 C 10.204969 -6.512344 11.345594 -7.652969 12.75575 -7.652969 C 14.165906 -7.652969 15.306531 -6.512344 15.306531 -5.102187 Z M -35.716906 -5.102187 C -35.716906 -3.692031 -36.857531 -2.551406 -38.267688 -2.551406 C -39.677844 -2.551406 -40.818469 -3.692031 -40.818469 -5.102187 C -40.818469 -6.512344 -39.677844 -7.652969 -38.267688 -7.652969 C -36.857531 -7.652969 -35.716906 -6.512344 -35.716906 -5.102187 Z M 40.81825 -5.102187 C 40.81825 -3.692031 39.677625 -2.551406 38.267469 -2.551406 C 36.857312 -2.551406 35.716687 -3.692031 35.716687 -5.102187 C 35.716687 -6.512344 36.857312 -7.652969 38.267469 -7.652969 C 39.677625 -7.652969 40.81825 -6.512344 40.81825 -5.102187 Z M 40.81825 -5.102187 " transform="matrix(1,0,0,-1,41.713,33.765)"/>
</g>
</svg>
