<?xml version="1.0" encoding="UTF-8"?>
<svg xmlns="http://www.w3.org/2000/svg" xmlns:xlink="http://www.w3.org/1999/xlink" width="91pt" height="91pt" viewBox="0 0 91 91" version="1.1">
<g id="surface1">
<path style="fill-rule:nonzero;fill:rgb(0%,0%,0%);fill-opacity:1;stroke-width:0.3985;stroke-linecap:butt;stroke-linejoin:miter;stroke:rgb(0%,0%,0%);stroke-opacity:1;stroke-miterlimit:10;" d="M 1.991906 -0.00103125 C 1.991906 1.100531 1.101281 1.991156 -0.00028125 1.991156 C -1.101844 1.991156 -1.992469 1.100531 -1.992469 -0.00103125 C -1.992469 -1.098687 -1.101844 -1.993219 -0.00028125 -1.993219 C 1.101281 -1.993219 1.991906 -1.098687 1.991906 -0.00103125 Z M 1.991906 -0.00103125 " transform="matrix(1,0,0,-1,2.887,87.831)"/>
<path style="fill-rule:nonzero;fill:rgb(0%,0%,0%);fill-opacity:1;stroke-width:0.3985;stroke-linecap:butt;stroke-linejoin:miter;stroke:rgb(0%,0%,0%);stroke-opacity:1;stroke-miterlimit:10;" d="M 1.991906 28.346625 C 1.991906 29.448188 1.101281 30.338813 -0.00028125 30.338813 C -1.101844 30.338813 -1.992469 29.448188 -1.992469 28.346625 C -1.992469 27.245063 -1.101844 26.354438 -0.00028125 26.354438 C 1.101281 26.354438 1.991906 27.245063 1.991906 28.346625 Z M 1.991906 28.346625 " transform="matrix(1,0,0,-1,2.887,87.831)"/>
<path style="fill-rule:nonzero;fill:rgb(0%,0%,0%);fill-opacity:1;stroke-width:0.3985;stroke-linecap:butt;stroke-linejoin:miter;stroke:rgb(0%,0%,0%);stroke-opacity:1;stroke-miterlimit:10;" d="M 1.991906 56.694281 C 1.991906 57.795844 1.101281 58.686469 -0.00028125 58.686469 C -1.101844 58.686469 -1.992469 57.795844 -1.992469 56.694281 C -1.992469 55.592719 -1.101844 54.702094 -0.00028125 54.702094 C 1.101281 54.702094 1.991906 55.592719 1.991906 56.694281 Z M 1.991906 56.694281 " transform="matrix(1,0,0,-1,2.887,87.831)"/>
<path style="fill-rule:nonzero;fill:rgb(0%,0%,0%);fill-opacity:1;stroke-width:0.3985;stroke-linecap:butt;stroke-linejoin:miter;stroke:rgb(0%,0%,0%);stroke-opacity:1;stroke-miterlimit:10;" d="M 1.991906 85.041938 C 1.991906 86.139594 1.101281 87.034125 -0.00028125 87.034125 C -1.101844 87.034125 -1.992469 86.139594 -1.992469 85.041938 C -1.992469 83.940375 -1.101844 83.04975 -0.00028125 83.04975 C 1.101281 83.04975 1.991906 83.940375 1.991906 85.041938 Z M 1.991906 85.041938 " transform="matrix(1,0,0,-1,2.887,87.831)"/>
<path style="fill-rule:nonzero;fill:rgb(0%,0%,0%);fill-opacity:1;stroke-width:0.3985;stroke-linecap:butt;stroke-linejoin:miter;stroke:rgb(0%,0%,0%);stroke-opacity:1;stroke-miterlimit:10;" d="M 30.339563 -0.00103125 C 30.339563 1.100531 29.448938 1.991156 28.347375 1.991156 C 27.245813 1.991156 26.355188 1.100531 26.355188 -0.00103125 C 26.355188 -1.098687 27.245813 -1.993219 28.347375 -1.993219 C 29.448938 -1.993219 30.339563 -1.098687 30.339563 -0.00103125 Z M 30.339563 -0.00103125 " transform="matrix(1,0,0,-1,2.887,87.831)"/>
<path style="fill-rule:nonzero;fill:rgb(0%,0%,0%);fill-opacity:1;stroke-width:0.3985;stroke-linecap:butt;stroke-linejoin:miter;stroke:rgb(0%,0%,0%);stroke-opacity:1;stroke-miterlimit:10;" d="M 30.339563 28.346625 C 30.339563 29.448188 29.448938 30.338813 28.347375 30.338813 C 27.245813 30.338813 26.355188 29.448188 26.355188 28.346625 C 26.355188 27.245063 27.245813 26.354438 28.347375 26.354438 C 29.448938 26.354438 30.339563 27.245063 30.339563 28.346625 Z M 30.339563 28.346625 " transform="matrix(1,0,0,-1,2.887,87.831)"/>
<path style="fill-rule:nonzero;fill:rgb(0%,0%,0%);fill-opacity:1;stroke-width:0.3985;stroke-linecap:butt;stroke-linejoin:miter;stroke:rgb(0%,0%,0%);stroke-opacity:1;stroke-miterlimit:10;" d="M 30.339563 56.694281 C 30.339563 57.795844 29.448938 58.686469 28.347375 58.686469 C 27.245813 58.686469 26.355188 57.795844 26.355188 56.694281 C 26.355188 55.592719 27.245813 54.702094 28.347375 54.702094 C 29.448938 54.702094 30.339563 55.592719 30.339563 56.694281 Z M 30.339563 56.694281 " transform="matrix(1,0,0,-1,2.887,87.831)"/>
<path style="fill-rule:nonzero;fill:rgb(0%,0%,0%);fill-opacity:1;stroke-width:0.3985;stroke-linecap:butt;stroke-linejoin:miter;stroke:rgb(0%,0%,0%);stroke-opacity:1;stroke-miterlimit:10;" d="M 30.339563 85.041938 C 30.339563 86.139594 29.448938 87.034125 28.347375 87.034125 C 27.245813 87.034125 26.355188 86.139594 26.355188 85.041938 C 26.355188 83.940375 27.245813 83.04975 28.347375 83.04975 C 29.448938 83.04975 30.339563 83.940375 30.339563 85.041938 Z M 30.339563 85.041938 " transform="matrix(1,0,0,-1,2.887,87.831)"/>
<path style="fill-rule:nonzero;fill:rgb(0%,0%,0%);fill-opacity:1;stroke-width:0.3985;stroke-linecap:butt;stroke-linejoin:miter;stroke:rgb(0%,0%,0%);stroke-opacity:1;stroke-miterlimit:10;" d="M 58.687219 -0.00103125 C 58.687219 1.100531 57.792688 1.991156 56.695031 1.991156 C 55.593469 1.991156 54.702844 1.100531 54.702844 -0.00103125 C 54.702844 -1.098687 55.593469 -1.993219 56.695031 -1.993219 C 57.792688 -1.993219 58.687219 -1.098687 58.687219 -0.00103125 Z M 58.687219 -0.00103125 " transform="matrix(1,0,0,-1,2.887,87.831)"/>
<path style="fill-rule:nonzero;fill:rgb(0%,0%,0%);fill-opacity:1;stroke-width:0.3985;stroke-linecap:butt;stroke-linejoin:miter;stroke:rgb(0%,0%,0%);stroke-opacity:1;stroke-miterlimit:10;" d="M 58.687219 28.346625 C 58.687219 29.448188 57.792688 30.338813 56.695031 30.338813 C 55.593469 30.338813 54.702844 29.448188 54.702844 28.346625 C 54.702844 27.245063 55.593469 26.354438 56.695031 26.354438 C 57.792688 26.354438 58.687219 27.245063 58.687219 28.346625 Z M 58.687219 28.346625 " transform="matrix(1,0,0,-1,2.887,87.831)"/>
<path style="fill-rule:nonzero;fill:rgb(0%,0%,0%);fill-opacity:1;stroke-width:0.3985;stroke-linecap:butt;stroke-linejoin:miter;stroke:rgb(0%,0%,0%);stroke-opacity:1;stroke-miterlimit:10;" d="M 58.687219 56.694281 C 58.687219 57.795844 57.792688 58.686469 56.695031 58.686469 C 55.593469 58.686469 54.702844 57.795844 54.702844 56.694281 C 54.702844 55.592719 55.593469 54.702094 56.695031 54.702094 C 57.792688 54.702094 58.687219 55.592719 58.687219 56.694281 Z M 58.687219 56.694281 " transform="matrix(1,0,0,-1,2.887,87.831)"/>
<path style="fill-rule:nonzero;fill:rgb(0%,0%,0%);fill-opacity:1;stroke-width:0.3985;stroke-linecap:butt;stroke-linejoin:miter;stroke:rgb(0%,0%,0%);stroke-opacity:1;stroke-miterlimit:10;" d="M 58.687219 85.041938 C 58.687219 86.139594 57.792688 87.034125 56.695031 87.034125 C 55.593469 87.034125 54.702844 86.139594 54.702844 85.041938 C 54.702844 83.940375 55.593469 83.04975 56.695031 83.04975 C 57.792688 83.04975 58.687219 83.940375 58.687219 85.041938 Z M 58.687219 85.041938 " transform="matrix(1,0,0,-1,2.887,87.831)"/>
<path style="fill-rule:nonzero;fill:rgb(0%,0%,0%);fill-opacity:1;stroke-width:0.3985;stroke-linecap:butt;stroke-linejoin:miter;stroke:rgb(0%,0%,0%);stroke-opacity:1;stroke-miterlimit:10;" d="M 87.034875 -0.00103125 C 87.034875 1.100531 86.140344 1.991156 85.038781 1.991156 C 83.941125 1.991156 83.046594 1.100531 83.046594 -0.00103125 C 83.046594 -1.098687 83.941125 -1.993219 85.038781 -1.993219 C 86.140344 -1.993219 87.034875 -1.098687 87.034875 -0.00103125 Z M 87.034875 -0.00103125 " transform="matrix(1,0,0,-1,2.887,87.831)"/>
<path style="fill-rule:nonzero;fill:rgb(0%,0%,0%);fill-opacity:1;stroke-width:0.3985;stroke-linecap:butt;stroke-linejoin:miter;stroke:rgb(0%,0%,0%);stroke-opacity:1;stroke-miterlimit:10;" d="M 87.034875 28.346625 C 87.034875 29.448188 86.140344 30.338813 85.038781 30.338813 C 83.941125 30.338813 83.046594 29.448188 83.046594 28.346625 C 83.046594 27.245063 83.941125 26.354438 85.038781 26.354438 C 86.140344 26.354438 87.034875 27.245063 87.034875 28.346625 Z M 87.034875 28.346625 " transform="matrix(1,0,0,-1,2.887,87.831)"/>
<path style="fill-rule:nonzero;fill:rgb(0%,0%,0%);fill-opacity:1;stroke-width:0.3985;stroke-linecap:butt;stroke-linejoin:miter;stroke:rgb(0%,0%,0%);stroke-opacity:1;stroke-miterlimit:10;" d="M 87.034875 56.694281 C 87.034875 57.795844 86.140344 58.686469 85.038781 58.686469 C 83.941125 58.686469 83.046594 57.795844 83.046594 56.694281 C 83.046594 55.592719 83.941125 54.702094 85.038781 54.702094 C 86.140344 54.702094 87.034875 55.592719 87.034875 56.694281 Z M 87.034875 56.694281 " transform="matrix(1,0,0,-1,2.887,87.831)"/>
<path style="fill-rule:nonzero;fill:rgb(0%,0%,0%);fill-opacity:1;stroke-width:0.3985;stroke-linecap:butt;stroke-linejoin:miter;stroke:rgb(0%,0%,0%);stroke-opacity:1;stroke-miterlimit:10;" d="M 87.034875 85.041938 C 87.034875 86.139594 86.140344 87.034125 85.038781 87.034125 C 83.941125 87.034125 83.046594 86.139594 83.046594 85.041938 C 83.046594 83.940375 83.941125 83.04975 85.038781 83.04975 C 86.140344 83.04975 87.034875 83.940375 87.034875 85.041938 Z M 87.034875 85.041938 " transform="matrix(1,0,0,-1,2.887,87.831)"/>
<path style="fill:none;stroke-width:0.3985;stroke-linecap:butt;stroke-linejoin:miter;stroke:rgb(0%,0%,0%);stroke-opacity:1;stroke-miterlimit:10;" d="M 14.171594 -0.00103125 L 85.038781 70.866156 " transform="matrix(1,0,0,-1,2.887,87.831)"/>
</g>
</svg>
