<?xml version="1.0" encoding="UTF-8"?>
<svg xmlns="http://www.w3.org/2000/svg" xmlns:xlink="http://www.w3.org/1999/xlink" width="90pt" height="91pt" viewBox="0 0 90 91" version="1.1">
<g id="surface1">
<path style="fill-rule:nonzero;fill:rgb(0%,0%,0%);fill-opacity:1;stroke-width:0.3985;stroke-linecap:butt;stroke-linejoin:miter;stroke:rgb(0%,0%,0%);stroke-opacity:1;stroke-miterlimit:10;" d="M 1.993906 0.001875 C 1.993906 1.099531 1.099375 1.994062 0.00171875 1.994062 C -1.099844 1.994062 -1.994375 1.099531 -1.994375 0.001875 C -1.994375 -1.099688 -1.099844 -1.994219 0.00171875 -1.994219 C 1.099375 -1.994219 1.993906 -1.099688 1.993906 0.001875 Z M 1.993906 0.001875 " transform="matrix(1,0,0,-1,2.51,87.83)"/>
<path style="fill-rule:nonzero;fill:rgb(0%,0%,0%);fill-opacity:1;stroke-width:0.3985;stroke-linecap:butt;stroke-linejoin:miter;stroke:rgb(0%,0%,0%);stroke-opacity:1;stroke-miterlimit:10;" d="M 1.993906 28.345625 C 1.993906 29.447187 1.099375 30.337812 0.00171875 30.337812 C -1.099844 30.337812 -1.994375 29.447187 -1.994375 28.345625 C -1.994375 27.247969 -1.099844 26.353437 0.00171875 26.353437 C 1.099375 26.353437 1.993906 27.247969 1.993906 28.345625 Z M 1.993906 28.345625 " transform="matrix(1,0,0,-1,2.51,87.83)"/>
<path style="fill-rule:nonzero;fill:rgb(0%,0%,0%);fill-opacity:1;stroke-width:0.3985;stroke-linecap:butt;stroke-linejoin:miter;stroke:rgb(0%,0%,0%);stroke-opacity:1;stroke-miterlimit:10;" d="M 1.993906 56.693281 C 1.993906 57.794844 1.099375 58.685469 0.00171875 58.685469 C -1.099844 58.685469 -1.994375 57.794844 -1.994375 56.693281 C -1.994375 55.591719 -1.099844 54.701094 0.00171875 54.701094 C 1.099375 54.701094 1.993906 55.591719 1.993906 56.693281 Z M 1.993906 56.693281 " transform="matrix(1,0,0,-1,2.51,87.83)"/>
<path style="fill-rule:nonzero;fill:rgb(0%,0%,0%);fill-opacity:1;stroke-width:0.3985;stroke-linecap:butt;stroke-linejoin:miter;stroke:rgb(0%,0%,0%);stroke-opacity:1;stroke-miterlimit:10;" d="M 1.993906 85.040937 C 1.993906 86.1425 1.099375 87.033125 0.00171875 87.033125 C -1.099844 87.033125 -1.994375 86.1425 -1.994375 85.040937 C -1.994375 83.939375 -1.099844 83.04875 0.00171875 83.04875 C 1.099375 83.04875 1.993906 83.939375 1.993906 85.040937 Z M 1.993906 85.040937 " transform="matrix(1,0,0,-1,2.51,87.83)"/>
<path style="fill-rule:nonzero;fill:rgb(0%,0%,0%);fill-opacity:1;stroke-width:0.3985;stroke-linecap:butt;stroke-linejoin:miter;stroke:rgb(0%,0%,0%);stroke-opacity:1;stroke-miterlimit:10;" d="M 30.337656 0.001875 C 30.337656 1.099531 29.447031 1.994062 28.345469 1.994062 C 27.247813 1.994062 26.353281 1.099531 26.353281 0.001875 C 26.353281 -1.099688 27.247813 -1.994219 28.345469 -1.994219 C 29.447031 -1.994219 30.337656 -1.099688 30.337656 0.001875 Z M 30.337656 0.001875 " transform="matrix(1,0,0,-1,2.51,87.83)"/>
<path style="fill-rule:nonzero;fill:rgb(0%,0%,0%);fill-opacity:1;stroke-width:0.3985;stroke-linecap:butt;stroke-linejoin:miter;stroke:rgb(0%,0%,0%);stroke-opacity:1;stroke-miterlimit:10;" d="M 30.337656 28.345625 C 30.337656 29.447187 29.447031 30.337812 28.345469 30.337812 C 27.247813 30.337812 26.353281 29.447187 26.353281 28.345625 C 26.353281 27.247969 27.247813 26.353437 28.345469 26.353437 C 29.447031 26.353437 30.337656 27.247969 30.337656 28.345625 Z M 30.337656 28.345625 " transform="matrix(1,0,0,-1,2.51,87.83)"/>
<path style="fill-rule:nonzero;fill:rgb(0%,0%,0%);fill-opacity:1;stroke-width:0.3985;stroke-linecap:butt;stroke-linejoin:miter;stroke:rgb(0%,0%,0%);stroke-opacity:1;stroke-miterlimit:10;" d="M 30.337656 56.693281 C 30.337656 57.794844 29.447031 58.685469 28.345469 58.685469 C 27.247813 58.685469 26.353281 57.794844 26.353281 56.693281 C 26.353281 55.591719 27.247813 54.701094 28.345469 54.701094 C 29.447031 54.701094 30.337656 55.591719 30.337656 56.693281 Z M 30.337656 56.693281 " transform="matrix(1,0,0,-1,2.51,87.83)"/>
<path style="fill-rule:nonzero;fill:rgb(0%,0%,0%);fill-opacity:1;stroke-width:0.3985;stroke-linecap:butt;stroke-linejoin:miter;stroke:rgb(0%,0%,0%);stroke-opacity:1;stroke-miterlimit:10;" d="M 30.337656 85.040937 C 30.337656 86.1425 29.447031 87.033125 28.345469 87.033125 C 27.247813 87.033125 26.353281 86.1425 26.353281 85.040937 C 26.353281 83.939375 27.247813 83.04875 28.345469 83.04875 C 29.447031 83.04875 30.337656 83.939375 30.337656 85.040937 Z M 30.337656 85.040937 " transform="matrix(1,0,0,-1,2.51,87.83)"/>
<path style="fill-rule:nonzero;fill:rgb(0%,0%,0%);fill-opacity:1;stroke-width:0.3985;stroke-linecap:butt;stroke-linejoin:miter;stroke:rgb(0%,0%,0%);stroke-opacity:1;stroke-miterlimit:10;" d="M 58.685313 0.001875 C 58.685313 1.099531 57.794688 1.994062 56.693125 1.994062 C 55.591563 1.994062 54.700938 1.099531 54.700938 0.001875 C 54.700938 -1.099688 55.591563 -1.994219 56.693125 -1.994219 C 57.794688 -1.994219 58.685313 -1.099688 58.685313 0.001875 Z M 58.685313 0.001875 " transform="matrix(1,0,0,-1,2.51,87.83)"/>
<path style="fill-rule:nonzero;fill:rgb(0%,0%,0%);fill-opacity:1;stroke-width:0.3985;stroke-linecap:butt;stroke-linejoin:miter;stroke:rgb(0%,0%,0%);stroke-opacity:1;stroke-miterlimit:10;" d="M 58.685313 28.345625 C 58.685313 29.447187 57.794688 30.337812 56.693125 30.337812 C 55.591563 30.337812 54.700938 29.447187 54.700938 28.345625 C 54.700938 27.247969 55.591563 26.353437 56.693125 26.353437 C 57.794688 26.353437 58.685313 27.247969 58.685313 28.345625 Z M 58.685313 28.345625 " transform="matrix(1,0,0,-1,2.51,87.83)"/>
<path style="fill-rule:nonzero;fill:rgb(0%,0%,0%);fill-opacity:1;stroke-width:0.3985;stroke-linecap:butt;stroke-linejoin:miter;stroke:rgb(0%,0%,0%);stroke-opacity:1;stroke-miterlimit:10;" d="M 58.685313 56.693281 C 58.685313 57.794844 57.794688 58.685469 56.693125 58.685469 C 55.591563 58.685469 54.700938 57.794844 54.700938 56.693281 C 54.700938 55.591719 55.591563 54.701094 56.693125 54.701094 C 57.794688 54.701094 58.685313 55.591719 58.685313 56.693281 Z M 58.685313 56.693281 " transform="matrix(1,0,0,-1,2.51,87.83)"/>
<path style="fill-rule:nonzero;fill:rgb(0%,0%,0%);fill-opacity:1;stroke-width:0.3985;stroke-linecap:butt;stroke-linejoin:miter;stroke:rgb(0%,0%,0%);stroke-opacity:1;stroke-miterlimit:10;" d="M 58.685313 85.040937 C 58.685313 86.1425 57.794688 87.033125 56.693125 87.033125 C 55.591563 87.033125 54.700938 86.1425 54.700938 85.040937 C 54.700938 83.939375 55.591563 83.04875 56.693125 83.04875 C 57.794688 83.04875 58.685313 83.939375 58.685313 85.040937 Z M 58.685313 85.040937 " transform="matrix(1,0,0,-1,2.51,87.83)"/>
<path style="fill-rule:nonzero;fill:rgb(0%,0%,0%);fill-opacity:1;stroke-width:0.3985;stroke-linecap:butt;stroke-linejoin:miter;stroke:rgb(0%,0%,0%);stroke-opacity:1;stroke-miterlimit:10;" d="M 87.032969 0.001875 C 87.032969 1.099531 86.142344 1.994062 85.040781 1.994062 C 83.939219 1.994062 83.048594 1.099531 83.048594 0.001875 C 83.048594 -1.099688 83.939219 -1.994219 85.040781 -1.994219 C 86.142344 -1.994219 87.032969 -1.099688 87.032969 0.001875 Z M 87.032969 0.001875 " transform="matrix(1,0,0,-1,2.51,87.83)"/>
<path style="fill-rule:nonzero;fill:rgb(0%,0%,0%);fill-opacity:1;stroke-width:0.3985;stroke-linecap:butt;stroke-linejoin:miter;stroke:rgb(0%,0%,0%);stroke-opacity:1;stroke-miterlimit:10;" d="M 87.032969 28.345625 C 87.032969 29.447187 86.142344 30.337812 85.040781 30.337812 C 83.939219 30.337812 83.048594 29.447187 83.048594 28.345625 C 83.048594 27.247969 83.939219 26.353437 85.040781 26.353437 C 86.142344 26.353437 87.032969 27.247969 87.032969 28.345625 Z M 87.032969 28.345625 " transform="matrix(1,0,0,-1,2.51,87.83)"/>
<path style="fill-rule:nonzero;fill:rgb(0%,0%,0%);fill-opacity:1;stroke-width:0.3985;stroke-linecap:butt;stroke-linejoin:miter;stroke:rgb(0%,0%,0%);stroke-opacity:1;stroke-miterlimit:10;" d="M 87.032969 56.693281 C 87.032969 57.794844 86.142344 58.685469 85.040781 58.685469 C 83.939219 58.685469 83.048594 57.794844 83.048594 56.693281 C 83.048594 55.591719 83.939219 54.701094 85.040781 54.701094 C 86.142344 54.701094 87.032969 55.591719 87.032969 56.693281 Z M 87.032969 56.693281 " transform="matrix(1,0,0,-1,2.51,87.83)"/>
<path style="fill-rule:nonzero;fill:rgb(0%,0%,0%);fill-opacity:1;stroke-width:0.3985;stroke-linecap:butt;stroke-linejoin:miter;stroke:rgb(0%,0%,0%);stroke-opacity:1;stroke-miterlimit:10;" d="M 87.032969 85.040937 C 87.032969 86.1425 86.142344 87.033125 85.040781 87.033125 C 83.939219 87.033125 83.048594 86.1425 83.048594 85.040937 C 83.048594 83.939375 83.939219 83.04875 85.040781 83.04875 C 86.142344 83.04875 87.032969 83.939375 87.032969 85.040937 Z M 87.032969 85.040937 " transform="matrix(1,0,0,-1,2.51,87.83)"/>
<path style="fill:none;stroke-width:0.3985;stroke-linecap:butt;stroke-linejoin:miter;stroke:rgb(0%,0%,0%);stroke-opacity:1;stroke-miterlimit:10;" d="M 14.173594 0.001875 L 85.040781 70.865156 " transform="matrix(1,0,0,-1,2.51,87.83)"/>
</g>
</svg>
